<svg width="32" height="36" viewBox="0 0 32 36" fill="none" xmlns="http://www.w3.org/2000/svg">
<path d="M30.6212 28.0549C30.0732 29.3127 29.4246 30.4704 28.673 31.5348C27.6486 32.9858 26.8099 33.9903 26.1634 34.5481C25.1614 35.4636 24.0878 35.9324 22.9382 35.9591C22.1128 35.9591 21.1175 35.7257 19.9589 35.2524C18.7965 34.7814 17.7282 34.5481 16.7515 34.5481C15.7271 34.5481 14.6284 34.7814 13.4533 35.2524C12.2764 35.7257 11.3282 35.9724 10.6033 35.9969C9.50084 36.0436 8.40199 35.5613 7.30512 34.5481C6.60504 33.9414 5.72938 32.9014 4.68038 31.4281C3.55488 29.8548 2.62957 28.0304 1.90466 25.9505C1.12831 23.7039 0.739128 21.5284 0.739128 19.4223C0.739128 17.0097 1.26385 14.9289 2.31486 13.1851C3.14088 11.7845 4.23975 10.6797 5.61508 9.8686C6.99042 9.0575 8.47649 8.64421 10.0768 8.61775C10.9525 8.61775 12.1007 8.88682 13.5278 9.4157C14.9508 9.94639 15.8645 10.2155 16.265 10.2155C16.5645 10.2155 17.5796 9.90084 19.3002 9.2735C20.9274 8.69171 22.3007 8.45082 23.4258 8.54576C26.4744 8.79016 28.7647 9.98411 30.2879 12.1352C27.5614 13.7765 26.2127 16.0753 26.2395 19.0243C26.2641 21.3214 27.1029 23.2328 28.7513 24.7506C29.4984 25.4549 30.3326 25.9994 31.2609 26.3861C31.0595 26.9661 30.847 27.5216 30.6212 28.0549ZM23.6293 0.720204C23.6293 2.52061 22.9673 4.20165 21.6476 5.7576C20.0551 7.60732 18.1289 8.67622 16.04 8.50749C16.0134 8.29149 15.998 8.06422 15.998 7.82532C15.998 6.09693 16.7553 4.24721 18.1002 2.73481C18.7717 1.96905 19.6256 1.33234 20.6612 0.824424C21.6946 0.324082 22.672 0.0473835 23.5912 0C23.6181 0.240687 23.6293 0.481389 23.6293 0.720181V0.720204Z" fill="#3D464D"/>
</svg>
