<svg width="102" height="30" viewBox="0 0 102 30" fill="none" xmlns="http://www.w3.org/2000/svg">
<path d="M100.437 6.81329C98.6953 4.70125 95.6218 3.49008 92.0069 3.49008C88.182 3.49008 84.7388 4.79069 82.354 6.90164L82.7429 4.46459L81.7089 4.15701C80.2453 3.72075 78.6202 3.49008 77.0088 3.49008C74.2396 3.49008 71.5915 4.34625 69.4522 5.75701L70.0679 3.72839H53.5096L53.3133 4.37624C51.842 3.78456 50.2235 3.49008 48.3999 3.49008C44.9911 3.49008 41.3014 4.81305 39.3857 7.36027C39.2602 7.17376 39.1288 6.98998 38.9827 6.81329C37.2404 4.70125 34.1674 3.49008 30.5519 3.49008C26.8405 3.49008 23.484 4.7138 21.1096 6.71624L22.034 1.09664L20.9837 0.792909C19.1901 0.274304 17.1969 0 15.219 0C7.96291 0 1.35847 4.61236 0.183842 10.4997C-0.316221 13.0044 0.267823 15.4305 1.82691 17.3321C3.15587 18.9522 5.11849 20.1073 7.4503 20.6973H0.261278V29.8926H36.8804L36.9371 29.7802L36.9442 29.8926H41.3521L41.9498 28.9181L41.7649 29.8926H51.7308L51.8769 29.1242C52.7527 29.6914 53.8897 29.9995 55.199 29.9995C56.3693 29.9995 57.455 29.7568 58.3908 29.3254L58.2834 29.8926H72.2562L72.2803 29.7677C72.9281 29.9138 73.6087 30 74.2587 30C74.6535 30 75.0603 29.9645 75.465 29.8931H80.7922L81.1876 29.0539H81.5426L81.6511 29.8931H98.0818L98.8987 25.5905H98.5988L98.7111 24.9994H98.9259L99.7439 20.6973H99.2891C99.66 20.3619 99.9299 19.9311 100.023 19.4409C100.133 18.8584 99.9823 18.2657 99.6087 17.8152C99.5116 17.6985 99.4004 17.596 99.2804 17.5039C100.584 16.1651 101.487 14.5449 101.839 12.7235C102.268 10.4893 101.784 8.44545 100.437 6.81329ZM90.9309 25.2688H90.4265L91.1878 21.2682C91.3612 21.2459 91.5341 21.2208 91.7053 21.1935L90.9309 25.2688ZM79.1715 12.2551C79.1192 12.5223 79.0832 12.7863 79.0565 13.0464C77.9478 13.788 76.909 14.1387 75.7976 14.1387C75.0456 14.1387 74.3945 13.8933 74.0558 13.4821C73.8628 13.2487 73.7979 12.9875 73.8579 12.6837C74.0558 11.6591 75.4459 10.7604 76.8315 10.7604C77.6986 10.7604 78.5133 11.0668 79.3122 11.694C79.2626 11.8799 79.2075 12.0648 79.1715 12.2551ZM80.2938 20.6967L79.7528 21.5884L79.3029 21.3364C79.0068 21.1701 78.6889 21.0419 78.3612 20.9307C78.6011 20.8734 78.8253 20.8091 79.0205 20.7382L79.6514 20.5092L80.2714 17.7907C80.3554 17.9074 80.435 18.0268 80.5277 18.1392C81.4635 19.2729 82.8116 20.14 84.4394 20.6962L80.2938 20.6967ZM85.7814 21.073L85.566 22.2046L85.2666 20.9476C85.4362 20.9918 85.6064 21.0348 85.7814 21.073ZM91.0536 10.8793C91.7287 10.8793 92.2484 11.0587 92.5178 11.3842C92.7649 11.6842 92.7561 12.0664 92.7032 12.3353C92.4884 13.4439 91.3503 14.2183 89.9319 14.2183C89.2421 14.2183 88.6967 14.0361 88.435 13.7188C88.2539 13.499 88.1999 13.1909 88.2752 12.8021C88.459 11.8467 89.4727 10.8793 91.0536 10.8793ZM59.8703 21.5229C59.6761 21.3915 59.4651 21.2753 59.2448 21.1706H59.9379L59.8703 21.5229ZM56.0579 25.2677C55.9685 25.3473 55.8229 25.4007 55.6544 25.4105C55.7405 25.3364 55.8758 25.2753 56.0579 25.2677ZM54.9743 10.9829L54.152 13.6899C54.0991 12.9668 53.8739 12.3096 53.4791 11.725C53.316 11.4857 53.1219 11.2675 52.9081 11.0603L54.9743 10.9829ZM31.2478 12.3347C31.0335 13.4439 29.8937 14.2183 28.4764 14.2183C27.7871 14.2183 27.2413 14.0361 26.9795 13.7188C26.7979 13.499 26.7445 13.1909 26.8197 12.8021C27.0046 11.8461 28.0183 10.8793 29.5987 10.8793C30.2738 10.8793 30.7941 11.0587 31.0629 11.3842C31.3094 11.6842 31.2996 12.067 31.2478 12.3347ZM40.7512 21.1368L40.7244 21.1935L40.719 21.1319C40.7299 21.133 40.7403 21.1352 40.7512 21.1368ZM52.9866 17.5328L52.0263 20.6967H48.3383C50.2235 20.0745 51.914 19.0313 52.9866 17.5328ZM53.3869 21.1706H53.5925C53.5161 21.2028 53.442 21.2355 53.3684 21.2699L53.3869 21.1706ZM13.709 12.8713C12.6565 12.8713 11.7447 12.5256 11.2698 11.947C10.9949 11.6122 10.9028 11.2413 10.9878 10.8138C11.2627 9.43685 13.0988 8.27368 14.9971 8.27368C16.2786 8.27368 17.4658 8.75466 18.6251 9.7368C18.3186 10.3094 18.0749 10.9092 17.8977 11.5347C16.4814 12.4411 15.1438 12.8713 13.709 12.8713ZM35.4021 19.3907L36.6001 19.93C37.2622 20.2278 37.9978 20.4824 38.7678 20.6973H36.5391L36.3002 21.1755L36.2697 20.6973H32.4164C33.494 20.3663 34.4946 19.9262 35.4021 19.3907ZM64.6021 25.2688L65.4713 20.6967H61.2527L64.2089 10.9545L65.1103 10.9889C64.944 11.4338 64.8038 11.887 64.7128 12.3544C64.2923 14.5286 64.8033 16.627 66.1535 18.2624C67.043 19.3405 68.2645 20.1596 69.6938 20.6962H65.9763L65.1065 25.2682L64.6021 25.2688ZM17.613 20.3548L18.2483 20.1312L18.8034 17.7722C18.8923 17.896 18.9752 18.0214 19.0734 18.1397C20.0086 19.2734 21.3567 20.1405 22.9839 20.6967H16.2557C16.7645 20.6013 17.2324 20.4884 17.613 20.3548ZM93.8719 20.6967C94.4183 20.5282 94.9445 20.333 95.4501 20.1111C95.5242 20.2888 95.6142 20.4606 95.7391 20.6117C95.7658 20.6433 95.8007 20.6673 95.8285 20.6967H93.8719Z" fill="white"/>
<path d="M35.1143 21.9281L35.3684 25.9466H35.4327C35.5642 25.536 35.7103 25.1073 35.9154 24.7054L37.3005 21.9281H39.551L39.8913 25.9466H39.9557C40.0729 25.5534 40.2049 25.1423 40.3849 24.7589L41.7372 21.9281H44.7916L40.6613 28.6612H38.0999L37.8742 24.9999H37.7776C37.6795 25.3489 37.5933 25.6876 37.4341 26.018L36.1171 28.6612H33.6195L32.0703 21.9281H35.1143Z" fill="#005DAA"/>
<path d="M44.5772 21.9281H47.4064L46.9756 24.1961H48.7757L49.207 21.9281H52.0362L50.7569 28.6612H47.9277L48.3722 26.3218H46.5715L46.1271 28.6612H43.2979L44.5772 21.9281Z" fill="#005DAA"/>
<path d="M60.322 25.3123C59.9114 27.4734 57.6609 28.768 55.1971 28.768C52.7317 28.768 50.973 27.4728 51.3842 25.3123C51.7861 23.1959 54.0628 21.8206 56.5168 21.8206C58.9707 21.8206 60.7234 23.1959 60.322 25.3123ZM54.3355 25.3477C54.1888 26.1155 54.7106 26.6429 55.6001 26.6429C56.49 26.6429 57.2115 26.1155 57.3582 25.3477C57.4934 24.6328 57.0288 24.0351 56.0963 24.0351C55.1627 24.0357 54.4707 24.6333 54.3355 25.3477ZM60.9655 21.928H63.9021L63.0329 26.5H65.4983L65.0871 28.6606H59.6856L60.9655 21.928ZM72.4452 26.2497L72.5761 26.3484C73.0363 26.6876 73.616 26.9646 74.2916 26.9646C74.5812 26.9646 75.0606 26.8659 75.1184 26.5627C75.1762 26.2595 74.7955 26.2328 74.5371 26.1875L73.9639 26.0986C72.8487 25.9285 71.9926 25.3657 72.1916 24.3127C72.4964 22.7143 74.4122 21.8211 76.1698 21.8211C77.0914 21.8211 77.9033 22.0092 78.6194 22.4106L77.4987 24.1344C77.0494 23.8486 76.5237 23.625 75.8911 23.625C75.6342 23.625 75.2432 23.7046 75.192 23.9817C75.144 24.2314 75.5012 24.2674 75.7182 24.3121L76.3595 24.437C77.5576 24.6699 78.3532 25.2228 78.1367 26.3658C77.8303 27.9735 75.9216 28.768 74.175 28.768C73.1574 28.768 72.022 28.5357 71.1844 28.1518L72.4452 26.2497Z" fill="#005DAA"/>
<path d="M82.5338 26.2231L82.4166 25.0354C82.3849 24.7496 82.3871 24.4551 82.3887 24.1688H82.2813L81.3559 26.2231H82.5338ZM79.9773 28.6612H76.8695L80.9573 21.9281H84.2041L85.8074 28.6612H82.6996L82.5916 27.822H80.3738L79.9773 28.6612Z" fill="#005DAA"/>
<path d="M86.8421 21.9281H89.7787L88.9095 26.5001H91.3749L90.9637 28.6607H85.5628L86.8421 21.9281ZM92.7889 21.9281H98.2231L97.873 23.768H95.3966L95.2745 24.411H97.5354L97.2033 26.1615H94.9418L94.817 26.8219H97.3789L97.0283 28.6612H91.509L92.7889 21.9281Z" fill="#005DAA"/>
<path d="M52.9466 9.8272L56.6542 9.68814L53.5432 19.9397H60.1956L63.3056 9.68814L66.9298 9.8272L68.4066 4.95963H54.4222L52.9466 9.8272ZM39.1722 12.4889C38.2419 17.296 33.1453 20.1775 27.5611 20.1775C21.9775 20.1775 17.995 17.2965 18.9253 12.4889C19.836 7.78006 24.9921 4.72131 30.5517 4.72131C36.1107 4.72131 40.0829 7.7806 39.1722 12.4889ZM25.6099 12.5686C25.28 14.2771 26.4617 15.4495 28.4756 15.4495C30.4906 15.4495 32.1255 14.2776 32.456 12.5686C32.7635 10.9795 31.71 9.64888 29.5979 9.64888C27.4859 9.64779 25.9175 10.9795 25.6099 12.5686Z" fill="#E31837"/>
<path d="M37.1047 18.8066C39.003 19.66 41.5736 20.1775 43.8798 20.1775C47.8373 20.1775 52.1606 18.4096 52.8521 14.8333C53.344 12.2905 51.5438 11.0586 48.827 10.5422L47.3754 10.264C46.8846 10.1642 46.0748 10.0852 46.1822 9.52839C46.3011 8.91272 47.1856 8.7333 47.7686 8.7333C49.2 8.7333 50.3916 9.23011 51.4091 9.86596L53.9471 6.03177C52.3231 5.13798 50.4865 4.72134 48.3984 4.72134C44.417 4.72134 40.0751 6.70796 39.3875 10.264C38.9337 12.6084 40.8767 13.8599 43.401 14.2378L44.6978 14.4358C45.2857 14.5361 46.1484 14.595 46.0175 15.2701C45.8866 15.9452 44.8009 16.1639 44.1449 16.1639C42.6152 16.1639 41.3021 15.5482 40.2589 14.7935L39.9617 14.5748L37.1047 18.8066ZM81.3552 5.33701C80.0246 4.93947 78.5124 4.72134 77.0067 4.72134C71.6418 4.72134 66.7655 8.21797 65.9197 12.5888C65.093 16.8603 68.5302 20.178 73.7501 20.178C74.9389 20.178 77.4496 19.9992 78.5996 19.582L79.8779 13.9799C78.6433 14.8339 77.3269 15.3705 75.7972 15.3705C73.8073 15.3705 72.3289 14.0988 72.6485 12.4508C72.9637 10.8214 74.8407 9.53057 76.8311 9.53057C78.3362 9.53057 79.5365 10.2259 80.4483 11.0411L81.3552 5.33701ZM92.0065 4.72134C86.4474 4.72134 81.2914 7.78008 80.3801 12.489C79.4503 17.296 83.4329 20.1775 89.017 20.1775C94.6 20.1775 99.6977 17.2966 100.628 12.489C101.537 7.78063 97.565 4.72134 92.0065 4.72134ZM91.0532 9.64781C93.1653 9.64781 94.2194 10.9784 93.9108 12.5675C93.5808 14.276 91.9454 15.4485 89.9304 15.4485C87.9154 15.4485 86.7343 14.2765 87.0647 12.5675C87.3723 10.9795 88.9412 9.64781 91.0532 9.64781ZM20.6402 1.97509C18.9797 1.49466 17.0951 1.23071 15.2175 1.23071C8.52584 1.23071 2.44381 5.457 1.3897 10.7401C0.359579 15.9033 4.64584 19.913 11.1554 19.913C12.6392 19.913 15.771 19.6971 17.2036 19.1932L18.7976 12.4208C17.2592 13.4537 15.6162 14.102 13.7081 14.102C11.2252 14.102 9.38254 12.5648 9.78008 10.5711C10.1733 8.60244 12.5138 7.04062 14.9961 7.04062C16.8731 7.04062 18.3706 7.88151 19.5065 8.86582L20.6402 1.97509Z" fill="#E31837"/>
<path d="M96.5338 19.2112C96.6336 18.6883 97.2166 18.2667 97.8513 18.2667C98.4812 18.2667 98.9082 18.6883 98.8089 19.2112C98.7081 19.7375 98.1224 20.159 97.4914 20.159C96.8572 20.159 96.4346 19.7369 96.5338 19.2112ZM98.5123 19.2112C98.5919 18.7902 98.2898 18.5138 97.8034 18.5138C97.3093 18.5138 96.9101 18.7902 96.831 19.2112C96.7509 19.6328 97.0443 19.912 97.5389 19.912C98.0248 19.912 98.4321 19.6333 98.5123 19.2112ZM98.1071 19.7058H97.8132L97.6283 19.2865H97.4358L97.3562 19.7058H97.1064L97.2946 18.7155H97.871C98.1251 18.7155 98.2625 18.7859 98.2189 19.0187C98.1856 19.1883 98.0531 19.2756 97.8999 19.2876L98.1071 19.7058ZM97.7428 19.0972C97.8677 19.0972 97.9751 19.0972 97.9959 18.9915C98.0122 18.9042 97.9042 18.9042 97.7794 18.9042H97.5089L97.4734 19.0972H97.7428Z" fill="#E31837"/>
<path d="M1.85529 28.6721H32.9896L32.9874 28.6612H32.9618L32.568 26.9489H1.85529V28.6721ZM1.85529 26.2247H32.4012L32.0042 24.502H1.85529V26.2247ZM1.85529 23.7669H31.8253L31.6906 23.1393L31.4152 21.9412H1.85529V23.7669ZM66.9132 21.9281H72.3468L71.9973 23.768H69.5215L69.3988 24.411H71.6597L71.3276 26.1615H69.0667L68.9412 26.8219H71.5026L71.1531 28.6612H65.6327L66.9132 21.9281Z" fill="#005DAA"/>
</svg>
