<svg width="116" height="28" viewBox="0 0 116 28" fill="none" xmlns="http://www.w3.org/2000/svg">
<path d="M113.484 24.2082C112.982 24.2131 112.504 24.4162 112.152 24.7732C111.8 25.1301 111.604 25.6119 111.606 26.1132C111.608 26.6144 111.809 27.0943 112.165 27.4479C112.52 27.8015 113.001 28 113.502 28C114.003 28 114.484 27.8015 114.839 27.4479C115.195 27.0943 115.395 26.6144 115.398 26.1132C115.4 25.6119 115.204 25.1301 114.852 24.7732C114.5 24.4162 114.021 24.2131 113.52 24.2082H113.484ZM113.484 27.7829C113.155 27.7884 112.832 27.6963 112.556 27.5182C112.279 27.3401 112.062 27.084 111.931 26.7824C111.8 26.4807 111.762 26.1471 111.82 25.8236C111.879 25.5 112.032 25.2012 112.261 24.9649C112.49 24.7285 112.783 24.5653 113.105 24.4958C113.426 24.4263 113.761 24.4536 114.067 24.5744C114.372 24.6951 114.636 24.9039 114.823 25.1742C115.01 25.4445 115.113 25.7642 115.118 26.093V26.1209C115.127 26.5522 114.965 26.9695 114.667 27.281C114.368 27.5925 113.958 27.7727 113.527 27.7821H113.484M106.206 23.6903H102.086V17.2386C102.086 15.7002 102.059 13.7197 99.9436 13.7197C97.7979 13.7197 97.4696 15.3959 97.4696 17.1266V23.6898H93.3499V10.4226H97.3048V12.2357H97.3602C97.7559 11.559 98.3279 11.0023 99.015 10.6249C99.7022 10.2475 100.479 10.0635 101.262 10.0926C105.438 10.0926 106.208 12.8391 106.208 16.4121L106.206 23.6903ZM88.7015 8.6091C88.2286 8.60918 87.7664 8.46905 87.3732 8.20643C86.98 7.9438 86.6735 7.57048 86.4924 7.13366C86.3114 6.69685 86.264 6.21616 86.3562 5.75239C86.4483 5.28862 86.6759 4.86259 87.0102 4.52818C87.3445 4.19377 87.7705 3.966 88.2342 3.87367C88.6979 3.78134 89.1786 3.8286 89.6155 4.00947C90.0524 4.19034 90.4258 4.4967 90.6886 4.8898C90.9514 5.28291 91.0917 5.74511 91.0917 6.21795C91.0918 6.5319 91.03 6.84279 90.9099 7.13287C90.7898 7.42295 90.6138 7.68653 90.3918 7.90857C90.1699 8.13061 89.9063 8.30675 89.6163 8.42695C89.3263 8.54715 89.0154 8.60904 88.7015 8.6091ZM90.7613 23.6903H86.6373V10.4226H90.7613V23.6903ZM108.26 0.00189359H84.5671C84.0294 -0.00417499 83.5112 0.2035 83.1265 0.579283C82.7418 0.955066 82.522 1.46821 82.5154 2.00596V25.7969C82.5218 26.3349 82.7414 26.8484 83.1261 27.2246C83.5108 27.6008 84.0291 27.8088 84.5671 27.8031H108.26C108.799 27.8099 109.319 27.6024 109.705 27.2262C110.091 26.8501 110.312 26.336 110.32 25.7969V2.00425C110.312 1.46543 110.091 0.951701 109.704 0.575927C109.318 0.200153 108.799 -0.00692931 108.26 0.000177039M71.3025 13.6249C69.2427 13.6249 68.0067 15.0002 68.0067 17.0043C68.0067 19.0084 69.2422 20.385 71.3025 20.385C73.3628 20.385 74.6013 19.0118 74.6013 17.0043C74.6013 14.9968 73.365 13.6249 71.3025 13.6249ZM78.394 23.6825H74.6013V21.9231H74.5451C74.0693 22.5631 73.4521 23.0845 72.7417 23.4469C72.0313 23.8092 71.2468 24.0027 70.4494 24.0121C66.491 24.0121 63.8836 21.1553 63.8836 17.1155C63.8836 13.4051 66.1911 9.99821 69.9842 9.99821C71.6892 9.99821 73.2817 10.4647 74.2159 11.7577H74.27V4.11002H78.3936L78.394 23.6825ZM58.5941 15.5083C58.6019 15.1741 58.5419 14.8418 58.4175 14.5314C58.2932 14.2211 58.1071 13.9392 57.8707 13.7029C57.6342 13.4666 57.3522 13.2807 57.0418 13.1566C56.7313 13.0324 56.3989 12.9726 56.0647 12.9807C55.3449 12.9359 54.6363 13.1758 54.0917 13.6486C53.5471 14.1215 53.2102 14.7894 53.1535 15.5083H58.5941ZM62.0838 21.3875C61.3992 22.2177 60.5386 22.8852 59.5642 23.3417C58.5898 23.7983 57.5261 24.0324 56.4501 24.0271C52.3304 24.0271 49.032 21.2772 49.032 17.0189C49.032 12.7606 52.3299 10.0119 56.4501 10.0119C60.3007 10.0119 62.7155 12.7584 62.7155 17.0189V18.3106H53.1535C53.2725 19.0432 53.6523 19.708 54.2228 20.1827C54.7934 20.6573 55.5163 20.9098 56.2583 20.8936C56.8446 20.8899 57.4208 20.7397 57.9343 20.4565C58.4478 20.1734 58.8823 19.7663 59.1983 19.2723L62.0838 21.3875ZM21.1295 10.4192H25.0857V12.2323H25.142C25.5371 11.5553 26.1087 10.9983 26.7958 10.6209C27.4828 10.2434 28.2595 10.0596 29.0428 10.0892C33.2205 10.0892 33.9895 12.8378 33.9895 16.4087V23.6843H29.8698V17.2339C29.8698 15.6942 29.8414 13.715 27.7241 13.715C25.5827 13.715 25.2522 15.3916 25.2522 17.1219V23.6825H21.1325L21.1295 10.4192ZM36.0785 4.11131H40.1982V15.8117L44.8672 10.4119H49.9182L44.5111 16.5541L49.8045 23.6907H44.6265L40.2532 17.1326H40.1991V23.6898H36.0794L36.0785 4.11131ZM14.7255 10.4179H18.8452V23.6851H14.7255V10.4179ZM16.7854 3.82207C17.258 3.82216 17.72 3.96239 18.113 4.22505C18.5059 4.4877 18.8122 4.86097 18.993 5.29767C19.1738 5.73437 19.2211 6.21488 19.1288 6.67844C19.0366 7.142 18.8089 7.56779 18.4747 7.90198C18.1404 8.23616 17.7146 8.46373 17.251 8.55591C16.7874 8.64809 16.3069 8.60074 15.8703 8.41984C15.4336 8.23895 15.0604 7.93263 14.7978 7.53963C14.5352 7.14663 14.3951 6.68459 14.3951 6.21194C14.3951 5.89806 14.4569 5.58726 14.577 5.29728C14.6972 5.0073 14.8732 4.74382 15.0952 4.5219C15.3172 4.29997 15.5807 4.12394 15.8707 4.00387C16.1607 3.88379 16.4715 3.82202 16.7854 3.82207ZM0.602173 4.11432H4.89054V19.7349H12.8296V23.6924H0.602173V4.11432ZM113.785 26.2243C113.855 26.225 113.925 26.2112 113.99 26.1838C114.055 26.1563 114.114 26.1158 114.162 26.0647C114.211 26.0137 114.249 25.9532 114.273 25.8869C114.297 25.8207 114.308 25.7502 114.304 25.6797C114.304 25.2935 114.071 25.109 113.593 25.109H112.82V27.1311H113.111V26.2496H113.468L113.476 26.2604L114.03 27.1311H114.341L113.745 26.2299L113.785 26.2243ZM113.449 26.0218H113.112V25.3382H113.539C113.759 25.3382 114.011 25.3742 114.011 25.663C114.011 25.9952 113.756 26.0218 113.447 26.0218" fill="#0A66C2"/>
</svg>
