<svg width="46" height="46" viewBox="0 0 46 46" fill="none" xmlns="http://www.w3.org/2000/svg">
<path d="M43.5346 22.8282C43.5346 34.2488 34.266 43.5174 22.8454 43.5174C11.4174 43.5174 2.1488 34.2488 2.1488 22.8282C2.1488 11.4002 11.4174 2.13159 22.8454 2.13159C34.266 2.13159 43.5346 11.4002 43.5346 22.8282Z" fill="white"/>
<path d="M38.5096 33.3521C36.6989 36.0607 34.391 37.5003 31.816 37.5003C30.688 37.5003 29.5007 37.2258 28.2836 36.684C26.9924 36.1126 25.857 35.0663 25.0853 33.738C24.3209 32.4096 24.0167 30.9774 24.2319 29.6862C24.499 28.5582 25.0927 27.0221 25.7828 25.2411C27.5712 20.6105 30.0275 14.2657 27.9052 11.1638C27.0147 9.85769 25.4043 9.21948 23 9.21207C20.5882 9.21967 18.9853 9.85769 18.0874 11.1638C15.9725 14.2657 18.4213 20.6105 20.2172 25.2485C20.8999 27.0221 21.501 28.5582 21.7607 29.701C21.9833 30.9774 21.679 32.4096 20.9073 33.738C20.143 35.0663 19.0076 36.1126 17.7164 36.684C16.4993 37.2258 15.3046 37.5003 14.184 37.5003C11.609 37.5003 9.29371 36.0607 7.49786 33.3595L7.29007 32.9885C8.15088 33.4189 9.79088 34.1313 11.2083 34.1313C11.9133 34.1313 12.5811 33.9161 13.2416 33.4782C16.8778 31.0591 15.6385 28.1501 13.1525 23.653C12.0987 21.7459 11.0153 19.7794 10.5329 17.746C10.0135 15.5643 9.53853 12.3808 11.4383 9.97642C12.3214 8.84102 13.6794 7.97278 15.4604 7.38654C17.3082 6.77061 19.6902 6.4441 22.5399 6.39957H23.46C26.3096 6.44403 28.6918 6.77061 30.5396 7.38654C32.3206 7.97278 33.6712 8.84102 34.5617 9.97642C36.4614 12.3808 35.9865 15.5643 35.467 17.746C34.9847 19.7794 33.9011 21.7459 32.8473 23.653C30.3614 28.1501 29.1147 31.0591 32.7583 33.4782C33.4187 33.9161 34.0792 34.1313 34.7916 34.1313C36.209 34.1313 37.8416 33.4189 38.7098 32.9885L38.5096 33.3521ZM23 0.5C10.5701 0.5 0.5 10.5701 0.5 23C0.5 35.4225 10.5701 45.5 23 45.5C35.4299 45.5 45.5 35.4225 45.5 23C45.5 10.5701 35.4299 0.5 23 0.5Z" fill="#D41935"/>
</svg>
