<svg width="118" height="32" viewBox="0 0 118 32" fill="none" xmlns="http://www.w3.org/2000/svg">
<path d="M13.1972 0L10.1221 9.44919H0.0955505L8.18981 15.2931L5.15004 24.7894L13.1972 18.9455L21.2796 24.7894L18.2045 15.2931L26.2517 9.44919H16.2723L13.1972 0Z" fill="#E22130"/>
<path d="M54.3876 8.6127C53.775 8.00003 53.1152 7.55232 52.2786 7.29311C51.4892 6.98678 50.5585 6.85718 49.557 6.85718C48.5437 6.85718 47.6247 7.03391 46.694 7.4345C45.775 7.83509 45.0209 8.40062 44.4082 9.01329L44.3611 9.06042C44.0548 9.41388 43.7838 9.76734 43.5717 10.1561C43.395 10.5096 43.2183 10.8159 43.1358 11.0751C43.0533 10.8984 42.9119 10.5921 42.7352 10.2857C42.4289 9.70843 42.1579 9.27249 41.9458 9.09576C41.3331 8.38884 40.6262 7.90578 39.7072 7.51697C38.7882 7.11638 37.8221 6.93965 36.7146 6.93965C36.0077 6.93965 34.9944 7.02213 33.8987 7.55232C32.6262 8.16498 31.5658 9.13111 30.8236 10.545V7.38737H29.8103V25.0133H30.8236V14.9868C30.8236 13.8439 30.9532 12.8778 31.2241 11.9941C31.4834 11.1105 31.8839 10.4507 32.4141 9.7909C32.8501 9.17824 33.5099 8.69517 34.2639 8.38884C35.0062 8.03538 35.8074 7.85865 36.6321 7.90578C37.6454 7.95291 38.5172 8.12964 39.3184 8.4831C40.0607 8.83656 40.6851 9.36675 41.2035 9.97942C41.6395 10.5921 41.9458 11.1223 42.1225 11.7349C42.3817 12.4772 42.476 13.3609 42.476 14.598V24.9779H43.4892V15.0457C43.4892 13.8204 43.5364 12.8071 43.7484 11.9706C43.9723 11.1812 44.2786 10.5685 44.8913 9.76734C45.4215 9.06042 46.0813 8.57735 47.0003 8.22389C47.7426 7.96469 48.5791 7.78796 49.3685 7.78796C50.2521 7.78796 50.9944 7.91756 51.7013 8.18855C52.4082 8.45953 52.9267 8.84834 53.4215 9.3314C54.0342 9.94407 54.4819 10.6981 54.7411 11.6642C55.0474 12.6304 55.177 13.7261 55.177 15.0928V24.9779H56.1903L56.367 15.0457C56.367 13.5965 56.1903 12.324 55.8368 11.2637C55.5305 10.2033 55.0828 9.27249 54.3876 8.6127Z" fill="#231F20"/>
<path d="M74.3817 11.8646C73.8516 10.6393 72.8383 9.40214 71.5187 8.51849C69.9753 7.45811 68.1373 6.9397 66.205 6.9397C62.694 6.9397 60.5379 8.51849 59.3007 9.88521C57.8044 11.5583 56.9326 13.844 56.9326 16.1768C56.9326 18.5097 57.8162 20.7954 59.3007 22.4684C60.4907 23.788 62.6822 25.4139 66.205 25.4139C68.0077 25.4139 69.6336 24.978 71.0828 24.1415C72.4495 23.2578 73.5452 22.115 74.3817 20.5833V25.0251H75.395V7.43454H74.3817V11.8646ZM73.8162 12.8778C73.9929 13.3609 74.1697 13.844 74.2521 14.327C74.3818 14.8572 74.4289 15.4228 74.4289 15.9058C74.476 16.4831 74.4289 17.0016 74.3464 17.4846C74.2639 18.0619 74.1225 18.545 73.9458 18.9809C73.3685 20.6069 72.367 22.0089 71.0003 22.9397C69.6807 23.9058 68.0077 24.3889 66.2993 24.3889C63.7544 24.3889 61.6454 23.4699 60.1019 21.7968C58.7823 20.3005 57.9458 18.2387 57.9458 16.0826C57.9458 13.7497 58.8295 11.6879 60.314 10.1444C61.8574 8.64809 63.9193 7.77622 66.205 7.77622C67.8781 7.77622 69.504 8.25928 70.8236 9.09581C72.1903 10.1091 73.2389 11.3815 73.8162 12.8778Z" fill="#231F20"/>
<path d="M79.2712 10.0619C80.1902 9.22538 81.121 8.69518 82.04 8.30638C82.959 7.95292 83.9723 7.72906 85.2094 7.72906H85.2919C86.7882 7.72906 88.3198 8.16499 89.6041 8.91904C91.1004 9.88517 92.2433 11.2048 92.8559 12.8778L92.9031 12.9603H94.0459L93.9634 12.7835C93.2565 10.8042 91.9369 9.17825 90.1814 8.12965C88.7322 7.24599 86.9767 6.81006 85.2565 6.81006C82.7116 6.81006 80.3788 7.77619 78.6586 9.49636C76.9384 11.2165 75.9723 13.5847 75.9723 16.1296C75.9723 18.4978 76.8913 20.7835 78.3876 22.4566C80.1078 24.3417 82.5231 25.355 85.4215 25.355C87.3066 25.355 89.1564 24.7777 90.6527 23.7291C92.149 22.6805 93.2919 21.2195 93.9517 19.464L94.0341 19.2872H92.8913L92.8441 19.3697C92.4082 20.6422 91.4774 21.8793 90.2521 22.7511C88.85 23.8469 87.0474 24.3771 85.1976 24.3771C84.1019 24.3771 83.0415 24.1532 82.0282 23.7644C81.015 23.3285 80.1785 22.7511 79.3891 22.0442C78.5997 21.2548 78.0223 20.3712 77.5864 19.3226C77.1505 18.3093 76.9266 17.1665 76.9266 16.0236C76.9266 14.8808 77.1858 13.6908 77.5864 12.6422C77.9517 11.6525 78.5643 10.7688 79.2712 10.0619ZM91.1358 9.97942C91.9251 10.7217 92.5849 11.6996 93.0209 12.8425C92.5849 11.7349 91.9251 10.8159 91.1358 9.97942Z" fill="#231F20"/>
<path d="M108.279 7.34021H107.136L107.089 7.42268C107.089 7.50516 105.368 11.511 103.66 15.5523L100.279 23.5052L97.0739 15.5523C95.0121 10.2739 93.8221 7.45803 93.8221 7.42268L93.775 7.34021H92.6321L99.666 24.8837L96.4966 32H97.6395L97.6866 31.9175C97.6866 31.9175 97.7691 31.6937 97.9105 31.3402C98.4407 30.1149 99.8898 26.7217 101.563 22.9043C101.999 21.891 102.447 20.8424 102.93 19.782L107.065 10.2386C107.772 8.61267 108.208 7.55229 108.208 7.51694L108.279 7.34021Z" fill="#231F20"/>
<path d="M116.196 16.436C115.23 15.729 114.04 15.3756 112.85 15.1164L112.72 15.0692C111.354 14.6686 110.482 14.2798 109.905 13.8439C109.245 13.2666 108.891 12.5714 108.844 11.5111C108.844 11.028 108.891 10.5449 109.068 10.1443C109.198 9.70841 109.469 9.35495 109.775 9.00149C110.128 8.6009 110.564 8.3417 111 8.11784C111.53 7.89398 112.061 7.8115 112.626 7.8115H112.709C113.239 7.8115 113.722 7.89398 114.111 8.07071C114.547 8.24744 114.947 8.50664 115.254 8.81298C115.56 9.11931 115.831 9.5199 115.996 9.95583C116.173 10.3918 116.255 10.8748 116.255 11.405V11.5346H117.268V11.4286C117.268 10.1561 116.785 9.01327 115.996 8.17675C115.159 7.34022 114.017 6.95142 112.614 6.95142C111.389 6.95142 110.199 7.35201 109.315 8.04715C108.302 8.88367 107.819 10.0737 107.819 11.5228C107.866 12.8896 108.349 13.891 109.221 14.6451C110.14 15.3874 111.377 15.7879 112.603 16.0943C114.099 16.4477 115.148 16.9308 115.807 17.5435C116.514 18.2504 116.821 19.0869 116.868 20.2651V20.3947C116.868 20.972 116.785 21.5376 116.561 21.9735C116.338 22.4566 116.078 22.8925 115.678 23.246C115.324 23.6466 114.841 23.9529 114.358 24.165C113.828 24.3888 113.262 24.4713 112.685 24.4713C111.413 24.4713 110.27 24.0707 109.48 23.3284C108.691 22.539 108.29 21.4787 108.255 20.2062V20.0766L107.242 20.1237V20.3476C107.242 20.3947 107.242 20.4301 107.242 20.4772C107.242 21.0899 107.371 21.6672 107.595 22.2327C107.819 22.81 108.125 23.3284 108.561 23.729C109.092 24.2592 109.704 24.6952 110.411 24.9544C111.118 25.2136 111.86 25.3903 112.697 25.3903C113.439 25.3903 114.146 25.2136 114.806 24.9544C115.466 24.648 116.031 24.2474 116.526 23.7644C116.962 23.2813 117.363 22.704 117.586 22.0913C117.846 21.4787 117.94 20.8189 117.893 20.1119C117.822 18.4153 117.245 17.2371 116.196 16.436Z" fill="#231F20"/>
<path d="M107.701 6.02065L108.891 5.18413L110.081 6.02065L109.598 4.61859L110.824 3.73494H109.374L108.891 2.36823L108.455 3.73494H107.006L108.149 4.61859L107.701 6.02065Z" fill="#231F20"/>
</svg>
