<svg width="98" height="48" viewBox="0 0 98 48" fill="none" xmlns="http://www.w3.org/2000/svg">
<path d="M90.3597 33.2916C89.1396 32.6545 88.9499 30.8542 88.977 26.4756L89.0041 19.7653L86.6724 19.7626L87.2147 18.5209H89.0041V15.3433L93.2878 13.7545V18.4151L95.267 18.4178L94.7519 19.7951L93.2878 19.7924V31.4046C93.3692 32.34 93.6945 32.8903 94.1283 33.2916H90.3597Z" fill="#C6003D"/>
<path d="M26.917 43.9358C26.7815 43.559 26.5104 43.3177 26.1037 43.3177C25.5343 43.3177 25.3174 43.6105 25.3174 44.0144C25.3174 44.9769 27.4864 44.8007 27.4864 46.4329C27.4864 47.3438 26.7002 47.9999 25.5885 47.9999C25.209 47.9999 24.7752 47.9078 24.4498 47.6936C24.5312 47.3926 24.6125 47.0944 24.6667 46.788H24.8023C24.8836 47.2788 25.2903 47.5716 25.7783 47.5716C26.2121 47.5716 26.6188 47.3221 26.6188 46.8314C26.6188 45.69 24.4769 46.1048 24.4769 44.3859C24.4769 43.5671 25.0463 42.8893 26.1308 42.8893C26.6459 42.8893 27.1068 43.0818 27.2424 43.2309C27.1611 43.4586 27.1068 43.6945 27.0255 43.9358H26.917Z" fill="#C6003D"/>
<path d="M48.146 4.59866C48.4713 5.49607 49.2305 6.42332 48.6882 7.46443C48.4442 8.52181 47.4411 9.37855 46.3837 9.54937C45.2721 9.64967 44.2418 9.4626 43.4014 8.79293C42.832 5.74009 44.0792 2.91499 46.4921 1.23132L48.146 4.59866Z" fill="#C6003D"/>
<path d="M52.4029 13.901C51.8607 15.7473 46.4111 14.5354 44.703 11.5043C46.9533 11.7537 49.4748 9.76364 49.529 7.49435L52.4029 13.901Z" fill="#C6003D"/>
<path d="M54.6533 13.6625C54.8973 13.5513 55.3853 13.3019 55.5208 12.7678L49.6646 0.030427C49.2579 -0.0183754 48.9868 -0.0536251 48.4717 0.301545L54.6533 13.6625Z" fill="#C6003D"/>
<path d="M57.2828 10.8969C59.7771 7.11469 57.6895 0.908691 52.2941 0.0383911L57.2828 10.8969Z" fill="#C6003D"/>
<path d="M0.265686 39.5491H94.4537V38.8279H0.265686V39.5491Z" fill="#C6003D"/>
<path d="M30.7399 45.3674C30.7399 45.0909 30.4959 44.8685 30.2248 44.8685C29.9537 44.8685 29.7368 45.0909 29.7368 45.3674C29.7368 45.6439 29.9537 45.8663 30.2248 45.8663C30.4959 45.8663 30.7399 45.6439 30.7399 45.3674Z" fill="#C6003D"/>
<path d="M56.7406 19.0387C57.5269 18.3771 58.9096 18.3636 59.8043 18.7865C60.1839 18.9763 60.5363 19.2284 60.7804 19.5592L59.0452 22.2488C58.8283 22.0752 58.6656 21.9966 58.3945 21.8556C57.5269 21.4842 56.6322 21.7011 56.1171 22.1701V30.0191C56.0899 31.3775 56.334 32.6165 57.0389 33.2591H53.1076C52.2671 32.63 52.0773 31.6242 51.996 30.743L51.9689 20.3048C51.996 19.4589 51.7791 19.0875 51.4537 18.613L55.5206 18.6293C55.8459 18.8651 55.873 19.2746 56.0357 19.5891L56.7406 19.0387Z" fill="#C6003D"/>
<path d="M61.702 21.6198C61.6749 20.6275 61.8918 19.44 61.2411 18.5833H65.0098C65.2809 18.773 65.4164 19.0875 65.4978 19.3858C65.7147 19.6515 65.6876 20.031 65.7689 20.3455L65.8231 31.467C65.9587 32.1285 66.2298 32.7955 66.7178 33.3161L62.6781 33.3242C61.3496 32.0445 61.7834 29.9406 61.6749 27.7689L61.702 21.6198Z" fill="#C6003D"/>
<path d="M67.6938 21.7282C68.1005 20.5976 69.3748 20.031 70.2966 19.4155C71.7065 18.8977 73.279 17.6071 74.8515 18.6618C76.18 19.5267 77.3458 20.5027 78.1863 21.8393C78.3761 22.3572 78.4845 22.9401 78.6201 23.4905C78.6201 24.2306 78.7827 24.781 78.7556 25.5212C78.8099 26.3237 78.8099 27.0476 78.7556 27.8339C78.7014 29.1705 78.0778 30.3661 77.0205 31.2934C75.4479 32.6951 73.4687 34.2839 71.3269 33.1967C69.4019 32.2993 67.1516 30.5234 67.2871 28.0833C67.2058 26.3535 67.1245 24.8597 67.3685 23.176C67.4498 22.688 67.4227 22.1538 67.6938 21.7282ZM71.6251 29.5935C71.8149 30.2875 72.1674 31.1361 73.0078 31.231C73.4959 31.2473 73.8483 30.8379 74.1466 30.4909C75.0141 28.7611 74.8786 26.8741 74.8786 24.9057C74.6075 23.4444 74.9599 21.4462 73.3874 20.5488C72.8181 20.3455 72.4114 20.7223 72.0589 21.0694C71.4353 21.9966 71.3811 23.0594 71.3269 24.2388C71.1371 26.1258 71.354 27.6902 71.6251 29.5935Z" fill="#C6003D"/>
<path d="M81.5482 33.2916C80.3282 32.6545 80.1384 30.8542 80.1655 26.4756L80.1926 19.7653L77.8881 19.7626L78.4032 18.5209H80.1926V15.3433L84.5034 13.7545V18.4151L86.4555 18.4178L85.9404 19.7951L84.5034 19.7924V31.4046C84.5848 32.34 84.9101 32.8903 85.3439 33.2916H81.5482Z" fill="#C6003D"/>
<path d="M42.2897 20.3048C42.2626 19.4589 42.0999 19.0875 41.7745 18.613L45.8414 18.6293C46.1667 18.8651 46.1938 19.2746 46.3565 19.5891L47.0614 19.0387C47.8477 18.3771 49.2304 18.3636 50.1251 18.7865C50.5047 18.9763 50.8571 19.2284 51.1011 19.5592L49.366 22.2488C49.1491 22.0752 48.9864 21.9966 48.7153 21.8556C47.8477 21.4842 46.953 21.7011 46.4378 22.1701V30.0191C46.4107 31.3775 46.6547 32.6165 47.3597 33.2591H43.4284C42.615 32.63 42.371 31.6947 42.3168 30.743L42.2897 20.3048Z" fill="#C6003D"/>
<path d="M11.4631 24.434L9.99907 27.4814C8.96881 29.279 7.55897 31.4832 5.38999 32.0309C4.54952 32.3237 3.79037 32.058 2.977 32.001L0.347107 36.2983C0.564005 36.5098 0.835135 36.686 1.10625 36.7891C5.71534 38.5514 7.58609 36.6562 12.1138 26.378L16.4247 35.5338H22.1454L19.4341 29.3549L20.9795 26.1611L25.2091 35.3928L30.6857 35.428L21.088 14.3672L16.6687 16.5606L20.1391 24.4205L18.6208 27.5085L12.2765 13.8223L7.64031 16.1919L11.4631 24.434Z" fill="#C6003D"/>
<path d="M29.0589 28.1483C29.1673 26.6219 30.0078 25.1904 31.4177 24.4204C32.8275 23.5528 34.4542 23.2085 35.9183 22.4521C36.1623 22.2487 36.4605 21.9966 36.4877 21.6658C36.5148 21.2564 36.2979 20.9419 35.9454 20.8009C33.7222 20.3292 31.9057 21.7119 30.3061 23.0811C30.4958 22.0752 30.6585 20.9744 31.1465 20.0309C31.3634 19.7788 31.5261 19.4318 31.8243 19.2447C33.3968 18.472 35.3489 18.2524 37.0841 18.3771C38.5211 18.472 39.8496 19.4941 40.3376 20.8009C40.5816 21.4137 40.5545 22.1077 40.6087 22.7367L40.6358 31.2635C40.6358 32.001 40.9883 32.6951 41.4221 33.2915H37.3552C36.8672 32.8523 36.6232 32.2992 36.4877 31.6079C35.3489 32.6164 32.9631 34.1103 31.5532 33.118C30.0892 32.4592 28.7335 30.2387 29.0589 28.1483ZM36.2708 25.1823C36.2436 24.5912 35.837 24.5289 35.5387 24.5289C34.5627 24.6698 33.7222 25.4859 33.2342 26.3237C32.8275 27.0693 32.7191 27.6983 32.6919 28.3517C32.6919 29.0566 32.6377 29.5799 32.936 30.114C33.0986 30.461 33.424 30.6183 33.7764 30.7105C34.4 30.8379 34.9694 30.6644 35.4574 30.3336C36.6232 29.6883 36.4063 28.3978 36.4334 27.2509L36.2708 25.1823Z" fill="#C6003D"/>
<path d="M67.8294 45.3674C67.8294 45.0909 67.5854 44.8685 67.3143 44.8685C67.0431 44.8685 66.8262 45.0909 66.8262 45.3674C66.8262 45.6439 67.0431 45.8663 67.3143 45.8663C67.5854 45.8663 67.8294 45.6439 67.8294 45.3674Z" fill="#C6003D"/>
<path d="M33.6951 43.0168H35.2134C35.5387 43.0168 36.0809 43.0032 36.3792 43.1605C36.7859 43.3747 36.9757 43.6946 36.9757 44.1799C36.9757 44.8794 36.5419 45.3213 35.8641 45.4623C36.2707 46.1455 36.7045 46.8016 37.1383 47.4659L37.4094 47.9078C37.1926 47.8916 36.9757 47.8726 36.7588 47.8726C36.5419 47.8726 36.3521 47.8916 36.1352 47.9078L35.2676 46.4112C35.1591 46.2187 34.9693 45.8907 34.8067 45.6196H34.7524V47.9078C34.5898 47.8916 34.4 47.8726 34.2373 47.8726C34.0475 47.8726 33.8849 47.8916 33.6951 47.9078V43.0168ZM34.7524 45.3132C35.5116 45.3837 35.8912 45.0285 35.8912 44.2938C35.8912 44.1934 35.864 44.0877 35.8369 43.9359C35.7285 43.3448 35.1862 43.4018 34.7524 43.4018V45.3132Z" fill="#C6003D"/>
<path d="M41.2052 43.0167C41.1781 43.117 41.151 43.2255 41.151 43.3231C41.151 43.4234 41.1781 43.5319 41.2052 43.6295C40.7443 43.5725 40.2834 43.5156 39.5514 43.5319V45.0637H40.2834C40.6087 45.0637 40.907 45.0339 41.1781 44.9986C41.151 45.099 41.1239 45.2047 41.1239 45.305C41.1239 45.4053 41.151 45.5138 41.1781 45.6114C40.907 45.5761 40.6087 45.549 40.2834 45.549H39.5514V47.3574C40.2834 47.352 40.7443 47.3167 41.2052 47.2598C41.1781 47.3574 41.151 47.4658 41.151 47.5662C41.151 47.6638 41.1781 47.7722 41.2052 47.8725H38.4669V43.0167H41.2052Z" fill="#C6003D"/>
<path d="M44.6756 43.9358C44.5129 43.559 44.2418 43.3177 43.8351 43.3177C43.2929 43.3177 43.0488 43.6105 43.0488 44.0144C43.0488 44.9769 45.2178 44.8007 45.2178 46.4329C45.2178 47.3438 44.4587 47.9999 43.3471 47.9999C42.9404 47.9999 42.5337 47.9078 42.2084 47.6936C42.2897 47.3926 42.371 47.0944 42.3982 46.788H42.5337C42.6422 47.2788 43.0217 47.5716 43.5098 47.5716C43.9707 47.5716 44.3502 47.3221 44.3502 46.8314C44.3502 45.69 42.2355 46.1048 42.2355 44.3859C42.2355 43.5671 42.7777 42.8893 43.8893 42.8893C44.3774 42.8893 44.8383 43.0818 45.0009 43.2309C44.9196 43.4586 44.8383 43.6945 44.784 43.9358H44.6756Z" fill="#C6003D"/>
<path d="M48.7424 47.9999C47.1699 47.9999 46.1125 47.0727 46.1125 45.4541C46.1125 44.0361 47.1428 42.8893 48.9322 42.8893C50.9656 42.8893 51.5621 44.3208 51.5621 45.427C51.5621 46.8179 50.5047 47.9999 48.7424 47.9999ZM47.3055 45.6629C47.3055 46.5874 47.7122 47.5716 48.7967 47.5716C49.8812 47.5716 50.3692 46.4735 50.3692 45.2914C50.3692 44.3723 49.9354 43.3177 48.878 43.3177C47.902 43.3177 47.3055 44.066 47.3055 45.6629Z" fill="#C6003D"/>
<path d="M52.7551 43.0168H54.2733C54.5987 43.0168 55.1138 43.0032 55.4121 43.1605C55.8188 43.3747 56.0357 43.6946 56.0357 44.1799C56.0357 44.8794 55.5747 45.3213 54.9241 45.4623C55.3307 46.1455 55.7645 46.8016 56.1983 47.4659L56.4694 47.9078C56.2525 47.8916 56.0357 47.8726 55.8188 47.8726C55.6019 47.8726 55.3849 47.8916 55.1681 47.9078L54.3276 46.4112C54.2191 46.2187 54.0293 45.8907 53.8667 45.6196H53.8124V47.9078C53.6227 47.8916 53.46 47.8726 53.2702 47.8726C53.1075 47.8726 52.9177 47.8916 52.7551 47.9078V43.0168ZM53.8124 45.3132C54.5716 45.3837 54.9241 45.0285 54.9241 44.2938C54.9241 44.1934 54.924 44.0877 54.8969 43.9359C54.7885 43.3448 54.2462 43.4018 53.8124 43.4018V45.3132Z" fill="#C6003D"/>
<path d="M59.5059 47.9078C59.3433 47.8915 59.1535 47.8725 58.9637 47.8725C58.801 47.8725 58.6112 47.8915 58.4486 47.9078V43.5237C57.9334 43.5237 57.4996 43.5725 57.1201 43.624C57.1201 43.5237 57.1472 43.4234 57.1472 43.3177C57.1472 43.2174 57.1201 43.117 57.1201 43.0167H60.7802C60.7802 43.117 60.7531 43.2174 60.7531 43.3177C60.7531 43.4234 60.7802 43.5237 60.7802 43.624C60.3735 43.5725 59.9397 43.5237 59.5059 43.5237V47.9078Z" fill="#C6003D"/>
<path d="M64.115 43.9358C63.9795 43.559 63.7084 43.3177 63.3017 43.3177C62.7323 43.3177 62.5154 43.6105 62.5154 44.0144C62.5154 44.9769 64.6844 44.8007 64.6844 46.4329C64.6844 47.3438 63.8981 47.9999 62.7865 47.9999C62.407 47.9999 61.9732 47.9078 61.6478 47.6936C61.7292 47.3926 61.8105 47.0944 61.8647 46.788H62.0003C62.0816 47.2788 62.4883 47.5716 62.9763 47.5716C63.4101 47.5716 63.7897 47.3221 63.7897 46.8314C63.7897 45.69 61.6749 46.1048 61.6749 44.3859C61.6749 43.5671 62.2443 42.8893 63.3288 42.8893C63.8439 42.8893 64.3048 43.0818 64.4404 43.2309C64.3591 43.4586 64.3048 43.6945 64.2235 43.9358H64.115Z" fill="#C6003D"/>
<path d="M72.8723 43.9358C72.7096 43.559 72.4385 43.3177 72.0318 43.3177C71.4896 43.3177 71.2456 43.6105 71.2456 44.0144C71.2456 44.9769 73.4146 44.8007 73.4146 46.4329C73.4146 47.3438 72.6554 47.9999 71.5438 47.9999C71.1371 47.9999 70.7304 47.9078 70.4051 47.6936C70.4864 47.3926 70.5407 47.0944 70.5949 46.788H70.7304C70.8389 47.2788 71.2185 47.5716 71.7065 47.5716C72.1674 47.5716 72.547 47.3221 72.547 46.8314C72.547 45.69 70.4322 46.1048 70.4322 44.3859C70.4322 43.5671 71.0016 42.8893 72.0589 42.8893C72.5741 42.8893 73.035 43.0818 73.1977 43.2309C73.1163 43.4586 73.035 43.6945 72.9808 43.9358H72.8723Z" fill="#C6003D"/>
<path d="M74.689 43.0167C74.8787 43.033 75.0414 43.0547 75.2312 43.0547C75.421 43.0547 75.5837 43.033 75.7735 43.0167V45.042C75.7735 45.4351 75.7463 46.0181 75.8277 46.3895C75.8819 46.7392 75.9361 46.9589 76.1801 47.2083C76.4241 47.4225 76.6953 47.5147 77.0206 47.5147C77.6713 47.5147 78.0238 47.2734 78.2678 46.6525C78.4033 46.338 78.4033 45.5273 78.4033 45.1776V43.0167C78.4847 43.033 78.5931 43.0384 78.6745 43.0384C78.7829 43.0384 78.8914 43.033 78.9727 43.0167V45.5544C78.9456 46.3678 78.9727 47.108 78.2136 47.6231C77.834 47.8996 77.346 48 76.8579 48C76.0175 48 75.0685 47.7288 74.8245 46.8016C74.7432 46.5251 74.689 46.2105 74.689 45.9259V43.0167Z" fill="#C6003D"/>
<path d="M80.6536 43.0167C80.8434 43.033 81.0332 43.0547 81.1959 43.0547C81.3857 43.0547 81.5483 43.033 81.7381 43.0167V47.9078C81.5483 47.8915 81.3857 47.8725 81.1959 47.8725C81.0332 47.8725 80.8434 47.8915 80.6536 47.9078V43.0167Z" fill="#C6003D"/>
<path d="M85.3439 47.9078C85.1541 47.8915 84.9643 47.8725 84.8016 47.8725C84.6119 47.8725 84.4492 47.8915 84.2594 47.9078V43.5237C83.7714 43.5237 83.3105 43.5725 82.9309 43.624C82.958 43.5237 82.9851 43.4234 82.9851 43.3177C82.9851 43.2174 82.958 43.117 82.9309 43.0167H86.6182C86.5911 43.117 86.564 43.2174 86.564 43.3177C86.564 43.4234 86.5911 43.5237 86.6182 43.624C86.1844 43.5725 85.7777 43.5237 85.3439 43.5237V47.9078Z" fill="#C6003D"/>
<path d="M90.4411 43.0167C90.414 43.117 90.414 43.2255 90.414 43.3231C90.414 43.4234 90.414 43.5319 90.4411 43.6295C90.0073 43.5725 89.5193 43.5156 88.7872 43.5319V45.0637H89.5193C89.8446 45.0637 90.1428 45.0339 90.414 44.9986C90.3869 45.099 90.3869 45.2047 90.3869 45.305C90.3869 45.4053 90.3869 45.5138 90.414 45.6114C90.1428 45.5761 89.8446 45.549 89.5193 45.549H88.7872V47.3574C89.5193 47.352 90.0073 47.3167 90.4411 47.2598C90.414 47.3574 90.414 47.4658 90.414 47.5662C90.414 47.6638 90.414 47.7722 90.4411 47.8725H87.7299V43.0167H90.4411Z" fill="#C6003D"/>
<path d="M93.9115 43.9358C93.7759 43.559 93.5048 43.3177 93.0981 43.3177C92.5288 43.3177 92.3119 43.6105 92.3119 44.0144C92.3119 44.9769 94.4809 44.8007 94.4809 46.4329C94.4809 47.3438 93.6946 47.9999 92.583 47.9999C92.2034 47.9999 91.7696 47.9078 91.4443 47.6936C91.5256 47.3926 91.6069 47.0944 91.6341 46.788H91.7696C91.8781 47.2788 92.2576 47.5716 92.7728 47.5716C93.2066 47.5716 93.5861 47.3221 93.5861 46.8314C93.5861 45.69 91.4714 46.1048 91.4714 44.3859C91.4714 43.5671 92.0407 42.8893 93.1252 42.8893C93.6404 42.8893 94.1013 43.0818 94.2368 43.2309C94.1555 43.4586 94.1013 43.6945 94.0199 43.9358H93.9115Z" fill="#C6003D"/>
<path d="M0.401184 43.0167C0.590965 43.033 0.75364 43.0547 0.943421 43.0547C1.1061 43.0547 1.29589 43.033 1.48567 43.0167V44.9498C1.83813 44.9634 2.2177 44.9851 2.57016 44.9851C2.92262 44.9851 3.3022 44.9634 3.65465 44.9498V43.0167C3.84443 43.033 4.00711 43.0547 4.19689 43.0547C4.35957 43.0547 4.54936 43.033 4.73914 43.0167V47.9078C4.54936 47.8915 4.35957 47.8725 4.19689 47.8725C4.00711 47.8725 3.84443 47.8915 3.65465 47.9078V45.5192C3.3022 45.5056 2.92262 45.4839 2.57016 45.4839C2.2177 45.4839 1.83813 45.5056 1.48567 45.5192V47.9078C1.29589 47.8915 1.1061 47.8725 0.943421 47.8725C0.75364 47.8725 0.590965 47.8915 0.401184 47.9078V43.0167Z" fill="#C6003D"/>
<path d="M8.64334 47.9999C7.07083 47.9999 5.98633 47.0727 5.98633 45.4541C5.98633 44.0361 7.04371 42.8893 8.806 42.8893C10.8394 42.8893 11.4359 44.3208 11.4359 45.427C11.4359 46.8179 10.3785 47.9999 8.64334 47.9999ZM7.17927 45.6629C7.17927 46.5874 7.61306 47.5716 8.67044 47.5716C9.75494 47.5716 10.2701 46.4735 10.2701 45.2914C10.2701 44.3723 9.83628 43.3177 8.75178 43.3177C7.77574 43.3177 7.17927 44.066 7.17927 45.6629Z" fill="#C6003D"/>
<path d="M14.093 47.9078C13.9303 47.8915 13.7405 47.8725 13.5778 47.8725C13.3881 47.8725 13.2254 47.8915 13.0356 47.9078V43.5237C12.5205 43.5237 12.0867 43.5725 11.7071 43.624C11.7342 43.5237 11.7342 43.4234 11.7342 43.3177C11.7342 43.2174 11.7342 43.117 11.7071 43.0167H15.3673C15.3673 43.117 15.3401 43.2174 15.3401 43.3177C15.3401 43.4234 15.3673 43.5237 15.3673 43.624C14.9606 43.5725 14.5268 43.5237 14.093 43.5237V47.9078Z" fill="#C6003D"/>
<path d="M19.163 43.0167C19.163 43.117 19.1359 43.2255 19.1359 43.3231C19.1359 43.4234 19.163 43.5319 19.163 43.6295C18.7292 43.5725 18.2412 43.5156 17.5092 43.5319V45.0637H18.2683C18.5937 45.0637 18.8648 45.0339 19.1359 44.9986C19.1088 45.099 19.1088 45.2047 19.1088 45.305C19.1088 45.4053 19.1088 45.5138 19.1359 45.6114C18.8648 45.5761 18.5937 45.549 18.2683 45.549H17.5092V47.3574C18.2412 47.352 18.7292 47.3167 19.163 47.2598C19.163 47.3574 19.1359 47.4658 19.1359 47.5662C19.1359 47.6638 19.163 47.7722 19.163 47.8725H16.4518V43.0167H19.163Z" fill="#C6003D"/>
<path d="M21.603 47.3574C22.2266 47.3574 22.7418 47.3086 23.2298 47.2598C23.2027 47.3574 23.1756 47.4658 23.1756 47.5662C23.1756 47.6638 23.2027 47.7722 23.2298 47.8725H20.5186V43.0167C20.7083 43.033 20.871 43.0547 21.0608 43.0547C21.2506 43.0547 21.4133 43.033 21.603 43.0167V47.3574Z" fill="#C6003D"/>
<path d="M94.6435 32.0146C94.6435 31.1416 95.3484 30.499 96.1889 30.499C97.0294 30.499 97.7343 31.1416 97.7343 32.0146C97.7343 32.893 97.0294 33.5356 96.1889 33.5356C95.3484 33.5356 94.6435 32.893 94.6435 32.0146ZM96.1889 33.2834C96.8938 33.2834 97.4361 32.7466 97.4361 32.0146C97.4361 31.2961 96.8938 30.7512 96.1889 30.7512C95.5111 30.7512 94.9417 31.2961 94.9417 32.0146C94.9417 32.7466 95.5111 33.2834 96.1889 33.2834ZM95.8635 32.893H95.6195V31.1416H96.2702C96.6769 31.1416 96.8938 31.2961 96.8938 31.6404C96.8938 31.9549 96.704 32.0905 96.4329 32.123L96.948 32.893H96.6498L96.1889 32.1339H95.8635V32.893ZM96.1889 31.9089C96.4058 31.9089 96.6227 31.8926 96.6227 31.6242C96.6227 31.4073 96.4329 31.3666 96.2431 31.3666H95.8635V31.9089H96.1889Z" fill="#C6003D"/>
</svg>
