<svg width="132" height="28" viewBox="0 0 132 28" fill="none" xmlns="http://www.w3.org/2000/svg">
<path d="M54.9556 5.59997V22.4H52.039V9.21664H52.0001L46.789 22.4H44.8445L39.5167 9.21664H39.4779V22.4H36.7945V5.59997H40.9945L45.8167 18.0444H45.8945L50.989 5.59997H54.9556ZM57.3668 6.88331C57.3668 6.41664 57.5223 6.02775 57.8723 5.71664C58.2223 5.40553 58.6112 5.24997 59.0779 5.24997C59.5834 5.24997 60.0112 5.40553 60.3223 5.71664C60.6334 6.02775 60.8279 6.41664 60.8279 6.88331C60.8279 7.34997 60.6723 7.73886 60.3223 8.04997C59.9723 8.36109 59.5834 8.51664 59.0779 8.51664C58.5723 8.51664 58.1834 8.36109 57.8723 8.04997C57.5612 7.69997 57.3668 7.31109 57.3668 6.88331ZM60.5167 10.3444V22.4H57.6779V10.3444H60.5167ZM69.1112 20.3389C69.539 20.3389 70.0056 20.2611 70.5112 20.0278C71.0167 19.8333 71.4834 19.5611 71.9112 19.25V21.8944C71.4445 22.1666 70.939 22.3611 70.3556 22.4778C69.7723 22.5944 69.1501 22.6722 68.4501 22.6722C66.6612 22.6722 65.2223 22.1278 64.1334 21C63.0056 19.8722 62.4612 18.4333 62.4612 16.7222C62.4612 14.7778 63.0445 13.1833 64.1723 11.9389C65.3001 10.6944 66.8945 10.0722 68.9945 10.0722C69.539 10.0722 70.0834 10.15 70.589 10.2666C71.1334 10.3833 71.5612 10.5778 71.8723 10.7333V13.4555C71.4445 13.1444 70.9779 12.8722 70.5501 12.7166C70.0834 12.5611 69.6167 12.4444 69.1501 12.4444C68.0223 12.4444 67.1279 12.7944 66.4279 13.5333C65.7279 14.2722 65.4167 15.2444 65.4167 16.4889C65.4167 17.6944 65.7667 18.6666 66.4279 19.3278C67.089 19.9889 67.9834 20.3389 69.1112 20.3389ZM79.9612 10.15C80.1945 10.15 80.389 10.15 80.5834 10.1889C80.7779 10.2278 80.9334 10.2666 81.0501 10.3055V13.1833C80.8945 13.0666 80.7001 12.95 80.389 12.8722C80.0779 12.7944 79.7668 12.7166 79.339 12.7166C78.639 12.7166 78.0556 13.0278 77.589 13.6111C77.1223 14.1944 76.8501 15.0889 76.8501 16.3333V22.4H74.0112V10.3444H76.8501V12.25H76.889C77.1612 11.5889 77.5501 11.0833 78.0556 10.6944C78.6001 10.3444 79.2223 10.15 79.9612 10.15ZM81.2056 16.5666C81.2056 14.5833 81.789 12.9889 82.8779 11.8222C84.0056 10.6555 85.5612 10.0722 87.5445 10.0722C89.4112 10.0722 90.889 10.6166 91.939 11.7444C92.989 12.8722 93.5334 14.3889 93.5334 16.2944C93.5334 18.2389 92.9501 19.7944 91.8612 20.9611C90.7334 22.1278 89.2168 22.7111 87.2723 22.7111C85.4056 22.7111 83.9279 22.1666 82.839 21.0778C81.7501 19.95 81.2056 18.4333 81.2056 16.5666ZM84.1612 16.45C84.1612 17.6944 84.4334 18.6666 85.0167 19.3278C85.6001 19.9889 86.4167 20.3389 87.4668 20.3389C88.4779 20.3389 89.2945 20.0278 89.839 19.3278C90.3834 18.6666 90.6556 17.6944 90.6556 16.3722C90.6556 15.0889 90.3834 14.1166 89.839 13.4166C89.2945 12.7555 88.4779 12.4055 87.5056 12.4055C86.4556 12.4055 85.6779 12.7555 85.0945 13.4555C84.4334 14.1944 84.1612 15.1666 84.1612 16.45ZM97.7723 13.5333C97.7723 13.9222 97.889 14.2722 98.1612 14.5055C98.4334 14.7389 98.9779 15.0111 99.8723 15.3611C101 15.8278 101.817 16.3333 102.245 16.8778C102.711 17.4611 102.945 18.1222 102.945 18.9389C102.945 20.0666 102.517 20.9611 101.622 21.6611C100.767 22.3611 99.5612 22.6722 98.0834 22.6722C97.5779 22.6722 97.0334 22.5944 96.4112 22.4778C95.789 22.3611 95.2834 22.2055 94.8556 22.0111V19.2111C95.3612 19.5611 95.9445 19.8722 96.5279 20.0666C97.1112 20.2611 97.6556 20.3778 98.1612 20.3778C98.7834 20.3778 99.289 20.3 99.5612 20.1055C99.8723 19.9111 100.028 19.6389 100.028 19.2111C100.028 18.8222 99.8723 18.5111 99.5612 18.2C99.2501 17.9278 98.6279 17.6166 97.7723 17.2666C96.7223 16.8389 95.9834 16.3333 95.5556 15.7889C95.1279 15.2444 94.8945 14.5444 94.8945 13.6889C94.8945 12.6 95.3223 11.7055 96.1779 11.0055C97.0334 10.3055 98.1612 9.95553 99.5223 9.95553C99.9501 9.95553 100.417 9.99442 100.922 10.1111C101.428 10.2278 101.895 10.3444 102.245 10.4611V13.2222C101.856 12.9889 101.428 12.7555 100.922 12.5611C100.417 12.3666 99.9112 12.2889 99.4445 12.2889C98.9001 12.2889 98.4723 12.4055 98.2001 12.6C97.9279 12.8722 97.7723 13.1444 97.7723 13.5333ZM104.15 16.5666C104.15 14.5833 104.733 12.9889 105.822 11.8222C106.95 10.6555 108.506 10.0722 110.489 10.0722C112.356 10.0722 113.833 10.6166 114.883 11.7444C115.933 12.8722 116.478 14.3889 116.478 16.2944C116.478 18.2389 115.895 19.7944 114.806 20.9611C113.678 22.1278 112.161 22.7111 110.217 22.7111C108.35 22.7111 106.872 22.1666 105.783 21.0778C104.733 19.95 104.15 18.4333 104.15 16.5666ZM107.106 16.45C107.106 17.6944 107.378 18.6666 107.961 19.3278C108.545 19.9889 109.361 20.3389 110.411 20.3389C111.422 20.3389 112.239 20.0278 112.783 19.3278C113.328 18.6666 113.6 17.6944 113.6 16.3722C113.6 15.0889 113.328 14.1166 112.783 13.4166C112.239 12.7555 111.422 12.4055 110.45 12.4055C109.4 12.4055 108.622 12.7555 108.039 13.4555C107.417 14.1944 107.106 15.1666 107.106 16.45ZM125.928 12.6778H121.689V22.4H118.811V12.6778H116.789V10.3444H118.811V8.6722C118.811 7.42775 119.239 6.37775 120.056 5.56109C120.872 4.74442 121.922 4.35553 123.206 4.35553C123.556 4.35553 123.867 4.39442 124.139 4.39442C124.411 4.39442 124.645 4.4722 124.839 4.54997V6.99997C124.761 6.96109 124.567 6.88331 124.333 6.80553C124.1 6.72775 123.828 6.68886 123.517 6.68886C122.933 6.68886 122.467 6.88331 122.156 7.23331C121.845 7.58331 121.689 8.16664 121.689 8.86664V10.3055H125.928V7.58331L128.767 6.72775V10.3055H131.645V12.6389H128.767V18.2778C128.767 19.0166 128.922 19.5222 129.156 19.8333C129.428 20.1444 129.856 20.3 130.439 20.3C130.595 20.3 130.789 20.2611 131.022 20.1833C131.256 20.1055 131.45 20.0278 131.606 19.9111V22.2444C131.411 22.3611 131.139 22.4389 130.711 22.5166C130.283 22.5944 129.895 22.6333 129.467 22.6333C128.261 22.6333 127.367 22.3222 126.783 21.7C126.2 21.0778 125.889 20.1055 125.889 18.8222L125.928 12.6778Z" fill="#737373"/>
<path d="M13.6556 0H0.35556V13.3H13.6556V0Z" fill="#F25022"/>
<path d="M28.3555 0H15.0555V13.3H28.3555V0Z" fill="#7FBA00"/>
<path d="M13.6556 14.7H0.35556V28H13.6556V14.7Z" fill="#00A4EF"/>
<path d="M28.3555 14.7H15.0555V28H28.3555V14.7Z" fill="#FFB900"/>
</svg>
