<svg width="90" height="32" viewBox="0 0 90 32" fill="none" xmlns="http://www.w3.org/2000/svg">
<path d="M10.0102 31.987C7.3349 31.8807 5.14608 31.1487 3.43461 29.789C3.10799 29.5293 2.32967 28.7505 2.06855 28.422C1.37453 27.5494 0.902681 26.7 0.587965 25.7577C-0.380464 22.857 0.117952 19.0506 2.01358 14.8732C3.63664 11.2968 6.14108 7.74972 10.5105 2.83703C11.1541 2.11413 13.0708 0 13.0832 0C13.0877 0 12.9833 0.180949 12.8518 0.401298C11.7157 2.30425 10.7436 4.54574 10.2141 6.48627C9.36337 9.59999 9.46599 12.2721 10.5146 14.3441C11.2379 15.7715 12.478 17.008 13.8725 17.6915C16.3137 18.8876 19.8878 18.9865 24.2526 17.981C24.5531 17.9113 39.4442 13.9584 57.3441 9.1964C75.244 4.43396 89.8918 0.54056 89.8941 0.543765C89.8991 0.547896 48.3076 18.3452 26.7167 27.5782C23.2975 29.04 22.3831 29.4092 20.7756 29.9736C16.6664 31.4166 12.9856 32.1052 10.0102 31.987Z" fill="#3D464D"/>
</svg>
