<svg width="70" height="48" viewBox="0 0 70 48" fill="none" xmlns="http://www.w3.org/2000/svg">
<mask id="mask0_170_7251" style="mask-type:alpha" maskUnits="userSpaceOnUse" x="0" y="0" width="70" height="48">
<path d="M0.64209 0H69.3579V48H0.64209V0Z" fill="#00A1E0"/>
</mask>
<g mask="url(#mask0_170_7251)">
<path fill-rule="evenodd" clip-rule="evenodd" d="M29.1743 5.25478C31.3924 2.94573 34.4796 1.51584 37.8901 1.51584C42.4375 1.51584 46.3786 4.04215 48.5007 7.80636C50.3844 6.96428 52.4247 6.52953 54.488 6.53057C62.6733 6.53057 69.3175 13.2253 69.3175 21.4864C69.3175 29.7474 62.6733 36.4422 54.488 36.4422C53.4876 36.4422 52.5125 36.3416 51.5575 36.1516C49.7007 39.4611 46.1512 41.7095 42.1091 41.7095C40.4634 41.7128 38.8388 41.3395 37.3596 40.6181C35.4775 45.0392 31.0943 48.1466 25.9912 48.1466C20.6607 48.1466 16.1386 44.7866 14.3954 40.0624C13.6196 40.2261 12.8287 40.3084 12.0358 40.3079C5.69477 40.3079 0.566345 35.1037 0.566345 28.7121C0.566345 24.4174 2.8754 20.6784 6.30108 18.6574C5.57432 16.9832 5.20023 15.1773 5.20213 13.3521C5.20213 5.97529 11.1895 0.0131836 18.5663 0.0131836C22.8863 0.0131836 26.7516 2.07213 29.1769 5.26792" fill="#00A1E0"/>
</g>
<path fill-rule="evenodd" clip-rule="evenodd" d="M10.5807 24.96C10.5375 25.0727 10.5961 25.0962 10.61 25.1162C10.7391 25.2096 10.8702 25.2773 11.0015 25.3534C11.7039 25.7247 12.3658 25.8334 13.058 25.8334C14.4676 25.8334 15.3443 25.0831 15.3443 23.8755V23.8517C15.3443 22.7351 14.354 22.3284 13.4293 22.0378L13.3083 21.9987C12.6085 21.7718 12.0047 21.5743 12.0047 21.1145V21.091C12.0047 20.6969 12.3584 20.4063 12.9041 20.4063C13.5104 20.4063 14.233 20.6082 14.6953 20.8636C14.6953 20.8636 14.8322 20.952 14.882 20.8199C14.909 20.7484 15.1447 20.1176 15.17 20.0468C15.1967 19.9728 15.1498 19.917 15.1015 19.8882C14.571 19.5648 13.8383 19.345 13.0804 19.345L12.9397 19.3455C11.6488 19.3455 10.7469 20.1262 10.7469 21.2428V21.2668C10.7469 22.4441 11.7423 22.8281 12.6719 23.0933L12.8215 23.1398C13.4986 23.348 14.0847 23.5289 14.0847 24.0038V24.0276C14.0847 24.4646 13.7032 24.7905 13.0918 24.7905C12.8541 24.7905 12.0964 24.7865 11.2754 24.2676C11.1761 24.2097 11.1195 24.168 11.043 24.1213C11.0026 24.0968 10.9015 24.0526 10.8575 24.185L10.5796 24.958M31.2196 24.958C31.1764 25.0707 31.2351 25.0942 31.2495 25.1141C31.378 25.2076 31.5097 25.2753 31.641 25.3514C32.3434 25.7227 33.0052 25.8314 33.6975 25.8314C35.1071 25.8314 35.9838 25.081 35.9838 23.8735V23.8497C35.9838 22.7331 34.996 22.3263 34.0688 22.0358L33.9478 21.9967C33.248 21.7698 32.6442 21.5722 32.6442 21.1124V21.089C32.6442 20.6948 32.9979 20.4043 33.5436 20.4043C34.1499 20.4043 34.8699 20.6062 35.3348 20.8616C35.3348 20.8616 35.4717 20.95 35.5217 20.8179C35.5485 20.7464 35.7844 20.1156 35.8072 20.0448C35.8342 19.9708 35.787 19.915 35.739 19.8862C35.2084 19.5628 34.4758 19.343 33.7179 19.343L33.577 19.3435C32.286 19.3435 31.3841 20.1242 31.3841 21.2408V21.2648C31.3841 22.442 32.3795 22.826 33.3092 23.0913L33.4585 23.1378C34.138 23.346 34.7216 23.5268 34.7216 24.0018V24.0255C34.7216 24.4626 34.3402 24.7885 33.7288 24.7885C33.4906 24.7885 32.7309 24.7844 31.9124 24.2655C31.8131 24.2077 31.755 24.1678 31.6797 24.1193C31.6542 24.1031 31.5352 24.0566 31.4945 24.1829L31.2166 24.956M45.3135 22.5914C45.3135 23.2735 45.1861 23.8116 44.937 24.193C44.6884 24.5695 44.313 24.7539 43.7901 24.7539C43.2671 24.7539 42.8932 24.571 42.6482 24.1956C42.4014 23.8166 42.2768 23.276 42.2768 22.5939C42.2768 21.9118 42.4021 21.3762 42.6482 20.9998C42.8927 20.6259 43.2646 20.4465 43.7901 20.4465C44.3156 20.4465 44.6895 20.6276 44.937 20.9998C45.1876 21.3762 45.3135 21.9118 45.3135 22.5939M46.4907 21.3282C46.3748 20.9366 46.1951 20.593 45.9551 20.305C45.7149 20.017 45.412 19.7846 45.0507 19.6179C44.692 19.4499 44.2676 19.3652 43.7876 19.3652C43.3076 19.3652 42.8857 19.4504 42.5244 19.6179C42.1657 19.7856 41.86 20.017 41.62 20.305C41.3805 20.593 41.2006 20.9366 41.0844 21.3282C40.9695 21.7172 40.9111 22.1417 40.9111 22.5939C40.9111 23.0461 40.9695 23.4705 41.0844 23.8596C41.1999 24.2511 41.38 24.5947 41.62 24.8827C41.8602 25.1707 42.1657 25.4006 42.5244 25.5648C42.8857 25.7285 43.3101 25.8119 43.7876 25.8119C44.265 25.8119 44.6895 25.7285 45.0482 25.5648C45.4069 25.4011 45.7126 25.1707 45.9526 24.8827C46.1924 24.5947 46.372 24.2511 46.4882 23.8596C46.6029 23.4705 46.6612 23.0461 46.6612 22.5939C46.6612 22.1442 46.6029 21.7172 46.4882 21.3282M56.164 24.5619C56.1253 24.4474 56.0137 24.4906 56.0137 24.4906C55.8426 24.5561 55.66 24.6167 55.4655 24.647C55.2694 24.6778 55.0511 24.6932 54.8212 24.6932C54.2528 24.6932 53.7981 24.5237 53.4747 24.188C53.1488 23.852 52.9669 23.3114 52.9695 22.5787C52.9712 21.9118 53.1324 21.4116 53.4217 21.0276C53.7071 20.6486 54.1467 20.4516 54.7278 20.4516C55.2128 20.4516 55.5842 20.5079 55.9732 20.6297C55.9732 20.6297 56.0655 20.6698 56.1097 20.5483C56.213 20.2628 56.2893 20.0582 56.4002 19.745C56.4315 19.6553 56.3547 19.6174 56.3267 19.6065C56.1741 19.5469 55.8138 19.4491 55.541 19.4079C55.2858 19.369 54.9903 19.3488 54.6568 19.3488C54.1616 19.3488 53.722 19.4335 53.3456 19.6012C52.9692 19.7687 52.6509 20.0004 52.3983 20.2884C52.1456 20.5764 51.9536 20.9199 51.8248 21.3115C51.6972 21.7006 51.6328 22.1275 51.6328 22.5797C51.6328 23.5549 51.8955 24.3456 52.4159 24.9242C52.9364 25.5052 53.7195 25.7983 54.7402 25.7983C55.3439 25.7983 55.9629 25.6762 56.4075 25.5002C56.4075 25.5002 56.4924 25.4592 56.4555 25.3602L56.165 24.5619M58.2239 21.9345C58.2803 21.5556 58.3841 21.2398 58.5473 20.9947C58.7916 20.6208 59.1637 20.4162 59.6867 20.4162C60.2096 20.4162 60.5557 20.6218 60.8033 20.9947C60.9675 21.241 61.0393 21.5682 61.066 21.9345L58.2113 21.934L58.2239 21.9345ZM62.1903 21.1008C62.09 20.7244 61.8416 20.3429 61.6799 20.1686C61.4223 19.8932 61.1722 19.6987 60.922 19.5926C60.561 19.4391 60.1725 19.3603 59.7802 19.361C59.2825 19.361 58.8303 19.4451 58.4639 19.6161C58.0976 19.7884 57.7894 20.0228 57.5469 20.3159C57.3046 20.609 57.1225 20.9551 57.0063 21.3517C56.89 21.7433 56.8314 22.1727 56.8314 22.6224C56.8314 23.0822 56.8923 23.5092 57.0121 23.8957C57.1331 24.2847 57.3279 24.6258 57.5906 24.9087C57.8533 25.1942 58.1893 25.4165 58.5935 25.5732C58.9952 25.7285 59.4828 25.8091 60.0411 25.8074C61.1931 25.8036 61.7994 25.5471 62.047 25.4082C62.0912 25.3834 62.1329 25.3407 62.0809 25.2177L61.8207 24.4876C61.7807 24.3787 61.6706 24.4181 61.6706 24.4181C61.3851 24.5247 60.9809 24.7162 60.0335 24.7137C59.4146 24.7127 58.9573 24.53 58.6693 24.2438C58.3763 23.9508 58.2298 23.5238 58.207 22.9175L62.1986 22.9205C62.1986 22.9205 62.3037 22.9195 62.3145 22.817C62.3188 22.7745 62.4512 21.9984 62.1956 21.1016L62.1903 21.1008ZM26.3166 21.9345C26.3729 21.5556 26.477 21.2398 26.6399 20.9947C26.8845 20.6208 27.2564 20.4162 27.7793 20.4162C28.3023 20.4162 28.6484 20.6218 28.8959 20.9947C29.0599 21.241 29.1316 21.5682 29.1587 21.9345L26.3039 21.934L26.3166 21.9345ZM30.2829 21.1008C30.1828 20.7244 29.9343 20.3429 29.7726 20.1686C29.5149 19.8932 29.2648 19.6987 29.0147 19.5926C28.6536 19.4391 28.2652 19.3603 27.8728 19.361C27.3751 19.361 26.9229 19.4451 26.5566 19.6161C26.1903 19.7884 25.882 20.0228 25.6395 20.3159C25.3978 20.609 25.2151 20.9551 25.0989 21.3517C24.9829 21.7433 24.9246 22.1727 24.9246 22.6224C24.9246 23.0822 24.985 23.5092 25.1055 23.8957C25.2262 24.2847 25.4212 24.6258 25.6815 24.9087C25.9442 25.1942 26.2802 25.4165 26.6844 25.5732C27.0861 25.7285 27.5711 25.8091 28.132 25.8074C29.284 25.8036 29.8903 25.5471 30.1379 25.4082C30.1818 25.3834 30.2238 25.3407 30.1715 25.2177L29.9113 24.4876C29.8711 24.3787 29.761 24.4181 29.761 24.4181C29.4755 24.5247 29.0713 24.7162 28.1239 24.7137C27.5075 24.7127 27.0477 24.53 26.7597 24.2438C26.4666 23.9508 26.3201 23.5238 26.2974 22.9175L30.289 22.9205C30.289 22.9205 30.394 22.9195 30.4049 22.817C30.4092 22.7745 30.5416 21.9984 30.2857 21.1016L30.2829 21.1008ZM17.7018 24.5366C17.5455 24.4118 17.5237 24.3812 17.4719 24.3002C17.3929 24.1781 17.3524 24.0046 17.3524 23.7823C17.3524 23.4336 17.4687 23.181 17.7087 23.0117C17.7061 23.0122 18.0522 22.7136 18.8657 22.7237C19.2278 22.7302 19.589 22.761 19.947 22.8159V24.6273H19.9475C19.9475 24.6273 19.4422 24.7362 18.8713 24.7706C18.0603 24.8193 17.7016 24.5371 17.7041 24.5379L17.7018 24.5366ZM19.2884 21.7324C19.1267 21.7205 18.917 21.7147 18.6669 21.7147C18.3258 21.7147 17.9949 21.7572 17.6867 21.8405C17.3759 21.9244 17.0955 22.0543 16.8555 22.2271C16.6149 22.3987 16.4169 22.6235 16.277 22.8839C16.1358 23.1466 16.0638 23.4548 16.0638 23.8035C16.0638 24.1572 16.1252 24.4628 16.2464 24.713C16.3653 24.961 16.5441 25.1755 16.7668 25.337C16.9884 25.4981 17.262 25.6174 17.5778 25.6881C17.8911 25.7596 18.2447 25.7957 18.6338 25.7957C19.0431 25.7957 19.4498 25.7614 19.8439 25.6949C20.1796 25.637 20.514 25.572 20.8468 25.4999C20.9797 25.4693 21.1273 25.4292 21.1273 25.4292C21.2258 25.4042 21.2182 25.2988 21.2182 25.2988L21.2159 21.6609C21.2159 20.8626 21.0027 20.2689 20.5818 19.9026C20.1625 19.5363 19.5486 19.3519 18.7528 19.3519C18.4547 19.3519 17.9722 19.3923 17.6842 19.4501C17.6842 19.4501 16.8151 19.6189 16.4564 19.8998C16.4564 19.8998 16.3775 19.9483 16.4205 20.0582L16.7034 20.8161C16.7386 20.9144 16.8343 20.8808 16.8343 20.8808C16.8343 20.8808 16.8644 20.8689 16.8997 20.8479C17.6652 20.4311 18.6353 20.4437 18.6353 20.4437C19.0648 20.4437 19.3983 20.5309 19.6206 20.7014C19.8381 20.8684 19.949 21.1208 19.949 21.6513V21.8198C19.6079 21.7703 19.2922 21.7418 19.2922 21.7418L19.2884 21.7324ZM51.3726 19.6785C51.3783 19.6652 51.3813 19.6508 51.3814 19.6363C51.3815 19.6218 51.3787 19.6075 51.3731 19.5941C51.3675 19.5807 51.3593 19.5685 51.3489 19.5584C51.3385 19.5483 51.3262 19.5403 51.3127 19.535C51.2447 19.5092 50.906 19.4378 50.6458 19.4216C50.1455 19.3903 49.8676 19.4746 49.6175 19.5868C49.3705 19.6982 49.0971 19.8773 48.9455 20.0845L48.945 19.5994C48.945 19.5327 48.8978 19.4789 48.8306 19.4789H47.81C47.7438 19.4789 47.6958 19.5327 47.6958 19.5994V25.5363C47.6958 25.5684 47.7086 25.5991 47.7313 25.6218C47.754 25.6445 47.7847 25.6572 47.8168 25.6573H48.8627C48.8947 25.6572 48.9254 25.6444 48.9481 25.6218C48.9707 25.5991 48.9834 25.5683 48.9834 25.5363V22.5552C48.9834 22.1561 49.0274 21.7594 49.1151 21.5093C49.2015 21.262 49.3189 21.0647 49.4637 20.9232C49.6018 20.7866 49.7708 20.6852 49.9563 20.6276C50.1305 20.5777 50.3107 20.5523 50.4919 20.5524C50.7003 20.5524 50.929 20.6059 50.929 20.6059C51.0058 20.6145 51.0484 20.5675 51.0745 20.4983C51.1429 20.3162 51.3372 19.7707 51.3751 19.6621" fill="#FFFFFE"/>
<path fill-rule="evenodd" clip-rule="evenodd" d="M41.6041 16.9384C41.4748 16.8994 41.3433 16.8682 41.2102 16.845C41.0312 16.8151 40.85 16.8011 40.6686 16.803C39.9478 16.803 39.3796 17.0067 38.9807 17.4088C38.5846 17.808 38.315 18.4161 38.1799 19.2162L38.1311 19.4862H37.2265C37.2265 19.4862 37.1161 19.4817 37.0928 19.6022L36.9443 20.4308C36.9339 20.5102 36.968 20.5597 37.0741 20.5592H37.9548L37.0612 25.5469C36.9913 25.9486 36.9112 26.279 36.8225 26.5294C36.7351 26.7764 36.6497 26.9616 36.5446 27.096C36.4428 27.2261 36.3463 27.3219 36.1798 27.3777C36.0424 27.4239 35.8842 27.4451 35.7109 27.4451C35.6144 27.4451 35.4861 27.429 35.3913 27.41C35.2966 27.3913 35.2473 27.3701 35.1764 27.3403C35.1764 27.3403 35.073 27.3009 35.0324 27.4045C34.9993 27.4891 34.7646 28.1346 34.7368 28.2144C34.7085 28.2932 34.7481 28.3554 34.7982 28.3733C34.9154 28.4152 35.0025 28.442 35.1622 28.4797C35.384 28.532 35.571 28.5352 35.746 28.5352C36.1129 28.5352 36.4471 28.4837 36.7242 28.3837C37.0031 28.2829 37.2459 28.1073 37.4606 27.8696C37.6928 27.6131 37.8388 27.3446 37.9785 26.9783C38.1167 26.6152 38.2345 26.1646 38.3287 25.6393L39.2265 20.5592H40.5392C40.5392 20.5592 40.6499 20.5632 40.6729 20.4432L40.8214 19.6146C40.8318 19.5352 40.7979 19.4857 40.6913 19.4862H39.4173C39.4236 19.4574 39.4814 19.0093 39.6277 18.5874C39.6901 18.4072 39.8076 18.262 39.9071 18.1622C40.0001 18.0672 40.1145 17.9959 40.2409 17.9545C40.3793 17.9117 40.5236 17.8909 40.6686 17.8929C40.7886 17.8929 40.9063 17.9073 40.996 17.926C41.1195 17.9523 41.1675 17.9662 41.1998 17.9758C41.3297 18.0154 41.3471 17.977 41.3726 17.9141L41.6773 17.0774C41.7086 16.9875 41.6324 16.9496 41.6041 16.9384ZM23.8001 25.5575C23.8001 25.6242 23.7526 25.6785 23.6859 25.6785H22.6292C22.5622 25.6785 22.5147 25.6242 22.5147 25.5575V17.0519C22.5147 16.9854 22.5622 16.9316 22.6292 16.9316H23.6859C23.7526 16.9316 23.8001 16.9854 23.8001 17.0519V25.5575Z" fill="#FFFFFE"/>
</svg>
