<svg width="82" height="28" viewBox="0 0 82 28" fill="none" xmlns="http://www.w3.org/2000/svg">
<path d="M5.16008 19.9972C5.50237 20.9018 5.97628 21.6752 6.58187 22.3175C7.18747 22.9598 7.90492 23.4514 8.73422 23.7922C9.56362 24.1331 10.4654 24.3034 11.4396 24.3034C12.3874 24.3034 13.276 24.1264 14.1054 23.7725C14.9348 23.4185 15.6588 22.9204 16.2775 22.2781C16.8962 21.6358 17.3767 20.869 17.719 19.9776C18.0613 19.0862 18.2324 18.09 18.2324 16.9888V0H22.3792V27.5281H18.2719V24.9719C17.3504 25.9419 16.2643 26.6891 15.0137 27.2135C13.763 27.7378 12.4137 28 10.9657 28C9.49117 28 8.11552 27.7443 6.83853 27.2331C5.56162 26.7219 4.45573 25.9944 3.52112 25.0506C2.58652 24.1067 1.84923 22.973 1.30952 21.6489C0.76973 20.3249 0.499878 18.8503 0.499878 17.2247V0H4.64668V16.9888C4.64668 18.09 4.81778 19.0927 5.16008 19.9972Z" fill="#010202"/>
<path d="M29.527 0V10.0281C30.4485 9.11048 31.5149 8.38302 32.726 7.84552C33.9371 7.30802 35.2536 7.03931 36.6753 7.03931C38.1498 7.03931 39.532 7.31454 40.8221 7.8651C42.1122 8.41565 43.2312 9.16287 44.179 10.1067C45.1269 11.0506 45.8773 12.1648 46.4302 13.4494C46.9831 14.7341 47.2595 16.0974 47.2595 17.5394C47.2595 18.9812 46.9831 20.338 46.4302 21.6095C45.8773 22.8811 45.1269 23.9888 44.179 24.9325C43.2312 25.8764 42.1122 26.6236 40.8221 27.1741C39.532 27.7247 38.1497 27.9999 36.6753 27.9999C35.2535 27.9999 33.9306 27.7312 32.7063 27.1937C31.482 26.6563 30.409 25.9287 29.4875 25.0111V27.528H25.5382V0H29.527ZM29.9812 20.2528C30.3366 21.0918 30.8303 21.8259 31.4622 22.4551C32.0941 23.0843 32.8313 23.5825 33.6738 23.9495C34.5164 24.3166 35.4247 24.5001 36.3989 24.5001C37.3468 24.5001 38.2419 24.3166 39.0844 23.9495C39.9269 23.5825 40.6575 23.0844 41.2764 22.4551C41.8951 21.826 42.3887 21.0918 42.7573 20.2528C43.1259 19.4139 43.3102 18.5094 43.3102 17.5394C43.3102 16.5693 43.1259 15.6582 42.7573 14.8062C42.3887 13.9541 41.8951 13.2135 41.2764 12.5843C40.6576 11.9551 39.927 11.4635 39.0844 11.1096C38.2419 10.7557 37.3467 10.5786 36.3989 10.5786C35.4511 10.5786 34.5559 10.7556 33.7134 11.1096C32.8709 11.4636 32.1337 11.9551 31.5017 12.5843C30.8699 13.2135 30.3696 13.9541 30.001 14.8062C29.6324 15.6582 29.4481 16.5693 29.4481 17.5394C29.448 18.5094 29.6258 19.4139 29.9812 20.2528Z" fill="#010202"/>
<path d="M49.5103 13.4888C50.0368 12.2303 50.761 11.1227 51.6824 10.1658C52.6038 9.20882 53.6966 8.45508 54.9604 7.90452C56.2242 7.35397 57.5933 7.07874 59.0677 7.07874C60.5158 7.07874 61.8586 7.34092 63.0961 7.86519C64.3335 8.38956 65.3998 9.1171 66.295 10.0479C67.1902 10.9785 67.888 12.0797 68.3881 13.3512C68.8884 14.6228 69.1385 16.0057 69.1385 17.5002V18.7979H52.7488C52.8805 19.6107 53.1438 20.3644 53.5387 21.0591C53.9337 21.7538 54.4272 22.3568 55.0196 22.868C55.612 23.3794 56.2834 23.7792 57.0338 24.0675C57.7842 24.3559 58.5806 24.5001 59.4232 24.5001C61.8192 24.5001 63.7544 23.5169 65.2288 21.5506L68.1118 23.6742C67.1113 25.0113 65.8739 26.06 64.3995 26.8203C62.925 27.5805 61.2663 27.9607 59.4233 27.9607C57.9225 27.9607 56.5205 27.6984 55.2172 27.1742C53.9139 26.6499 52.7818 25.9157 51.8208 24.9719C50.8598 24.028 50.1029 22.9203 49.55 21.6489C48.9971 20.3774 48.7206 18.9943 48.7206 17.5C48.7204 16.0843 48.9838 14.7472 49.5103 13.4888ZM55.0591 11.9353C53.9401 12.8661 53.1964 14.1048 52.8278 15.6517H65.1103C64.768 14.1048 64.0373 12.8661 62.9183 11.9353C61.7993 11.0047 60.4895 10.5393 58.9888 10.5393C57.488 10.5393 56.1781 11.0047 55.0591 11.9353Z" fill="#010202"/>
<path d="M76.6031 12.3877C75.7606 13.3053 75.3393 14.5506 75.3393 16.1237V27.5283H71.3504V7.472H75.2997V9.94953C75.8 9.13679 76.4516 8.49444 77.2546 8.02255C78.0576 7.55057 79.0121 7.31458 80.118 7.31458H81.5002V11.0113H79.8415C78.5251 11.0113 77.4456 11.4701 76.6031 12.3877Z" fill="#010202"/>
</svg>
