<svg width="72" height="48" viewBox="0 0 72 48" fill="none" xmlns="http://www.w3.org/2000/svg">
<path d="M32.6415 4.87519C32.9555 4.87519 33.1557 4.55795 33.3545 4.06747C33.6114 3.46105 34.8105 2.33651 36.4634 2.33651C37.7185 2.33651 38.9451 3.11616 39.9435 3.9239C40.8848 4.70283 41.6547 4.73134 41.6547 5.07854C41.6547 5.19273 41.4554 5.27957 41.2275 5.27957C40.2863 5.27957 38.6326 3.86659 36.8638 3.86659C34.8667 3.86659 33.2402 5.59682 33.2402 6.57793C33.2402 6.86667 33.3547 7.09765 33.7252 7.09765C34.1542 7.09765 34.6393 6.05792 35.7511 6.05792C36.7774 6.05792 37.6337 7.03918 39.0596 6.83757C39.2311 6.80877 39.2874 7.06769 39.172 7.12674C36.3203 8.74119 33.2979 10.2711 33.2979 15.3776C33.2979 19.3009 35.4942 23.0815 40.3423 23.0815C45.3921 23.0815 47.8158 19.7921 47.8158 15.3776C47.8158 11.5693 45.5075 8.0504 42.3972 8.0504C42.2831 8.0504 42.1695 8.0504 42.0543 8.07862C41.8542 8.13535 41.6829 8.30801 41.6829 8.56867C41.6829 8.88519 41.7694 8.97333 41.9691 9.11575C43.9665 10.5309 44.6523 11.916 44.6523 15.7533C44.6523 18.4645 43.5385 21.4763 40.7416 21.4763C37.7187 21.4763 36.4348 18.2339 36.4348 15.3208C36.4348 11.9445 37.2911 10.3568 39.4027 8.77158C41.6829 7.03918 44.395 6.2313 44.395 4.64435C44.395 3.86643 43.5669 3.72156 43.0244 3.69305C42.5396 3.66396 41.8542 3.49013 41.512 3.00008C40.1151 1.52863 38.4885 7.74797e-06 36.5499 7.74797e-06C33.7829 7.74797e-06 32.1559 2.94277 32.1559 4.03895C32.1559 4.47271 32.2411 4.87519 32.6415 4.87519V4.87519Z" fill="#00674B"/>
<path d="M60.2581 9.20647H60.6962C60.8264 9.20647 61.0007 9.33875 61.0447 9.53732C61.11 9.71462 61.1317 9.82461 61.1317 10.3999V20.2753C61.1317 20.8699 61.1101 20.9825 61.0447 21.1573C61.0005 21.3125 60.8486 21.4447 60.6962 21.4447H60.2581C59.9536 21.4447 59.7129 21.71 59.7129 22.042C59.7129 22.5272 59.9536 22.6827 60.6962 22.6827H69.2577L69.6744 22.6593C70.0207 22.6377 70.1316 22.5505 70.283 22.174L70.9173 20.695C71.0483 20.3855 71.0933 20.1862 71.0933 20.0757C71.0933 19.766 70.8742 19.5462 70.5247 19.5462C70.2399 19.5462 70.1316 19.6336 69.8701 20.0307C69.4329 20.673 69.0181 21.0035 68.514 21.09C68.143 21.1573 67.5742 21.1803 66.4841 21.1803C65.3255 21.1803 64.891 21.135 64.6046 21.025C64.2553 20.893 64.1902 20.6506 64.1902 19.4793V15.9877C64.1902 15.5019 64.2553 15.2809 64.3869 15.1923C64.497 15.127 64.649 15.1055 65.2813 15.1055H66.9866C67.555 15.1055 67.8359 14.8402 67.8359 14.3307C67.8359 13.8009 67.6185 13.6032 66.9866 13.6032H64.1902V10.7737C64.1902 9.6039 64.3228 9.45005 65.5224 9.45005H66.9866C68.3622 9.45005 68.7765 9.60389 69.2155 10.244C69.3679 10.4439 69.454 10.576 69.4764 10.621C69.5634 10.7083 69.6746 10.7967 69.7821 10.8406C69.8466 10.885 69.9346 10.9086 70.0207 10.9086C70.3506 10.9086 70.6127 10.664 70.6127 10.3998C70.6127 10.3338 70.5681 10.2002 70.5026 10.024L69.8701 8.38976C69.7391 8.05616 69.5633 7.94733 69.1062 7.94733H60.6963C59.9537 7.94733 59.6907 8.10233 59.6907 8.58747C59.6907 8.91861 59.9536 9.20647 60.2581 9.20647V9.20647Z" fill="#00674B"/>
<path d="M48.5726 9.20647H48.9893C49.1407 9.20647 49.3164 9.31733 49.3592 9.49391C49.4239 9.67004 49.4491 9.7589 49.4491 10.3542V20.341C49.4491 20.8929 49.4239 21.0033 49.3592 21.1573C49.3164 21.3125 49.1407 21.4447 48.9893 21.4447H48.5726C48.2672 21.4447 48.0279 21.71 48.0279 22.042C48.0279 22.5272 48.2671 22.6827 48.9893 22.6827H57.3989C58.0745 22.6827 58.2498 22.5726 58.468 22.0197L59.1448 20.341L59.2328 20.0979C59.2766 20.0083 59.2988 19.921 59.2988 19.8329C59.2988 19.5676 59.0352 19.3469 58.7083 19.3469C58.447 19.3469 58.3143 19.4356 58.0529 19.8105C57.5287 20.5626 57.2449 20.8485 56.8741 21.0033C56.5023 21.1572 56.2619 21.1572 54.9518 21.1572C53.4452 21.1572 53.0297 21.135 52.8114 20.9823C52.5501 20.8279 52.5068 20.6053 52.5068 19.6336V10.3542C52.5068 9.78032 52.5068 9.64775 52.5712 9.49391C52.6357 9.31719 52.8333 9.20647 53.0297 9.20647H53.5109C53.8148 9.20647 54.0778 8.94089 54.0778 8.58776C54.0778 8.10262 53.8148 7.94762 53.0297 7.94762H48.9893C48.2467 7.94762 47.9847 8.10262 47.9847 8.58776C47.9847 8.94089 48.2467 9.20647 48.5726 9.20647V9.20647Z" fill="#00674B"/>
<path d="M45.0335 36.8853C45.0115 37.392 44.9681 37.4357 44.2909 37.5477C43.9193 37.5916 43.7028 37.8121 43.7028 38.1433C43.7028 38.3201 43.8117 38.5199 43.9636 38.6287C44.7296 39.2271 47.3274 39.7346 49.5981 39.7346C52.0242 39.7346 53.7053 39.2473 54.9949 38.2094C56.6105 36.9071 57.5057 34.6977 57.5057 32.025C57.5057 29.638 56.8079 27.6273 55.5187 26.3249C54.1866 24.9543 52.3933 24.3577 49.7747 24.3577C47.3058 24.3577 44.7502 24.8227 43.986 25.4193C43.812 25.551 43.703 25.7499 43.703 25.9477C43.703 26.2804 43.943 26.501 44.3577 26.5217C44.9473 26.5671 45.0118 26.6551 45.0338 27.231L45.0561 27.7162V36.3989L45.0335 36.8853V36.8853ZM48.1141 28.0036C48.1141 26.7441 48.1575 26.4796 48.4409 26.259C48.7693 25.9929 49.4026 25.8157 50.0798 25.8157C52.6781 25.8157 54.2287 28.114 54.2287 32.0017C54.2287 35.8914 52.6781 38.1434 49.9921 38.1434C49.1627 38.1434 48.5051 37.923 48.2672 37.5916C48.1362 37.3707 48.1141 37.1921 48.1141 36.3106V28.0036Z" fill="#00674B"/>
<path d="M59.254 30.2349C59.9307 31.0304 60.1261 31.1624 62.2009 32.6198C63.4463 33.5043 64.0374 33.99 64.5166 34.5216C64.9757 35.0503 65.2151 35.5808 65.2151 36.1778C65.2151 37.3467 64.2551 38.1433 62.8354 38.1433C61.591 38.1433 60.3665 37.4794 59.6039 36.3987L59.2971 35.9561C59.1648 35.78 58.9687 35.6687 58.7506 35.6687C58.359 35.6687 58.0529 35.9561 58.0529 36.3543C58.0529 36.4636 58.0723 36.663 58.117 36.7954L58.6627 39.005C58.793 39.536 58.9687 39.7344 59.3396 39.7344C59.5356 39.7344 59.6456 39.69 59.842 39.536C60.0398 39.3591 60.1263 39.3146 60.3011 39.3146C60.4325 39.3146 60.4755 39.3371 60.7811 39.4244C61.4155 39.6241 62.2674 39.7346 63.0752 39.7346C65.9588 39.7346 67.8359 38.0545 67.8359 35.4927C67.8359 34.3666 67.4003 33.2613 66.657 32.4878C65.959 31.7571 65.3908 31.3182 63.6654 30.1014C63.2074 29.7704 62.8558 29.5281 62.5933 29.328C62.1582 28.997 61.8073 28.6434 61.5913 28.3123C61.4156 28.0683 61.3493 27.7373 61.3493 27.4071C61.3493 26.5009 62.0061 25.9269 63.0101 25.9269C63.7301 25.9269 64.472 26.1683 65.064 26.6336C65.5225 26.9867 65.609 27.0759 66.1125 27.8261C66.3085 28.1137 66.4396 28.2013 66.6799 28.2013C67.0505 28.2013 67.3132 27.9583 67.3132 27.6708C67.3132 27.6057 67.3132 27.474 67.2693 27.3626L66.745 24.977C66.657 24.5781 66.4612 24.3576 66.1328 24.3576C65.959 24.3576 65.8925 24.3791 65.674 24.5347C65.4792 24.6664 65.3256 24.732 65.1728 24.732C65.0849 24.732 64.976 24.7119 64.8661 24.6894C64.5616 24.623 64.3869 24.5781 64.32 24.5573C63.687 24.4252 63.0532 24.3576 62.4416 24.3576C60.04 24.3576 58.4241 25.7719 58.4241 27.9146C58.4241 28.7992 58.7069 29.5933 59.254 30.2349V30.2349Z" fill="#00674B"/>
<path d="M10.8368 26.1684C13.1097 26.1684 13.3718 26.259 13.9837 27.1861C14.2021 27.5167 14.3541 27.6491 14.5945 27.6491C14.9227 27.6491 15.1612 27.4071 15.1612 27.119C15.1612 27.0307 15.1411 26.9424 15.0757 26.766L14.5082 25.2638C14.399 24.9977 14.2894 24.8226 14.159 24.757C14.0486 24.6894 13.9837 24.6664 13.6332 24.6664H5.61827C4.89737 24.6664 4.6574 24.8226 4.6574 25.307C4.6574 25.6396 4.87494 25.927 5.18118 25.927H5.61841C5.77081 25.927 5.9235 26.0374 5.98906 26.2128C6.03291 26.3693 6.05491 26.501 6.05491 27.076V36.9944C6.05491 37.5915 6.03291 37.7018 5.98906 37.856C5.9235 38.0344 5.77081 38.1432 5.61841 38.1432H5.18118C4.87494 38.1432 4.61414 38.4301 4.61414 38.762C4.61414 39.2471 4.87508 39.4025 5.61841 39.4025H9.63636C10.4451 39.4025 10.7072 39.2471 10.7072 38.762C10.7072 38.4301 10.4665 38.1432 10.1392 38.1432H9.63636C9.46226 38.1432 9.26615 38.0344 9.17815 37.856C9.11186 37.7018 9.11187 37.5915 9.11187 36.9944V32.5981C9.11187 32.1353 9.13387 32.0017 9.287 31.9367C9.37484 31.8926 9.48354 31.8691 9.59309 31.8691H11.8213C12.433 31.8691 12.76 31.6047 12.76 31.1174C12.76 30.61 12.455 30.3676 11.8213 30.3676H9.11187V27.076C9.11187 26.2128 9.24387 26.1684 10.8368 26.1684V26.1684Z" fill="#00674B"/>
<path d="M66.7902 41.1797H5.93056C4.0682 41.1797 2.55896 42.7057 2.55896 44.5899C2.55896 46.472 4.06834 48 5.93056 48H66.7902C68.6524 48 70.162 46.472 70.162 44.5899C70.162 42.7057 68.6524 41.1797 66.7902 41.1797ZM14.2025 45.8259C14.2085 45.8886 14.2868 45.9278 14.3533 45.9278H14.4929C14.6097 45.9278 14.7098 46.0466 14.7098 46.1763C14.7098 46.3439 14.6205 46.4116 14.3535 46.4116H12.7817C12.5028 46.4116 12.3975 46.3439 12.3975 46.1763C12.3975 46.0466 12.5028 45.9278 12.6318 45.9278H12.7817C12.8483 45.9278 12.9107 45.8886 12.9379 45.8259C12.9651 45.759 12.9651 45.7192 12.9651 45.4876V43.7191L11.5554 45.1098C11.4712 45.2001 11.3722 45.2506 11.2721 45.2506C11.1658 45.2506 11.1207 45.217 11.0155 45.1098L9.68874 43.6791V45.4875C9.68874 45.7068 9.68873 45.7589 9.71174 45.8257C9.73345 45.8936 9.79424 45.9276 9.86241 45.9276H10.0294C10.1636 45.9276 10.2626 46.0465 10.2626 46.1761C10.2626 46.3437 10.173 46.4115 9.86241 46.4115H8.73627C8.46346 46.4115 8.35202 46.3437 8.35202 46.1761C8.35202 46.0465 8.46346 45.9276 8.58619 45.9276H8.73627C8.80386 45.9276 8.85914 45.8884 8.88693 45.8257C8.91515 45.7689 8.92022 45.6904 8.92022 45.4875V43.5091C8.92022 43.2792 8.91513 43.2216 8.88693 43.1598C8.85914 43.093 8.80386 43.0419 8.73627 43.0419H8.58619C8.46332 43.0419 8.35202 42.9403 8.35202 42.8055C8.35202 42.6298 8.46346 42.563 8.73627 42.563H10.0125C10.1469 42.563 10.2239 42.597 10.4082 42.8L11.6125 44.1363L13.0152 42.7427C13.1608 42.6021 13.2494 42.563 13.3725 42.563H14.3533C14.6205 42.563 14.7097 42.6298 14.7097 42.8055C14.7097 42.9403 14.6095 43.0419 14.4927 43.0419H14.3128C14.2462 43.0419 14.2141 43.0814 14.1852 43.1425C14.1577 43.1992 14.1577 43.2792 14.1577 43.5091V45.4875C14.1577 45.7068 14.1577 45.759 14.2025 45.8259V45.8259ZM24.6839 46.4116H22.9182C22.7506 46.4116 22.6612 46.3165 22.6612 46.1763C22.6612 46.0058 22.7559 45.9606 22.9787 45.9231C23.1682 45.8886 23.1841 45.7867 23.1129 45.6066L23.0902 45.5499C23.046 45.4369 22.9838 45.4263 22.79 45.4263H21.5084C21.3793 45.4263 21.3129 45.4368 21.2786 45.4538C21.2403 45.4713 21.2128 45.4874 21.1948 45.5212L21.1796 45.5616C21.1236 45.6904 21.1851 45.8883 21.4131 45.9159C21.63 45.945 21.7193 46.0055 21.7193 46.1632C21.7193 46.3206 21.6032 46.4113 21.4297 46.4113H20.0368C19.8305 46.4113 19.7358 46.3436 19.7358 46.1918C19.7358 46.0463 19.8077 45.9841 19.97 45.945C20.0868 45.9159 20.1261 45.8881 20.1759 45.8256C20.2147 45.7754 20.2927 45.6225 20.3719 45.4713L21.6807 42.8498C21.8316 42.5513 22.1153 42.4832 22.3772 42.4832C22.6162 42.4832 22.9185 42.5685 23.0569 42.8498L24.3217 45.3703C24.5165 45.7589 24.5773 45.8418 24.7064 45.8883L24.8237 45.9275C24.9068 45.955 24.9745 46.0285 24.9745 46.1467C24.9745 46.3164 24.8732 46.4116 24.6839 46.4116V46.4116ZM34.9931 46.4116H33.9511C33.717 46.4116 33.6043 46.3392 33.4423 46.1635L32.2668 44.829C32.1509 44.698 32.1063 44.6196 32.1063 44.5633C32.1063 44.4513 32.2011 44.4007 32.4346 44.3777C33.0259 44.3271 33.3197 44.113 33.3197 43.6609C33.3197 43.1549 32.9128 42.9233 32.4064 42.9233C32.2108 42.9233 32.0166 42.9626 31.9159 43.0352C31.8283 43.1033 31.7937 43.2166 31.7756 43.4593L31.7604 43.7351V45.4714C31.7604 45.6906 31.7604 45.7537 31.7827 45.8034C31.8105 45.8761 31.8829 45.923 31.9447 45.923H32.1175C32.2343 45.923 32.3292 46.0287 32.3292 46.1634C32.3292 46.3437 32.2341 46.4115 31.9445 46.4115H30.3791C30.1056 46.4115 29.9932 46.3437 29.9932 46.1634C29.9932 46.0287 30.1056 45.923 30.2275 45.923H30.3791C30.4612 45.923 30.5124 45.8761 30.5407 45.8034C30.5618 45.7414 30.5618 45.6906 30.5618 45.4714V43.5377C30.5618 43.3067 30.5234 43.2678 30.3058 43.2545C30.1387 43.2456 30.0451 43.1668 30.0451 43.0193C30.0451 42.9458 30.0895 42.8608 30.1388 42.8099C30.4123 42.5913 31.4695 42.4834 32.311 42.4834C33.7493 42.4834 34.5413 42.8561 34.5413 43.5651C34.5413 44.055 34.3236 44.4612 33.5494 44.597L34.2964 45.4204C34.5741 45.7299 34.7747 45.8372 35.0086 45.8761C35.1756 45.923 35.1986 45.9276 35.2481 45.9553C35.2978 45.9844 35.35 46.0563 35.35 46.1469C35.35 46.3164 35.226 46.4116 34.9931 46.4116V46.4116ZM42.4876 46.4116H40.9206C40.6477 46.4116 40.5377 46.3439 40.5377 46.1635C40.5377 46.0288 40.6476 45.9231 40.7707 45.9231H40.9205C41.004 45.9231 41.0545 45.8763 41.0815 45.8036C41.1044 45.7415 41.1044 45.6907 41.1044 45.4716V43.5092C41.1044 43.2891 41.0999 43.2111 41.0815 43.1719C41.0543 43.1096 41.004 43.0537 40.9205 43.0537H40.7707C40.6475 43.0537 40.5377 42.9511 40.5377 42.8057C40.5377 42.63 40.6477 42.5631 40.9206 42.5631H42.4876C42.7756 42.5631 42.872 42.63 42.872 42.8057C42.872 42.9511 42.7756 43.0537 42.6542 43.0537H42.4876C42.4194 43.0537 42.3696 43.0975 42.3424 43.1719C42.3135 43.2458 42.3032 43.2794 42.3032 43.5092V45.4716C42.3032 45.6179 42.309 45.759 42.3515 45.8259C42.3928 45.8886 42.4314 45.9231 42.4874 45.9231H42.654C42.7595 45.9231 42.8718 46.0288 42.8718 46.1635C42.8718 46.3439 42.7598 46.4116 42.4876 46.4116ZM45.823 46.4116H44.7656C44.5367 46.4116 44.4647 46.3333 44.2983 46.1635L42.764 44.6306C42.6928 44.5578 42.6639 44.5186 42.6639 44.4719C42.6639 44.4281 42.7087 44.3717 42.764 44.3271L43.8747 43.3804C44.0358 43.2399 43.9411 43.0682 43.8517 43.0682C43.7508 43.0682 43.6917 42.9749 43.6917 42.8057C43.6917 42.6531 43.7682 42.5631 43.9583 42.5631H45.735C45.9192 42.5631 46.0194 42.6359 46.0194 42.8002C46.0194 42.9404 45.9475 43.0151 45.735 43.042C45.5405 43.0684 45.4639 43.0684 45.3279 43.1034C45.2014 43.1375 45.0392 43.2334 44.9326 43.3234L43.9191 44.203L45.1724 45.4486C45.5024 45.7758 45.6913 45.8763 45.8572 45.9231C46.0459 45.9722 46.1368 46.0058 46.1368 46.1635C46.1368 46.3164 46.0259 46.4116 45.823 46.4116V46.4116ZM55.7542 45.5499L55.4646 46.2825C55.4192 46.3785 55.3874 46.401 55.2419 46.401L55.0736 46.4115H51.6472C51.358 46.4115 51.2631 46.3438 51.2631 46.1635C51.2631 46.0287 51.358 45.9277 51.4742 45.9277H51.6472C51.6975 45.9277 51.7634 45.8762 51.7753 45.8079C51.8087 45.7537 51.8155 45.6905 51.8155 45.4715V43.5267C51.8155 43.3067 51.8087 43.2457 51.7753 43.188C51.7633 43.1095 51.6975 43.0535 51.6472 43.0535H51.4742C51.358 43.0535 51.2473 42.9402 51.2473 42.8055C51.2473 42.6298 51.3582 42.5629 51.6473 42.5629H55.0405C55.2191 42.5629 55.2803 42.5911 55.314 42.6758L55.5699 43.3402C55.5808 43.3738 55.6087 43.4184 55.6035 43.4362C55.5877 43.5049 55.448 43.5649 55.3252 43.5649C55.2803 43.5649 55.2482 43.5649 55.2247 43.548C55.1803 43.5375 55.1472 43.5145 55.1186 43.4984C55.1025 43.4761 55.0867 43.4475 55.0351 43.3919C54.8968 43.2276 54.6526 43.0535 54.1031 43.0535H53.537C53.0633 43.0535 53.012 43.0972 53.012 43.4024V44.0394H54.1031C54.3658 44.0394 54.4396 44.1796 54.4396 44.3268C54.4396 44.484 54.3387 44.6266 54.1031 44.6266H53.4367C53.2634 44.6266 53.1301 44.6141 53.0852 44.6472C53.0403 44.6818 53.0118 44.7429 53.0118 44.8726V45.4763C53.0118 45.7796 53.0356 45.8417 53.1812 45.876C53.2739 45.899 53.4634 45.9229 53.9149 45.9229C54.3386 45.9229 54.5617 45.9099 54.7001 45.8935C54.8901 45.8717 55.1702 45.5498 55.3087 45.3758C55.392 45.2674 55.4255 45.2505 55.543 45.2505C55.6883 45.2505 55.7657 45.3077 55.7831 45.3809C55.7927 45.4204 55.7872 45.459 55.7542 45.5499V45.5499ZM65.2992 43.6393C65.2101 43.6393 65.1381 43.6056 65.0667 43.5092C65.0252 43.4593 65.0164 43.4477 64.9986 43.4318C64.9168 43.3289 64.7748 43.1315 64.6751 43.0973C64.5817 43.0632 64.4568 43.0536 64.1406 43.0536C63.7397 43.0536 63.6893 43.0814 63.6893 43.3287V45.4714C63.6893 45.6906 63.6893 45.7414 63.7112 45.8034C63.7397 45.8761 63.806 45.923 63.8794 45.923H64.1118C64.2419 45.923 64.34 46.0287 64.34 46.1634C64.34 46.3437 64.2419 46.4115 63.9294 46.4115H62.2397C61.9391 46.4115 61.8343 46.3437 61.8343 46.1634C61.8343 46.0287 61.9391 45.923 62.051 45.923H62.3018C62.3583 45.923 62.424 45.8761 62.4515 45.8034C62.4745 45.7414 62.4905 45.6906 62.4905 45.4714V43.3287C62.4905 43.0885 62.4515 43.0536 61.9513 43.0536C61.521 43.0536 61.3106 43.2277 61.1589 43.4416L61.114 43.505C61.0385 43.6163 60.9702 43.6393 60.8571 43.6393C60.7359 43.6393 60.568 43.5765 60.5583 43.505C60.5583 43.4878 60.568 43.4247 60.5855 43.3804L60.8429 42.7093C60.8923 42.5685 60.932 42.563 61.1315 42.563H65.0428C65.1712 42.563 65.1773 42.5684 65.2334 42.5912C65.2607 42.6021 65.2809 42.6423 65.3099 42.7092L65.5885 43.4131C65.6 43.4474 65.6158 43.4877 65.6116 43.5049C65.6004 43.5719 65.432 43.6393 65.2992 43.6393V43.6393Z" fill="#00674B"/>
<path d="M22.2706 43.7754C22.2037 43.6278 22.1759 43.5092 22.1601 43.4186H22.1261C22.1041 43.5052 22.0474 43.6333 21.9856 43.7754L21.5631 44.7229L21.4796 44.8553L21.6248 44.8411H22.6557L22.7729 44.8553L22.7001 44.7229L22.2706 43.7754V43.7754Z" fill="#00674B"/>
<path d="M6.93457 21.9051C7.23995 22.7444 7.54619 23.0071 8.17981 23.0071C8.46421 23.0071 8.74729 22.899 8.92184 22.7655C9.09594 22.5891 9.16209 22.4337 9.35892 21.9051L11.4993 15.8514L13.5086 21.9051C13.77 22.7209 14.0981 23.0071 14.7528 23.0071C15.4081 23.0071 15.6927 22.6998 16.0198 21.6171L19.4917 10.2854C19.735 9.5091 19.8871 9.3004 20.3421 9.20313H20.4615C20.6156 9.20313 20.7677 9.31342 20.8339 9.4897C20.8987 9.64354 20.8987 9.75426 20.8987 10.352V20.2701C20.8987 20.8644 20.8987 20.9745 20.8339 21.1519C20.789 21.3065 20.6156 21.4177 20.4615 21.4177H20.025C19.7199 21.4177 19.4575 21.7052 19.4575 22.0358C19.4575 22.5222 19.7199 22.6765 20.4615 22.6765H24.4368C25.1362 22.6765 25.3763 22.5224 25.3763 22.0581C25.3763 21.7052 25.1581 21.4177 24.8529 21.4177H24.4368C24.2615 21.4177 24.0871 21.3065 24.0224 21.1519C23.9777 20.9745 23.9561 20.8442 23.9561 20.2701V16.2271C23.9561 15.2114 24.0441 15.1225 24.8529 15.1225H27.8221C28.2577 15.1225 28.4771 15.1891 28.5853 15.3227C28.696 15.4544 28.696 15.5434 28.696 16.3606V20.2705C28.696 20.8447 28.696 20.9749 28.6303 21.1524C28.565 21.3069 28.3889 21.4181 28.2369 21.4181H27.8221C27.5153 21.4181 27.2539 21.7057 27.2539 22.0362C27.2539 22.5227 27.4949 22.6769 28.2369 22.6769H32.211C32.9771 22.6769 33.216 22.5228 33.216 22.0362C33.216 21.7057 32.9771 21.4181 32.6491 21.4181H32.2109C32.0577 21.4181 31.8844 21.3069 31.8389 21.1524C31.7744 20.9749 31.7541 20.8447 31.7541 20.2705V10.3524C31.7541 9.79985 31.7745 9.64398 31.8389 9.49014C31.8842 9.33528 32.0577 9.20357 32.2109 9.20357H32.6491C32.9539 9.20357 33.216 8.93828 33.216 8.58544C33.216 8.099 32.9539 7.94385 32.211 7.94385H28.2369C27.4949 7.94385 27.2315 8.09886 27.2315 8.58544C27.2315 8.93828 27.4949 9.20357 27.8222 9.20357H28.237C28.389 9.20357 28.5651 9.31386 28.6304 9.49014C28.6961 9.64398 28.6961 9.77756 28.6961 10.3524V13.6203H23.9563V10.3524C23.9563 9.79985 23.9778 9.64398 24.0225 9.49014C24.0872 9.33528 24.2616 9.20357 24.4369 9.20357H24.853C25.1582 9.20357 25.3972 8.93828 25.3972 8.58544C25.3972 8.099 25.1582 7.94385 24.4369 7.94385H17.221C16.6318 7.94385 16.3911 8.12086 16.3911 8.56243C16.3911 8.91586 16.6094 9.13729 17.0893 9.18042C17.6138 9.2454 17.8539 9.42342 17.8539 9.7547C17.8539 9.88785 17.8319 10.0633 17.7666 10.2857L15.1899 18.7461L12.5913 10.6604C12.4159 10.1309 12.3727 9.93228 12.3727 9.73314C12.3727 9.33528 12.5252 9.20358 13.1145 9.13744C13.5954 9.07071 13.8145 8.89313 13.8145 8.5397C13.8145 8.14315 13.5739 7.94399 13.0721 7.94399H8.79144C8.2888 7.94399 8.02568 8.18555 8.02568 8.60527C8.02568 8.93829 8.2008 9.09286 8.6593 9.20357C9.16209 9.33528 9.3372 9.44585 9.46746 9.77771C9.51132 9.86556 9.55604 10.0411 9.6423 10.2859L10.6466 13.2457L8.61632 18.9663L5.66819 10.6603L5.49306 10.1529C5.42794 9.97512 5.40522 9.82012 5.40522 9.66758C5.40522 9.31357 5.60234 9.15798 6.0827 9.11427C6.65046 9.07041 6.86944 8.91585 6.86944 8.53941C6.86944 8.14286 6.65047 7.9437 6.14884 7.9437H1.6485C1.14643 7.9437 0.906616 8.14286 0.906616 8.51784C0.906616 8.87142 1.05974 9.02599 1.51897 9.11427C2.2167 9.27 2.32598 9.38014 2.65422 10.2856L6.93457 21.9051V21.9051Z" fill="#00674B"/>
<path d="M21.9042 39.7346C25.5987 39.7346 28.1639 37.6292 28.9194 34.1935C29.655 37.6008 32.2124 39.7346 35.839 39.7346C40.2735 39.7346 43.0893 36.707 43.0893 31.9798C43.0893 27.3397 40.2735 24.3577 35.8816 24.3577C32.2272 24.3577 29.6846 26.445 28.9327 29.8717C28.1972 26.458 25.6288 24.3577 21.9491 24.3577C17.5586 24.3577 14.7625 27.3629 14.7625 32.0901C14.7625 36.707 17.5803 39.7346 21.9042 39.7346V39.7346ZM35.8606 25.927C38.2852 25.927 39.8135 28.2893 39.8135 32.09C39.8135 35.8014 38.3063 38.1433 35.9054 38.1433C33.4371 38.1433 31.9723 35.8913 31.9723 32.1114C31.9723 28.2687 33.4372 25.927 35.8606 25.927V25.927ZM21.9258 25.927C24.3504 25.927 25.8788 28.2893 25.8788 32.09C25.8788 35.8014 24.3722 38.1433 21.9698 38.1433C19.5017 38.1433 18.0381 35.8913 18.0381 32.1114C18.0381 28.2687 19.5017 25.927 21.9258 25.927V25.927Z" fill="#00674B"/>
</svg>
