<?xml version="1.0" encoding="utf-8"?>
<!-- Generator: Adobe Illustrator 26.5.2, SVG Export Plug-In . SVG Version: 6.00 Build 0)  -->
<svg version="1.1" id="_x31_0015.io" xmlns="http://www.w3.org/2000/svg" xmlns:xlink="http://www.w3.org/1999/xlink" x="0px"
	 y="0px" viewBox="0 0 480 480" style="enable-background:new 0 0 480 480;" xml:space="preserve">
<style type="text/css">
	.st0{fill:none;stroke:#474BFF;stroke-miterlimit:10;}
	.st1{fill:#474BFF;}
</style>
<path class="st0" d="M118.6,434.2c-21-12.2-32.6-34.5-34.3-66.4c-2.2-41.6-13-80.6-31.9-116.2c-20.2-37.9-15.9-76.5,12.7-114.8
	C93.2,99.2,127,77.4,165.6,72.1c37.1-5.1,72.4-11.7,105-19.5c33.3-8,70.8-7.6,111.5,1.1c10.7,2.3,20.4,5.9,28.7,10.7
	c24.1,13.9,38.2,38.6,41.8,73.4c4.9,46.5-8.7,87.7-40.3,122.2c-30,32.8-53.5,67.2-69.9,102.3c-17.3,37.1-45.1,61.8-82.6,73.4
	c-36.6,11.3-74.4,14-112.5,8.2C136.3,442.1,126.7,438.9,118.6,434.2z"/>
<path class="st1" d="M338.5,360.6c-16.7,35.8-43.1,59.2-79.3,70.4s-73,13.8-110.7,8.1c-37.6-5.7-57.6-29.8-59.9-72.3
	c-2.3-42.4-13.1-81.8-32.4-118s-15.3-72.7,12-109.2S128,82,165.4,76.8c37.4-5.2,72.6-11.7,105.4-19.6s69.4-7.5,109.7,1.1
	s62.9,35.5,67.6,80.6c4.7,45.1-8.2,84.4-38.7,117.8S355.2,324.8,338.5,360.6z"/>
</svg>
