<svg width="18" height="20" viewBox="0 0 18 20" fill="none" xmlns="http://www.w3.org/2000/svg">
<path fill-rule="evenodd" clip-rule="evenodd" d="M11.7282 0.0903381C11.8677 0.167951 11.9771 0.290027 12.0391 0.437092C12.101 0.584156 12.112 0.747737 12.0701 0.901739L10.173 7.85674H17.0947C17.2339 7.85675 17.3701 7.89743 17.4865 7.97378C17.6028 8.05014 17.6944 8.15883 17.7498 8.28651C17.8053 8.41419 17.8222 8.55529 17.7985 8.69246C17.7749 8.82963 17.7116 8.95689 17.6166 9.05861L7.61694 19.7725C7.50803 19.8895 7.36304 19.9665 7.20517 19.9913C7.0473 20.0162 6.88567 19.9873 6.74613 19.9094C6.60659 19.8315 6.4972 19.7091 6.43546 19.5617C6.37371 19.4143 6.36319 19.2505 6.40556 19.0964L8.30263 12.1423H1.38096C1.24177 12.1423 1.10561 12.1016 0.98922 12.0253C0.872833 11.9489 0.781292 11.8402 0.72585 11.7125C0.670408 11.5849 0.653481 11.4438 0.67715 11.3066C0.700819 11.1694 0.764053 11.0422 0.859078 10.9404L10.8587 0.226524C10.9677 0.11 11.1124 0.0332854 11.27 0.0086042C11.4276 -0.0160769 11.5889 0.0126961 11.7282 0.0903381Z" fill="#FF26C9"/>
</svg>
