<svg width="20" height="20" viewBox="0 0 20 20" fill="none" xmlns="http://www.w3.org/2000/svg">
<path fill-rule="evenodd" clip-rule="evenodd" d="M10.9149 0.305073C10.8539 0.223345 10.7771 0.154745 10.689 0.103368C10.6009 0.0519916 10.5034 0.0188922 10.4022 0.00604635C10.301 -0.00679954 10.1983 0.00087148 10.1002 0.0286015C10.0021 0.0563315 9.91052 0.103552 9.83104 0.167443C7.8914 1.7247 6.6121 3.95759 6.24963 6.41846C5.58478 5.93584 5.00215 5.34911 4.5242 4.68089C4.45926 4.59011 4.37511 4.51478 4.27772 4.46025C4.18034 4.40572 4.07213 4.37334 3.9608 4.36542C3.84948 4.3575 3.73777 4.37422 3.63365 4.41441C3.52952 4.45459 3.43554 4.51724 3.3584 4.5979C2.02174 5.99588 1.16482 7.78309 0.91179 9.70063C0.658757 11.6182 1.02274 13.5665 1.95102 15.2633C2.8793 16.9602 4.32367 18.3175 6.0749 19.1386C7.82614 19.9597 9.7933 20.2019 11.6914 19.8303C13.5895 19.4586 15.3201 18.4924 16.6323 17.0714C17.9446 15.6505 18.7704 13.8488 18.9902 11.9271C19.21 10.0055 18.8123 8.06376 17.8548 6.38324C16.8973 4.70271 15.4296 3.37065 13.6644 2.58001C12.5793 2.05233 11.6364 1.27222 10.9149 0.305073ZM13.7353 12.4124C13.7349 12.9614 13.6154 13.5037 13.3851 14.002C13.1548 14.5002 12.8192 14.9426 12.4013 15.2986C11.9835 15.6546 11.4933 15.9157 10.9648 16.0639C10.4362 16.212 9.88183 16.2438 9.33981 16.1569C8.7978 16.0701 8.28108 15.8667 7.82531 15.5607C7.36953 15.2548 6.98556 14.8536 6.69987 14.3849C6.41418 13.9162 6.23358 13.391 6.17052 12.8457C6.10747 12.3004 6.16346 11.7479 6.33464 11.2264C6.97017 11.697 7.70082 12.0461 8.4932 12.2384C8.70825 10.8533 9.39667 9.58553 10.4413 8.6509C11.3529 8.77229 12.1894 9.22061 12.7953 9.9125C13.4012 10.6044 13.7352 11.4928 13.7353 12.4124Z" fill="#FF8C47"/>
</svg>
