<svg width="20" height="20" viewBox="0 0 20 20" fill="none" xmlns="http://www.w3.org/2000/svg">
<path d="M7.24138 1.44859C6.78411 1.44859 6.34557 1.63813 6.02223 1.97553C5.69889 2.31293 5.51724 2.77054 5.51724 3.24769C5.51724 3.72484 5.69889 4.18245 6.02223 4.51984C6.34557 4.85724 6.78411 5.04679 7.24138 5.04679H8.96552V9.36463H1.72414C1.26687 9.36463 0.828327 9.17508 0.504988 8.83768C0.18165 8.50029 0 8.04268 0 7.56553V6.84589C0 5.85182 0.772414 5.04679 1.72414 5.04679H4.66023C4.21316 4.35378 4.04004 3.5073 4.17704 2.68422C4.31404 1.86115 4.75056 1.12516 5.3954 0.630048C6.04023 0.134934 6.84348 -0.0809966 7.6373 0.027375C8.43113 0.135747 9.15411 0.560036 9.65517 1.21159C10.1562 0.560036 10.8792 0.135747 11.673 0.027375C12.4669 -0.0809966 13.2701 0.134934 13.9149 0.630048C14.5598 1.12516 14.9963 1.86115 15.1333 2.68422C15.2703 3.5073 15.0972 4.35378 14.6501 5.04679H18.2759C19.2276 5.04679 20 5.85278 20 6.84589V7.56553C20 8.55959 19.2276 9.36463 18.2759 9.36463H10.3448V5.04679H12.069C12.41 5.04679 12.7433 4.94127 13.0268 4.74358C13.3104 4.5459 13.5314 4.26492 13.6619 3.93617C13.7924 3.60743 13.8265 3.24569 13.76 2.8967C13.6934 2.54771 13.5292 2.22714 13.2881 1.97553C13.047 1.72392 12.7398 1.55257 12.4053 1.48316C12.0709 1.41374 11.7242 1.44937 11.4092 1.58553C11.0941 1.7217 10.8248 1.9523 10.6354 2.24816C10.4459 2.54402 10.3448 2.89186 10.3448 3.24769V5.04679H8.96552V3.24769C8.96552 2.25362 8.1931 1.44859 7.24138 1.44859ZM8.96552 10.8039H1.37931V17.2807C1.37931 17.8533 1.59729 18.4024 1.9853 18.8073C2.3733 19.2121 2.89955 19.4396 3.44828 19.4396H8.96552V10.8039ZM10.3448 10.8039V19.4396H16.5517C17.1004 19.4396 17.6267 19.2121 18.0147 18.8073C18.4027 18.4024 18.6207 17.8533 18.6207 17.2807V10.8039H10.3448Z" fill="#FF8C47"/>
</svg>
