<svg width="16" height="20" viewBox="0 0 16 20" xmlns="http://www.w3.org/2000/svg">
<path d="M7.83507 1.85275e-07C6.22134 -0.000362434 4.65256 0.531573 3.37187 1.51336C2.09117 2.49515 1.17008 3.87197 0.751357 5.43042C0.332631 6.98887 0.439655 8.64192 1.05584 10.1334C1.67202 11.6248 2.76296 12.8714 4.15956 13.6798C4.76933 14.0336 5.15066 14.5758 5.16755 15.1225C5.17221 15.2689 5.22497 15.4097 5.31767 15.5231C5.41038 15.6366 5.53787 15.7163 5.68043 15.75C5.99331 15.8238 6.31153 15.8816 6.63508 15.9233C6.92219 15.9598 7.16841 15.7296 7.16841 15.4398V11.2967C6.88753 11.2658 6.60921 11.2151 6.33553 11.1447C6.25073 11.1229 6.17105 11.0846 6.10106 11.032C6.03106 10.9793 5.97212 10.9135 5.92759 10.8381C5.88306 10.7627 5.85381 10.6792 5.84153 10.5925C5.82924 10.5058 5.83415 10.4176 5.85598 10.3327C5.87781 10.2479 5.91613 10.1683 5.96875 10.0983C6.02137 10.0283 6.08726 9.96933 6.16266 9.9248C6.23806 9.88027 6.32149 9.85103 6.40819 9.83874C6.49489 9.82646 6.58317 9.83137 6.66797 9.8532C7.43353 10.0505 8.2366 10.0505 9.00216 9.8532C9.08782 9.82852 9.17756 9.82126 9.26606 9.83187C9.35457 9.84248 9.44006 9.87073 9.51746 9.91495C9.59486 9.95917 9.6626 10.0185 9.71669 10.0893C9.77077 10.1602 9.81009 10.2412 9.83233 10.3275C9.85456 10.4138 9.85926 10.5037 9.84614 10.5919C9.83302 10.6801 9.80235 10.7647 9.75594 10.8408C9.70954 10.9169 9.64834 10.983 9.57597 11.035C9.5036 11.0871 9.42152 11.1241 9.3346 11.1438C9.06095 11.2145 8.78262 11.2656 8.50172 11.2967V15.4389C8.50172 15.7296 8.74794 15.9598 9.03505 15.9233C9.3586 15.8816 9.67682 15.8238 9.9897 15.75C10.1323 15.7163 10.2598 15.6366 10.3525 15.5231C10.4452 15.4097 10.4979 15.2689 10.5026 15.1225C10.5204 14.5758 10.9008 14.0336 11.5106 13.6798C12.9072 12.8714 13.9981 11.6248 14.6143 10.1334C15.2305 8.64192 15.3375 6.98887 14.9188 5.43042C14.5 3.87197 13.579 2.49515 12.2983 1.51336C11.0176 0.531573 9.44879 -0.000362434 7.83507 1.85275e-07Z"/>
<path fill-rule="evenodd" clip-rule="evenodd" d="M5.17979 17.0221C5.19612 16.936 5.22923 16.8541 5.27725 16.7808C5.32526 16.7076 5.38723 16.6445 5.45963 16.5952C5.53202 16.546 5.61341 16.5114 5.69915 16.4936C5.7849 16.4758 5.87331 16.4751 5.95934 16.4914C7.19864 16.7266 8.4711 16.7266 9.7104 16.4914C9.79748 16.4722 9.88752 16.4707 9.97519 16.487C10.0629 16.5032 10.1464 16.5369 10.2208 16.586C10.2952 16.6351 10.3591 16.6986 10.4085 16.7728C10.458 16.847 10.492 16.9304 10.5087 17.018C10.5253 17.1056 10.5242 17.1956 10.5055 17.2828C10.4867 17.37 10.4506 17.4525 10.3994 17.5255C10.3482 17.5985 10.2828 17.6604 10.2072 17.7077C10.1316 17.755 10.0473 17.7866 9.95928 17.8007C8.55553 18.0671 7.1142 18.0671 5.71045 17.8007C5.53687 17.7678 5.38348 17.6672 5.28398 17.5212C5.18448 17.3752 5.14701 17.1957 5.17979 17.0221ZM5.83845 19.1945C5.84755 19.1074 5.87371 19.023 5.91545 18.946C5.95718 18.869 6.01367 18.801 6.08168 18.7459C6.1497 18.6908 6.22791 18.6496 6.31184 18.6247C6.39578 18.5997 6.48381 18.5916 6.57089 18.6007C7.41125 18.6885 8.25848 18.6885 9.09885 18.6007C9.27472 18.5823 9.45068 18.6346 9.58804 18.7459C9.7254 18.8573 9.8129 19.0186 9.83129 19.1945C9.84967 19.3704 9.79745 19.5463 9.68609 19.6837C9.57474 19.821 9.41338 19.9085 9.23752 19.9269C8.30497 20.0246 7.36477 20.0246 6.43222 19.9269C6.34514 19.9178 6.2607 19.8917 6.18373 19.8499C6.10676 19.8082 6.03876 19.7517 5.98363 19.6837C5.92849 19.6157 5.88729 19.5375 5.86238 19.4535C5.83747 19.3696 5.82934 19.2816 5.83845 19.1945Z"/>
</svg>
