<svg width="20" height="20" viewBox="0 0 20 20" fill="none" xmlns="http://www.w3.org/2000/svg">
<path fill-rule="evenodd" clip-rule="evenodd" d="M6.161 0.580022C6.42148 0.449691 6.70874 0.381836 7 0.381836C7.29126 0.381836 7.57852 0.449691 7.839 0.580022L12.832 3.07802C12.938 3.13002 13.062 3.13002 13.168 3.07802L17.037 1.14302C17.3228 1.00021 17.6404 0.932823 17.9596 0.947247C18.2788 0.961671 18.5891 1.05743 18.8609 1.22544C19.1327 1.39344 19.357 1.62812 19.5126 1.9072C19.6682 2.18628 19.7499 2.50049 19.75 2.82002V15.305C19.75 16.015 19.349 16.665 18.713 16.982L13.838 19.419C13.5778 19.549 13.2909 19.6167 13 19.6167C12.7091 19.6167 12.4222 19.549 12.162 19.419L7.168 16.922C7.11585 16.8959 7.05833 16.8823 7 16.8823C6.94167 16.8823 6.88415 16.8959 6.832 16.922L2.964 18.857C2.67812 19.0001 2.36042 19.0676 2.04107 19.0533C1.72173 19.039 1.41134 18.9433 1.1394 18.7753C0.86746 18.6072 0.642996 18.3725 0.487331 18.0933C0.331665 17.8141 0.249968 17.4997 0.25 17.18V4.69502C0.25 3.98502 0.651 3.33502 1.286 3.01802L6.161 0.581023V0.580022ZM7 4.00002C7.19891 4.00002 7.38968 4.07904 7.53033 4.21969C7.67098 4.36034 7.75 4.55111 7.75 4.75002V13C7.75 13.1989 7.67098 13.3897 7.53033 13.5304C7.38968 13.671 7.19891 13.75 7 13.75C6.80109 13.75 6.61032 13.671 6.46967 13.5304C6.32902 13.3897 6.25 13.1989 6.25 13V4.75002C6.25 4.55111 6.32902 4.36034 6.46967 4.21969C6.61032 4.07904 6.80109 4.00002 7 4.00002ZM13.75 7.00002C13.75 6.80111 13.671 6.61034 13.5303 6.46969C13.3897 6.32904 13.1989 6.25002 13 6.25002C12.8011 6.25002 12.6103 6.32904 12.4697 6.46969C12.329 6.61034 12.25 6.80111 12.25 7.00002V15.25C12.25 15.4489 12.329 15.6397 12.4697 15.7804C12.6103 15.921 12.8011 16 13 16C13.1989 16 13.3897 15.921 13.5303 15.7804C13.671 15.6397 13.75 15.4489 13.75 15.25V7.00002Z" fill="#3091C2"/>
</svg>
