<svg width="20" height="20" viewBox="0 0 20 20" xmlns="http://www.w3.org/2000/svg">
<path fill-rule="evenodd" clip-rule="evenodd" d="M7.44286 5.79429C10.1857 2.26952 14.4714 0 19.2857 0C19.4752 0 19.6568 0.0752549 19.7908 0.209209C19.9247 0.343164 20 0.524845 20 0.714286C20 5.52952 17.7305 9.81429 14.2057 12.5581C14.3523 13.4764 14.2979 14.4156 14.0463 15.3109C13.7947 16.2061 13.3518 17.0361 12.7482 17.7436C12.1447 18.4511 11.3948 19.0192 10.5504 19.4088C9.70598 19.7983 8.78709 20.0001 7.85714 20C7.6677 20 7.48602 19.9247 7.35207 19.7908C7.21811 19.6568 7.14286 19.4752 7.14286 19.2857V15.3514C6.21707 14.6204 5.38024 13.7832 4.64952 12.8571H0.714286C0.524845 12.8571 0.343164 12.7819 0.209209 12.6479C0.0752549 12.514 2.10459e-08 12.3323 2.10459e-08 12.1429C-7.52306e-05 11.2128 0.201652 10.2938 0.59126 9.44932C0.980868 8.60482 1.54908 7.85491 2.25668 7.25134C2.96427 6.64778 3.79441 6.20494 4.68978 5.95338C5.58516 5.70183 6.52446 5.64755 7.44286 5.79429ZM12.8571 5C12.2888 5 11.7438 5.22576 11.3419 5.62763C10.9401 6.02949 10.7143 6.57454 10.7143 7.14286C10.7143 7.71118 10.9401 8.25622 11.3419 8.65809C11.7438 9.05995 12.2888 9.28571 12.8571 9.28571C13.4255 9.28571 13.9705 9.05995 14.3724 8.65809C14.7742 8.25622 15 7.71118 15 7.14286C15 6.57454 14.7742 6.02949 14.3724 5.62763C13.9705 5.22576 13.4255 5 12.8571 5Z"/>
<path d="M3.58099 14.9923C3.65622 14.9362 3.71966 14.8658 3.7677 14.7852C3.81574 14.7046 3.84742 14.6153 3.86096 14.5224C3.87449 14.4296 3.86959 14.335 3.84656 14.244C3.82353 14.153 3.7828 14.0675 3.72671 13.9923C3.67061 13.917 3.60025 13.8536 3.51964 13.8056C3.43903 13.7575 3.34974 13.7258 3.25688 13.7123C3.16403 13.6988 3.06941 13.7037 2.97844 13.7267C2.88747 13.7497 2.80193 13.7905 2.72671 13.8466C1.99612 14.39 1.42805 15.1229 1.08393 15.9659C0.739808 16.8089 0.632746 17.7299 0.774325 18.6294C0.797349 18.7792 0.867433 18.9178 0.974439 19.0252C1.08144 19.1325 1.21982 19.203 1.36956 19.2266C2.26912 19.368 3.19023 19.2608 4.03325 18.9165C4.87627 18.5722 5.60909 18.004 6.15242 17.2732C6.21032 17.1982 6.25271 17.1124 6.27712 17.0208C6.30153 16.9292 6.30748 16.8337 6.29461 16.7398C6.28174 16.6459 6.25031 16.5555 6.20216 16.4739C6.15401 16.3923 6.09009 16.3211 6.01414 16.2644C5.93818 16.2077 5.85171 16.1667 5.75975 16.1438C5.6678 16.1208 5.5722 16.1164 5.47852 16.1308C5.38485 16.1452 5.29497 16.1781 5.21413 16.2276C5.13329 16.277 5.06311 16.3421 5.00766 16.4189C4.67553 16.8656 4.24344 17.2283 3.74599 17.478C3.24853 17.7278 2.69952 17.8576 2.1429 17.857C2.1429 16.6856 2.70671 15.6446 3.58099 14.9923Z"/>
</svg>
