<svg width="20" height="20" viewBox="0 0 20 20" xmlns="http://www.w3.org/2000/svg">
<path fill-rule="evenodd" clip-rule="evenodd" d="M10 0C4.47692 0 0 4.47692 0 10C0 15.5231 4.47692 20 10 20C15.5231 20 20 15.5231 20 10C20 4.47692 15.5231 0 10 0ZM7.30769 6.15385C6.75385 6.15385 6.45846 6.58359 6.34769 6.8041C6.2161 7.08148 6.14979 7.38532 6.15385 7.69231C6.15385 7.99795 6.21436 8.31282 6.34769 8.58051C6.45846 8.80103 6.75282 9.23077 7.30769 9.23077C7.86154 9.23077 8.15692 8.80103 8.26769 8.58051C8.40103 8.31385 8.46154 7.99795 8.46154 7.69231C8.46154 7.38667 8.40103 7.07179 8.26769 6.8041C8.15692 6.58359 7.86256 6.15385 7.30769 6.15385ZM11.7323 6.8041C11.8431 6.58359 12.1374 6.15385 12.6923 6.15385C13.2462 6.15385 13.5415 6.58359 13.6523 6.8041C13.7856 7.07077 13.8462 7.38667 13.8462 7.69231C13.8462 7.99795 13.7856 8.31282 13.6523 8.58051C13.5415 8.80103 13.2472 9.23077 12.6923 9.23077C12.1385 9.23077 11.8431 8.80103 11.7323 8.58051C11.6007 8.30313 11.5344 7.99929 11.5385 7.69231C11.5385 7.38667 11.599 7.07179 11.7323 6.8041ZM13.8072 13.8072C13.8828 13.7368 13.9434 13.6518 13.9854 13.5575C14.0275 13.4631 14.0501 13.3613 14.0519 13.258C14.0537 13.1547 14.0347 13.0521 13.996 12.9563C13.9573 12.8605 13.8998 12.7735 13.8267 12.7005C13.7537 12.6274 13.6667 12.5698 13.5709 12.5312C13.4751 12.4925 13.3725 12.4735 13.2692 12.4753C13.1659 12.4771 13.0641 12.4997 12.9697 12.5418C12.8753 12.5838 12.7904 12.6444 12.72 12.72C12.3628 13.0773 11.9388 13.3607 11.4721 13.554C11.0054 13.7474 10.5052 13.8469 10 13.8469C9.49483 13.8469 8.99461 13.7474 8.52791 13.554C8.0612 13.3607 7.63716 13.0773 7.28 12.72C7.13418 12.5841 6.94131 12.5102 6.74203 12.5137C6.54275 12.5172 6.35261 12.5979 6.21167 12.7388C6.07073 12.8798 5.99 13.0699 5.98649 13.2692C5.98297 13.4685 6.05694 13.6614 6.19282 13.8072C7.20261 14.8168 8.57207 15.384 10 15.384C11.4279 15.384 12.7974 14.8168 13.8072 13.8072Z"/>
</svg>
