<svg width="20" height="20" viewBox="0 0 20 20" fill="none" xmlns="http://www.w3.org/2000/svg">
<path fill-rule="evenodd" clip-rule="evenodd" d="M7.14195 2.85699C7.29715 2.85702 7.44811 2.9076 7.572 3.00107C7.69589 3.09455 7.78596 3.22583 7.82858 3.37506L8.60283 6.08538C8.76953 6.66908 9.08227 7.20066 9.51152 7.6299C9.94076 8.05914 10.4723 8.37188 11.056 8.53858L13.7664 9.31283C13.9155 9.35555 14.0467 9.44566 14.14 9.56954C14.2334 9.69342 14.2839 9.84433 14.2839 9.99946C14.2839 10.1546 14.2334 10.3055 14.14 10.4294C14.0467 10.5533 13.9155 10.6434 13.7664 10.6861L11.056 11.4603C10.4723 11.627 9.94076 11.9398 9.51152 12.369C9.08227 12.7983 8.76953 13.3298 8.60283 13.9135L7.82858 16.6239C7.78586 16.773 7.69575 16.9042 7.57187 16.9975C7.44799 17.0909 7.29708 17.1414 7.14195 17.1414C6.98683 17.1414 6.83592 17.0909 6.71204 16.9975C6.58816 16.9042 6.49805 16.773 6.45533 16.6239L5.68108 13.9135C5.51438 13.3298 5.20164 12.7983 4.7724 12.369C4.34315 11.9398 3.81158 11.627 3.22788 11.4603L0.517552 10.6861C0.368422 10.6434 0.237255 10.5533 0.14388 10.4294C0.0505052 10.3055 0 10.1546 0 9.99946C0 9.84433 0.0505052 9.69342 0.14388 9.56954C0.237255 9.44566 0.368422 9.35555 0.517552 9.31283L3.22788 8.53858C3.81158 8.37188 4.34315 8.05914 4.7724 7.6299C5.20164 7.20066 5.51438 6.66908 5.68108 6.08538L6.45533 3.37506C6.49795 3.22583 6.58802 3.09455 6.71191 3.00107C6.8358 2.9076 6.98676 2.85702 7.14195 2.85699ZM15.7129 1.10838e-07C15.8723 -8.86249e-05 16.0271 0.0531056 16.1527 0.151122C16.2783 0.249138 16.3675 0.386346 16.4062 0.540923L16.6519 1.52754C16.8767 2.42273 17.5757 3.12174 18.4709 3.34649L19.4575 3.59219C19.6124 3.63055 19.7499 3.71966 19.8482 3.84531C19.9466 3.97097 20 4.12593 20 4.28548C20 4.44504 19.9466 4.6 19.8482 4.72565C19.7499 4.8513 19.6124 4.94042 19.4575 4.97878L18.4709 5.22448C17.5757 5.44923 16.8767 6.14824 16.6519 7.04343L16.4062 8.03004C16.3679 8.18491 16.2787 8.32248 16.1531 8.42081C16.0274 8.51914 15.8725 8.57256 15.7129 8.57256C15.5534 8.57256 15.3984 8.51914 15.2728 8.42081C15.1471 8.32248 15.058 8.18491 15.0196 8.03004L14.7739 7.04343C14.664 6.60386 14.4367 6.20242 14.1164 5.88204C13.796 5.56165 13.3945 5.33437 12.955 5.22448L11.9684 4.97878C11.8135 4.94042 11.6759 4.8513 11.5776 4.72565C11.4793 4.6 11.4258 4.44504 11.4258 4.28548C11.4258 4.12593 11.4793 3.97097 11.5776 3.84531C11.6759 3.71966 11.8135 3.63055 11.9684 3.59219L12.955 3.34649C13.3945 3.2366 13.796 3.00931 14.1164 2.68893C14.4367 2.36854 14.664 1.9671 14.7739 1.52754L15.0196 0.540923C15.0583 0.386346 15.1475 0.249138 15.2732 0.151122C15.3988 0.0531056 15.5536 -8.86249e-05 15.7129 1.10838e-07ZM14.2844 12.8564C14.4344 12.8564 14.5807 12.9035 14.7024 12.9912C14.8241 13.0789 14.9151 13.2027 14.9625 13.345L15.3377 14.4716C15.4806 14.8973 15.8139 15.2325 16.2405 15.3744L17.3671 15.7506C17.509 15.7982 17.6323 15.8892 17.7197 16.0107C17.807 16.1322 17.854 16.278 17.854 16.4277C17.854 16.5773 17.807 16.7232 17.7197 16.8447C17.6323 16.9662 17.509 17.0572 17.3671 17.1048L16.2405 17.481C15.8148 17.6238 15.4796 17.9571 15.3377 18.3838L14.9615 19.5104C14.9139 19.6522 14.8229 19.7756 14.7014 19.8629C14.5799 19.9503 14.4341 19.9973 14.2844 19.9973C14.1348 19.9973 13.9889 19.9503 13.8674 19.8629C13.7459 19.7756 13.6549 19.6522 13.6073 19.5104L13.2311 18.3838C13.161 18.1736 13.0429 17.9826 12.8862 17.8259C12.7295 17.6692 12.5385 17.5511 12.3283 17.481L11.2017 17.1048C11.0599 17.0572 10.9366 16.9662 10.8492 16.8447C10.7618 16.7232 10.7148 16.5773 10.7148 16.4277C10.7148 16.278 10.7618 16.1322 10.8492 16.0107C10.9366 15.8892 11.0599 15.7982 11.2017 15.7506L12.3283 15.3744C12.754 15.2316 13.0893 14.8982 13.2311 14.4716L13.6073 13.345C13.6547 13.2028 13.7455 13.0792 13.8671 12.9915C13.9886 12.9038 14.1346 12.8566 14.2844 12.8564Z" fill="#FFAE00"/>
</svg>
