<?xml version="1.0" encoding="UTF-8" standalone="no"?>
<svg xmlns:dc="http://purl.org/dc/elements/1.1/" xmlns:cc="http://creativecommons.org/ns#" xmlns:rdf="http://www.w3.org/1999/02/22-rdf-syntax-ns#" xmlns:svg="http://www.w3.org/2000/svg" xmlns="http://www.w3.org/2000/svg" version="1.1" id="svg2" viewBox="0 0 645.65158 645.65158" height="182.21722mm" width="182.21722mm">
  <defs id="defs4"/>
  <metadata id="metadata7">
    <rdf:RDF>
      <cc:Work rdf:about="">
        <dc:format>image/svg+xml</dc:format>
        <dc:type rdf:resource="http://purl.org/dc/dcmitype/StillImage"/>
        <dc:title/>
      </cc:Work>
    </rdf:RDF>
  </metadata>
  <g transform="translate(-41.806556,-165.10712)" id="layer1">
    <g id="g4513" transform="matrix(3.2476301,0,0,-3.2476301,41.806556,810.75872)">
      <path id="path4517" style="fill:#2690ff;fill-opacity:1;fill-rule:nonzero;stroke:none" d="M 99.4035,198.807 C 44.5047,198.807 0,154.302 0,99.4035 0,44.5039 44.5047,0 99.4035,0 c 54.8995,0 99.4035,44.5039 99.4035,99.4035 0,54.8985 -44.504,99.4035 -99.4035,99.4035"/>
      <path id="path4519" style="fill:#ffffff;fill-opacity:1;fill-rule:nonzero;stroke:none" d="m 62.0793,145.312 c 6.5453,0 13.7145,-2.728 19.0129,-7.325 0.7023,-0.546 0.7797,-1.481 0.1566,-2.104 l -6.1562,-6.545 c -0.6231,-0.546 -1.4809,-0.546 -2.1039,-0.079 -2.9606,2.728 -6.3895,3.741 -10.2082,3.741 -8.4934,0 -15.3512,-7.17 -15.3512,-15.741 0,-8.495 6.9359,-15.507 15.4297,-15.507 2.2594,0 4.5973,0.311 6.9348,1.248 l 0,4.519 -4.9094,0 c -0.8571,0 -1.4801,0.622 -1.4801,1.402 l 0,7.715 c 0,0.857 0.623,1.48 1.4801,1.48 l 15.6625,0 c 0.7797,0 1.4035,-0.7 1.4035,-1.48 l 0.0773,-20.9622 c 0,-0.3886 -0.3117,-1.0117 -0.623,-1.2457 0,0 -8.0262,-5.066 -19.3254,-5.066 -15.507,0 -27.9746,12.3129 -27.9746,27.8969 0,15.585 12.4676,28.053 27.9746,28.053"/>
      <path id="path4521" style="fill:#ffffff;fill-opacity:1;fill-rule:nonzero;stroke:none" d="m 94.052,143.13 c 0,0.779 0.7011,1.481 1.4808,1.481 l 9.3512,0 c 0.779,0 1.48,-0.702 1.48,-1.481 l 0,-51.5859 c 0,-0.7781 -0.701,-1.48 -1.48,-1.48 l -9.3512,0 c -0.7797,0 -1.4808,0.7019 -1.4808,1.48 l 0,51.5859"/>
      <path id="path4523" style="fill:#ffffff;fill-opacity:1;fill-rule:nonzero;stroke:none" d="m 143.476,145.312 c 6.545,0 13.714,-2.728 19.013,-7.325 0.702,-0.546 0.779,-1.481 0.156,-2.104 l -6.156,-6.545 c -0.623,-0.546 -1.481,-0.546 -2.104,-0.079 -2.961,2.728 -6.389,3.741 -10.208,3.741 -8.494,0 -15.351,-7.17 -15.351,-15.741 0,-8.495 6.936,-15.507 15.429,-15.507 2.26,0 4.597,0.311 6.935,1.248 l 0,4.519 -4.909,0 c -0.857,0 -1.48,0.622 -1.48,1.402 l 0,7.715 c 0,0.857 0.623,1.48 1.48,1.48 l 15.662,0 c 0.78,0 1.404,-0.7 1.404,-1.48 l 0.077,-20.9622 c 0,-0.3886 -0.311,-1.0117 -0.623,-1.2457 0,0 -8.026,-5.066 -19.325,-5.066 -15.507,0 -27.975,12.3129 -27.975,27.8969 0,15.585 12.468,28.053 27.975,28.053"/>
      <path id="path4525" style="fill:#ffffff;fill-opacity:1;fill-rule:nonzero;stroke:none" d="m 44.0414,58.9371 1.7106,3.0211 c 0.2914,0.4727 0.9828,0.4 1.2375,0.218 0.146,-0.0731 2.7668,-2.0024 5.1691,-2.0024 1.4562,0 2.5117,0.9102 2.5117,2.1844 0,1.5289 -1.2742,2.6938 -3.7492,3.677 -3.1305,1.2367 -7.0617,3.6757 -7.0617,8.0437 0,3.6031 2.8027,7.243 8.4086,7.243 3.7851,0 6.6976,-1.9278 7.789,-2.7297 0.4371,-0.2543 0.3645,-0.9102 0.2188,-1.1641 L 58.4195,74.625 c -0.255,-0.4 -0.9101,-0.7281 -1.2379,-0.473 -0.3273,0.182 -2.9843,2.1839 -5.2046,2.1839 -1.311,0 -2.2934,-0.8738 -2.2934,-1.8558 0,-1.3469 1.0918,-2.3672 3.9672,-3.5313 2.8394,-1.1289 7.3531,-3.3488 7.3531,-8.3 0,-3.7488 -3.2398,-7.5347 -8.5906,-7.5347 -4.732,0 -7.3524,1.966 -8.1899,2.8039 -0.364,0.364 -0.4734,0.509 -0.182,1.0191"/>
      <path id="path4527" style="fill:#ffffff;fill-opacity:1;fill-rule:nonzero;stroke:none" d="m 78.6969,64.2141 -2.7664,6.007 -0.0364,0 -2.7304,-6.007 5.5332,0 z M 63.7363,56.425 75.1297,80.9219 c 0.109,0.2191 0.3637,0.4 0.6183,0.4 l 0.3645,0 c 0.2547,0 0.5094,-0.1809 0.6188,-0.4 L 88.1246,56.425 c 0.2184,-0.473 -0.0734,-0.9461 -0.6191,-0.9461 l -4.0403,0 c -0.655,0 -0.9464,0.218 -1.2742,0.9102 l -1.3101,2.875 -9.9008,0 -1.3106,-2.9121 C 69.4879,55.9148 69.0871,55.4789 68.359,55.4789 l -4.0039,0 c -0.5457,0 -0.8371,0.4731 -0.6188,0.9461"/>
      <path id="path4529" style="fill:#ffffff;fill-opacity:1;fill-rule:nonzero;stroke:none" d="m 92.75,80.2672 c 0,0.3637 0.2914,0.6918 0.6914,0.6918 l 4.332,0 c 0.3641,0 0.6914,-0.3281 0.6914,-0.6918 l 0,-19.4383 8.6632,0 c 0.401,0 0.691,-0.3269 0.691,-0.691 l 0,-3.968 c 0,-0.3629 -0.29,-0.691 -0.691,-0.691 l -13.6866,0 c -0.4,0 -0.6914,0.3281 -0.6914,0.691 l 0,24.0973"/>
      <path id="path4531" style="fill:#ffffff;fill-opacity:1;fill-rule:nonzero;stroke:none" d="m 125.258,64.2141 -2.767,6.007 -0.036,0 -2.73,-6.007 5.533,0 z M 110.297,56.425 121.69,80.9219 c 0.109,0.2191 0.364,0.4 0.619,0.4 l 0.364,0 c 0.255,0 0.51,-0.1809 0.619,-0.4 L 134.685,56.425 c 0.218,-0.473 -0.073,-0.9461 -0.619,-0.9461 l -4.04,0 c -0.655,0 -0.947,0.218 -1.274,0.9102 l -1.31,2.875 -9.901,0 -1.311,-2.9121 c -0.181,-0.4372 -0.583,-0.8731 -1.31,-0.8731 l -4.005,0 c -0.545,0 -0.837,0.4731 -0.618,0.9461"/>
      <path id="path4533" style="fill:#ffffff;fill-opacity:1;fill-rule:nonzero;stroke:none" d="m 147.501,60.866 c 4.113,0 7.098,3.2399 7.098,7.3891 0,4.1129 -2.985,7.3531 -7.098,7.3531 l -3.494,0 0,-14.7422 3.494,0 z m -9.173,19.4012 c 0,0.3637 0.291,0.6918 0.655,0.6918 l 8.882,0 c 7.025,0 12.776,-5.7149 12.776,-12.7039 0,-7.0621 -5.751,-12.7762 -12.776,-12.7762 l -8.882,0 c -0.364,0 -0.655,0.3281 -0.655,0.691 l 0,24.0973"/>
    </g>
  </g>
</svg>