<svg width="190" height="326" viewBox="0 0 190 326" fill="none" xmlns="http://www.w3.org/2000/svg">
<path fill-rule="evenodd" clip-rule="evenodd" d="M89.7545 326C139.326 326 179.509 321.447 179.509 315.831C179.509 310.214 139.326 305.661 89.7545 305.661C40.1835 305.661 0 310.217 0 315.831C0 321.445 40.1835 326 89.7545 326Z" fill="#F7F9FA"/>
<path fill-rule="evenodd" clip-rule="evenodd" d="M60.1826 71.5972L29.0558 76.9637C27.7715 77.1855 26.9062 78.4095 27.1284 79.691L30.4217 98.7107C30.6439 99.9922 31.8706 100.856 33.155 100.634L39.6022 99.5216C40.4574 99.3743 41.2667 99.6706 41.8215 100.336L43.4248 102.256L44.4903 103.532C45.0468 104.197 45.8544 104.494 46.7095 104.346C47.5646 104.199 48.2263 103.649 48.5266 102.836L49.1018 101.277L49.9671 98.9308C50.2674 98.1182 50.9274 97.568 51.7842 97.4207L64.2818 95.2657C65.5644 95.0439 66.4314 93.8199 66.2092 92.5384L62.9159 73.5187C62.6937 72.2371 61.467 71.3738 60.1843 71.5955L60.1826 71.5972Z" fill="#FFAE00"/>
<path fill-rule="evenodd" clip-rule="evenodd" d="M60.1826 71.5972L29.0558 76.9637C27.7715 77.1855 26.9062 78.4095 27.1284 79.691L30.4217 98.7107C30.6439 99.9922 31.8706 100.856 33.155 100.634L39.6022 99.5216C40.4574 99.3743 41.2667 99.6706 41.8215 100.336L43.4248 102.256L44.4903 103.532C45.0468 104.197 45.8544 104.494 46.7095 104.346C47.5646 104.199 48.2263 103.649 48.5266 102.836L49.1018 101.277L49.9671 98.9308C50.2674 98.1182 50.9274 97.568 51.7842 97.4207L64.2818 95.2657C65.5644 95.0439 66.4314 93.8199 66.2092 92.5384L62.9159 73.5187C62.6937 72.2371 61.467 71.3738 60.1843 71.5955L60.1826 71.5972Z" fill="white" fill-opacity="0.5"/>
<path fill-rule="evenodd" clip-rule="evenodd" d="M26.626 73.8116L57.7528 68.4451C58.4484 68.3249 59.1305 68.4992 59.6666 68.8768C60.2028 69.2543 60.5964 69.8366 60.7168 70.5307L64.01 89.5505C64.1305 90.2445 63.9558 90.9234 63.5774 91.4584C63.199 91.9933 62.6154 92.3861 61.9198 92.5063L55.4708 93.6185C55.0772 93.6862 54.7294 93.847 54.446 94.0807C54.1644 94.3143 53.9438 94.6275 53.8064 95.0016L52.3659 98.9071C52.2047 99.3456 51.9434 99.7163 51.6058 99.9956C51.2682 100.275 50.8576 100.465 50.3961 100.544C49.9346 100.624 49.4833 100.583 49.0727 100.432C48.6621 100.282 48.2906 100.021 47.9902 99.6621L45.3214 96.4643C45.0652 96.1595 44.753 95.9378 44.4086 95.8125C44.0642 95.6855 43.6824 95.6517 43.2888 95.7194L30.7913 97.8744C30.0957 97.9946 29.4136 97.8203 28.8774 97.4428C28.3413 97.0652 27.9477 96.4829 27.8272 95.7888L24.534 76.7691C24.4136 76.0767 24.5883 75.3961 24.9667 74.8612C25.3467 74.3245 25.9287 73.9318 26.6243 73.8133L26.626 73.8116ZM57.8207 68.8378L26.6939 74.2043C26.1068 74.3059 25.6131 74.6377 25.2941 75.088C24.9751 75.54 24.8275 76.1139 24.9276 76.7013L28.2208 95.7211C28.3226 96.3068 28.6552 96.7978 29.1082 97.1177C29.5612 97.436 30.1364 97.585 30.7234 97.4834L43.221 95.3283C43.6824 95.2488 44.1338 95.2894 44.5443 95.4401C44.9549 95.5907 45.3265 95.8514 45.6268 96.212L48.2956 99.4082C48.5501 99.7146 48.864 99.9347 49.2084 100.062C49.5529 100.189 49.9346 100.222 50.3282 100.155C50.7219 100.087 51.0697 99.9279 51.3513 99.6926C51.633 99.459 51.8535 99.1441 51.991 98.7717L53.4314 94.8679C53.5926 94.4277 53.8539 94.0586 54.1915 93.7776C54.5275 93.4983 54.9397 93.3087 55.4012 93.2291L61.8485 92.1169C62.4356 92.0153 62.9276 91.6835 63.2482 91.2332C63.5672 90.7795 63.7148 90.2056 63.6147 89.6199L60.3215 70.6001C60.2197 70.0144 59.8872 69.5234 59.4342 69.2035C58.9812 68.8852 58.406 68.7379 57.819 68.8378H57.8207Z" fill="#2F363C"/>
<path d="M30.5418 79.3509L30.5333 79.3035L53.6282 75.3218L53.6366 75.3692L30.5418 79.3509Z" fill="#2F363C"/>
<path d="M31.0816 82.4639L31.0731 82.4165L41.0596 80.6948L41.0681 80.7422L31.0816 82.4639Z" fill="#2F363C"/>
<path d="M32.2315 89.1087L32.223 89.0613L49.0759 86.1562L49.0844 86.2037L32.2315 89.1087Z" fill="#2F363C"/>
<path fill-rule="evenodd" clip-rule="evenodd" d="M157.377 67.7734L157.043 69.7033L158.979 70.0319L158.878 70.6126L156.944 70.2815L156.607 72.2089L156.025 72.11L156.359 70.1826L154.425 69.854L154.527 69.2733L156.461 69.602L156.795 67.6746L157.377 67.7734Z" fill="#2F363C"/>
<path fill-rule="evenodd" clip-rule="evenodd" d="M37.2297 48.4004L36.5338 50.229L38.3714 50.9184L38.1633 51.4694L36.3258 50.78L35.6299 52.6086L35.0776 52.401L35.771 50.5725L33.9335 49.8831L34.144 49.332L35.9815 50.0214L36.675 48.1929L37.2297 48.4004Z" fill="#2F363C"/>
<path fill-rule="evenodd" clip-rule="evenodd" d="M47.9426 5.06616C51.063 5.06616 53.116 7.58908 52.5316 10.7026C51.9471 13.8161 48.9431 16.339 45.8227 16.339C42.7024 16.339 40.6493 13.8161 41.2338 10.7026C41.8182 7.58908 44.8223 5.06616 47.9426 5.06616Z" fill="#FFAE00"/>
<path fill-rule="evenodd" clip-rule="evenodd" d="M47.9426 5.06616C51.063 5.06616 53.116 7.58908 52.5316 10.7026C51.9471 13.8161 48.9431 16.339 45.8227 16.339C42.7024 16.339 40.6493 13.8161 41.2338 10.7026C41.8182 7.58908 44.8223 5.06616 47.9426 5.06616Z" fill="white" fill-opacity="0.5"/>
<path fill-rule="evenodd" clip-rule="evenodd" d="M46.4295 6.54883C48.2522 6.54883 49.4533 8.02156 49.1091 9.84023C48.7673 11.6589 47.014 13.1341 45.1913 13.1341C43.3686 13.1341 42.1699 11.6589 42.5117 9.84023C42.8534 8.02156 44.6068 6.54883 46.4295 6.54883Z" fill="#FFAE00"/>
<path fill-rule="evenodd" clip-rule="evenodd" d="M42.5562 9.06925C42.945 8.13273 43.6632 7.36918 44.5077 6.89475C45.3522 6.42031 46.3254 6.23251 47.2219 6.44502C48.1209 6.65753 48.7772 7.23081 49.109 7.98447C49.1511 8.0759 49.1858 8.16979 49.218 8.26864L48.7945 8.28099L48.7549 8.18462C48.4577 7.5125 47.8708 7.001 47.0709 6.81073C46.2685 6.62046 45.4017 6.78849 44.6488 7.21104C43.896 7.63358 43.257 8.31558 42.9078 9.15079C42.7518 9.52639 42.6676 9.90198 42.6503 10.2628L42.2689 10.3221C42.2887 9.91681 42.3829 9.49179 42.5587 9.06925H42.5562ZM49.2799 9.94893L48.8787 10.0478C48.8366 10.2084 48.7846 10.369 48.7177 10.5296C48.4849 11.0881 48.1234 11.5773 47.6825 11.9653L47.8782 12.2495C48.3834 11.8096 48.8019 11.2512 49.0669 10.6136C49.1585 10.3912 49.2279 10.1689 49.2774 9.94893H49.2799ZM46.3997 13.1094C45.7459 13.3342 45.055 13.3911 44.4012 13.2354C43.5047 13.0229 42.8484 12.4496 42.5141 11.6984L42.8608 11.4785L42.8682 11.4958C43.1654 12.1679 43.7523 12.6794 44.5547 12.8697C45.1293 13.0056 45.741 12.9586 46.3155 12.7659L46.3997 13.1094Z" fill="#2F363C"/>
<path fill-rule="evenodd" clip-rule="evenodd" d="M46.9123 3.98145C48.5319 3.98145 49.8767 4.63874 50.741 5.69881C51.6028 6.75888 51.9867 8.22419 51.682 9.84271C51.3774 11.4612 50.4438 12.9241 49.1833 13.9841C47.9227 15.0442 46.3303 15.7015 44.7107 15.7015C43.0911 15.7015 41.7438 15.0442 40.882 13.9841C40.0177 12.9241 39.6363 11.4588 39.9409 9.84271C40.0871 9.07175 40.3718 8.33786 40.7706 7.66327L41.1173 7.76458C40.7334 8.40458 40.4561 9.10635 40.3174 9.84271C40.0326 11.3575 40.3917 12.7289 41.199 13.7197C42.0064 14.7106 43.2644 15.3259 44.7825 15.3259C46.3006 15.3259 47.789 14.7106 48.9703 13.7197C50.1491 12.7289 51.0233 11.3575 51.3081 9.84271C51.5929 8.32798 51.2363 6.95656 50.4289 5.96568C49.6216 4.9748 48.3635 4.35951 46.8454 4.35951H46.781L46.8504 3.98392H46.9148L46.9123 3.98145ZM42.784 5.42205L42.9326 5.73834C43.6879 5.16259 44.5547 4.74005 45.4636 4.5226L45.4487 4.15689C44.4927 4.38422 43.5839 4.82406 42.784 5.42205Z" fill="#2F363C"/>
<path fill-rule="evenodd" clip-rule="evenodd" d="M97.3396 292.105C92.3643 292.105 89.0879 296.131 90.0216 301.095C90.9552 306.059 95.7448 310.084 100.72 310.084C105.695 310.084 108.972 306.059 108.038 301.095C107.104 296.131 102.315 292.105 97.3396 292.105Z" fill="#FFAE00"/>
<path fill-rule="evenodd" clip-rule="evenodd" d="M97.3396 292.105C92.3643 292.105 89.0879 296.131 90.0216 301.095C90.9552 306.059 95.7448 310.084 100.72 310.084C105.695 310.084 108.972 306.059 108.038 301.095C107.104 296.131 102.315 292.105 97.3396 292.105Z" fill="white" fill-opacity="0.5"/>
<path fill-rule="evenodd" clip-rule="evenodd" d="M99.7519 294.47C96.8445 294.47 94.9301 296.82 95.4774 299.721C96.0223 302.622 98.8207 304.972 101.728 304.972C104.636 304.972 106.547 302.619 106.003 299.721C105.458 296.82 102.659 294.47 99.7519 294.47Z" fill="#FFAE00"/>
<path fill-rule="evenodd" clip-rule="evenodd" d="M105.933 298.49C105.311 296.998 104.165 295.78 102.82 295.024C101.475 294.267 99.9226 293.968 98.4887 294.309C97.0548 294.65 96.0097 295.565 95.4773 296.766C95.4129 296.911 95.3534 297.065 95.3039 297.218L95.9775 297.238L96.0419 297.084C96.5174 296.012 97.451 295.196 98.7289 294.895C100.007 294.591 101.394 294.858 102.592 295.533C103.793 296.207 104.814 297.292 105.368 298.626C105.619 299.227 105.752 299.825 105.779 300.4L106.389 300.492C106.359 299.842 106.208 299.17 105.928 298.493L105.933 298.49ZM95.2123 299.891L95.8512 300.05C95.9156 300.304 96.0023 300.561 96.1088 300.818C96.4802 301.708 97.0573 302.488 97.7581 303.109L97.4461 303.558C96.6387 302.857 95.9726 301.967 95.5491 300.949C95.4005 300.593 95.2891 300.24 95.2123 299.889V299.891ZM99.8037 304.932C100.846 305.291 101.951 305.382 102.991 305.135C104.422 304.796 105.467 303.882 106.002 302.684L105.448 302.333L105.435 302.36C104.96 303.432 104.026 304.248 102.748 304.549C101.829 304.767 100.856 304.69 99.9374 304.381L99.8037 304.93V304.932Z" fill="#2F363C"/>
<path fill-rule="evenodd" clip-rule="evenodd" d="M98.9815 290.376C96.396 290.376 94.2514 291.423 92.8744 293.113C91.4975 294.804 90.8883 297.141 91.3737 299.721C91.8591 302.301 93.3474 304.638 95.3584 306.328C97.3693 308.019 99.9102 309.066 102.493 309.066C105.076 309.066 107.223 308.019 108.6 306.328C109.977 304.638 110.586 302.301 110.101 299.721C109.871 298.493 109.412 297.319 108.779 296.244L108.226 296.405C108.838 297.428 109.281 298.547 109.499 299.718C109.955 302.133 109.383 304.322 108.095 305.903C106.807 307.485 104.799 308.463 102.379 308.463C99.9597 308.463 97.5823 307.485 95.7001 305.903C93.818 304.322 92.4262 302.135 91.9705 299.718C91.5173 297.302 92.0869 295.117 93.3747 293.533C94.6625 291.952 96.6709 290.971 99.0904 290.971H99.1945L99.0806 290.373H98.9765L98.9815 290.376ZM105.564 292.674L105.329 293.18C104.123 292.263 102.741 291.586 101.292 291.24L101.314 290.657C102.837 291.02 104.289 291.722 105.562 292.676L105.564 292.674Z" fill="#2F363C"/>
<path fill-rule="evenodd" clip-rule="evenodd" d="M181.491 293.442C178.373 293.442 176.32 295.965 176.904 299.076C177.489 302.187 180.49 304.71 183.61 304.71C186.731 304.71 188.781 302.187 188.197 299.076C187.612 295.965 184.611 293.442 181.491 293.442Z" fill="#FFAE00"/>
<path fill-rule="evenodd" clip-rule="evenodd" d="M181.491 293.442C178.373 293.442 176.32 295.965 176.904 299.076C177.489 302.187 180.49 304.71 183.61 304.71C186.731 304.71 188.781 302.187 188.197 299.076C187.612 295.965 184.611 293.442 181.491 293.442Z" fill="white" fill-opacity="0.5"/>
<path fill-rule="evenodd" clip-rule="evenodd" d="M183.001 294.922C181.181 294.922 179.98 296.395 180.322 298.214C180.663 300.032 182.417 301.505 184.239 301.505C186.062 301.505 187.261 300.032 186.919 298.214C186.577 296.398 184.824 294.922 183.001 294.922Z" fill="#FFAE00"/>
<path fill-rule="evenodd" clip-rule="evenodd" d="M186.875 297.443C186.486 296.506 185.768 295.745 184.923 295.271C184.079 294.796 183.105 294.609 182.209 294.824C181.31 295.036 180.656 295.609 180.322 296.363C180.28 296.454 180.245 296.551 180.215 296.647L180.639 296.659L180.678 296.563C180.975 295.891 181.56 295.379 182.362 295.192C183.165 295.001 184.032 295.169 184.784 295.592C185.537 296.015 186.176 296.694 186.525 297.529C186.681 297.905 186.766 298.28 186.783 298.641L187.164 298.698C187.144 298.293 187.05 297.868 186.875 297.445V297.443ZM180.156 298.32L180.557 298.419C180.599 298.579 180.651 298.74 180.718 298.901C180.951 299.459 181.312 299.948 181.751 300.336L181.555 300.621C181.047 300.181 180.631 299.622 180.366 298.985C180.275 298.762 180.205 298.54 180.156 298.32ZM183.033 301.48C183.687 301.705 184.378 301.762 185.032 301.606C185.929 301.394 186.585 300.821 186.919 300.069L186.572 299.85L186.565 299.867C186.268 300.539 185.681 301.05 184.881 301.238C184.306 301.374 183.697 301.327 183.12 301.132L183.036 301.478L183.033 301.48Z" fill="#2F363C"/>
<path fill-rule="evenodd" clip-rule="evenodd" d="M182.521 292.357C180.901 292.357 179.557 293.012 178.695 294.072C177.833 295.132 177.449 296.598 177.754 298.214C178.058 299.83 178.989 301.295 180.252 302.355C181.513 303.415 183.105 304.07 184.725 304.07C186.345 304.07 187.689 303.413 188.551 302.355C189.413 301.295 189.797 299.83 189.492 298.214C189.346 297.445 189.061 296.709 188.663 296.034L188.318 296.136C188.702 296.776 188.98 297.477 189.118 298.211C189.403 299.726 189.046 301.097 188.239 302.088C187.432 303.079 186.174 303.695 184.658 303.695C183.142 303.695 181.652 303.082 180.473 302.088C179.294 301.097 178.42 299.726 178.135 298.211C177.85 296.699 178.207 295.328 179.014 294.337C179.822 293.346 181.08 292.731 182.595 292.731H182.66L182.59 292.355H182.526L182.521 292.357ZM186.647 293.798L186.498 294.114C185.743 293.541 184.876 293.116 183.97 292.899L183.985 292.533C184.938 292.76 185.849 293.2 186.647 293.798Z" fill="#2F363C"/>
<path fill-rule="evenodd" clip-rule="evenodd" d="M132.54 262.332C132.837 262.322 133.145 262.307 133.452 262.287L133.417 261.922C133.117 261.941 132.82 261.954 132.53 261.966L132.189 261.978C131.332 262.008 130.643 262.03 130.106 261.998C128.281 261.894 128.157 261.099 128.367 257.387C128.58 253.656 130.051 249.643 131.815 246.458L131.475 246.312C129.697 249.532 128.216 253.589 128.001 257.365C127.773 261.378 127.924 262.24 130.084 262.361C130.641 262.394 131.334 262.369 132.198 262.342L132.54 262.329V262.332ZM134.883 262.149C135.492 262.067 136.079 261.956 136.612 261.805C137.865 261.45 138.816 260.871 139.026 259.955C139.586 257.513 136.998 257.4 135.69 257.491C136.337 257.017 137.429 256.174 138.459 255.176L138.102 255.025C136.562 256.478 134.91 257.597 134.9 257.602C134.843 257.642 134.811 257.711 134.824 257.785C134.841 257.884 134.935 257.953 135.034 257.936C135.046 257.936 139.284 257.185 138.665 259.876C138.491 260.639 137.637 261.136 136.508 261.457C136 261.6 135.44 261.709 134.858 261.788L134.881 262.154L134.883 262.149ZM132.629 245.079C133.033 244.439 133.442 243.849 133.848 243.317L133.551 243.1C133.14 243.636 132.728 244.232 132.322 244.874L132.629 245.077V245.079ZM134.462 242.559C134.734 242.242 135.002 241.958 135.262 241.706C136.082 240.915 136.817 240.473 137.357 240.505C137.483 240.513 137.6 240.547 137.701 240.611C140.215 242.181 134.727 251.877 134.581 252.134V252.139C134.536 252.21 134.549 252.299 134.606 252.361C134.675 252.433 134.794 252.435 134.866 252.361C134.878 252.349 139.536 247.723 140.599 250.3C140.834 250.871 140.715 251.526 140.381 252.203L140.671 252.393C141.069 251.608 141.218 250.839 140.938 250.16C139.985 247.839 136.906 250.083 135.423 251.355C136.792 248.763 140.212 241.741 137.897 240.295C137.741 240.199 137.568 240.147 137.379 240.135C136.73 240.098 135.901 240.577 135.009 241.439C134.734 241.704 134.455 242.003 134.167 242.336L134.464 242.554L134.462 242.559ZM139.583 253.98C139.806 253.718 140.012 253.451 140.198 253.182L139.876 253.043C139.7 253.293 139.504 253.54 139.294 253.787L139.583 253.98Z" fill="#2F363C"/>
<path fill-rule="evenodd" clip-rule="evenodd" d="M71.1751 15.4617C73.555 13.4255 76.9949 13.3341 78.8572 15.2566C80.7196 17.179 81.3412 20.4581 78.9612 22.4942C78.9439 22.509 71.398 27.8341 76.1554 35.4918C82.2748 45.3363 92.7083 48.7933 92.738 48.8007C95.4201 49.7026 96.4676 52.5814 95.0783 55.2303C93.689 57.8792 90.3878 59.2951 87.7082 58.3932C87.6686 58.3809 74.1296 53.896 66.4302 41.5087C57.3736 26.9346 71.133 15.4938 71.1727 15.4617H71.1751Z" fill="#2690FF"/>
<path fill-rule="evenodd" clip-rule="evenodd" d="M129.266 14.9773C126.931 12.8918 123.494 12.7262 121.589 14.6091C119.685 16.4921 118.996 19.7563 121.332 21.8418C121.349 21.8591 128.778 27.3399 123.86 34.8963C117.535 44.6098 107.027 47.8444 106.998 47.8543C104.298 48.6994 103.191 51.5559 104.524 54.2345C105.856 56.9131 109.125 58.3982 111.824 57.5531C111.864 57.5407 125.497 53.3424 133.454 41.1208C142.818 26.7419 129.303 15.0119 129.264 14.9798L129.266 14.9773Z" fill="#2690FF"/>
<path fill-rule="evenodd" clip-rule="evenodd" d="M98.8722 69.7896C91.2049 69.8539 85.0236 73.6395 85.0632 78.243C85.1028 82.8465 91.3485 86.5284 99.0133 86.4641C106.678 86.3999 112.862 82.6143 112.822 78.0107C112.783 73.4072 106.537 69.7254 98.8722 69.7896Z" fill="#2690FF"/>
<path fill-rule="evenodd" clip-rule="evenodd" d="M101.386 48.2026C92.6042 47.6837 84.875 54.4222 84.2039 63.1746L83.8349 68.0005C83.238 75.7867 89.1445 82.535 96.9554 82.9971L100.479 83.2047C108.29 83.6668 115.168 77.6721 115.764 69.8834L116.133 65.0575C116.802 56.3051 110.168 48.7191 101.386 48.2002V48.2026Z" fill="#2690FF"/>
<path fill-rule="evenodd" clip-rule="evenodd" d="M93.5872 58.6675C91.4178 58.3611 89.4093 59.8684 89.1023 62.033C88.7952 64.1976 90.3058 66.2016 92.4753 66.508C94.6447 66.8144 96.6531 65.3071 96.9602 63.14C97.2673 60.9754 95.7566 58.9714 93.5872 58.665V58.6675Z" fill="white"/>
<path fill-rule="evenodd" clip-rule="evenodd" d="M106.975 94.2231C103.828 95.9824 102.693 99.9929 104.457 103.134L114.591 121.197C116.354 124.337 120.371 125.469 123.518 123.71C126.666 121.95 127.8 117.942 126.037 114.799L115.903 96.7361C114.142 93.5954 110.123 92.4637 106.975 94.2231Z" fill="#2690FF"/>
<path fill-rule="evenodd" clip-rule="evenodd" d="M106.975 94.2231C103.828 95.9824 102.693 99.9929 104.457 103.134L114.591 121.197C116.354 124.337 120.371 125.469 123.518 123.71C126.666 121.95 127.8 117.942 126.037 114.799L115.903 96.7361C114.142 93.5954 110.123 92.4637 106.975 94.2231Z" fill="black" fill-opacity="0.25"/>
<path fill-rule="evenodd" clip-rule="evenodd" d="M89.5582 93.9043C92.4433 96.0664 93.0302 100.191 90.8633 103.069L78.4065 119.623C76.2395 122.501 72.1087 123.087 69.2236 120.925C66.3385 118.763 65.7516 114.639 67.9185 111.76L80.3753 95.2065C82.5422 92.3277 86.6755 91.7421 89.5607 93.9043H89.5582Z" fill="#2690FF"/>
<path fill-rule="evenodd" clip-rule="evenodd" d="M89.5582 93.9043C92.4433 96.0664 93.0302 100.191 90.8633 103.069L78.4065 119.623C76.2395 122.501 72.1087 123.087 69.2236 120.925C66.3385 118.763 65.7516 114.639 67.9185 111.76L80.3753 95.2065C82.5422 92.3277 86.6755 91.7421 89.5607 93.9043H89.5582Z" fill="black" fill-opacity="0.25"/>
<path fill-rule="evenodd" clip-rule="evenodd" d="M95.1228 134.525C88.8572 134.619 83.8027 140.219 83.8324 147.029C83.8646 153.839 88.9711 159.283 95.2367 159.186C101.502 159.09 106.557 153.493 106.525 146.683C106.492 139.873 101.386 134.429 95.1203 134.525H95.1228Z" fill="#2F363C"/>
<path fill-rule="evenodd" clip-rule="evenodd" d="M94.4393 124.849C85.1054 124.928 77.5793 129.536 77.6239 135.143C77.6709 140.75 85.2762 145.232 94.6102 145.153C103.944 145.074 111.47 140.466 111.426 134.859C111.379 129.252 103.773 124.772 94.4393 124.849Z" fill="#2690FF"/>
<path fill-rule="evenodd" clip-rule="evenodd" d="M97.5027 98.5672C86.8116 97.9371 77.3984 106.138 76.5837 116.798L76.1354 122.675C75.4098 132.156 82.5991 140.374 92.1113 140.935L96.4006 141.19C105.913 141.751 114.286 134.451 115.012 124.97L115.46 119.094C116.275 108.436 108.196 99.1998 97.5027 98.5697V98.5672Z" fill="#39C0A2"/>
<path fill-rule="evenodd" clip-rule="evenodd" d="M107.703 114.145C105.061 113.771 102.617 115.607 102.243 118.244C101.869 120.881 103.709 123.322 106.351 123.693C108.994 124.066 111.438 122.23 111.812 119.593C112.186 116.957 110.346 114.518 107.706 114.145H107.703Z" fill="white"/>
<path fill-rule="evenodd" clip-rule="evenodd" d="M100.568 96.5088C95.291 95.6217 90.5139 98.0087 89.9022 101.841C89.288 105.674 93.0696 109.499 98.3495 110.386C103.627 111.273 108.404 108.886 109.018 105.054C109.632 101.221 105.851 97.3959 100.571 96.5088H100.568Z" fill="#2690FF"/>
<path fill-rule="evenodd" clip-rule="evenodd" d="M100.568 96.5088C95.291 95.6217 90.5139 98.0087 89.9022 101.841C89.288 105.674 93.0696 109.499 98.3495 110.386C103.627 111.273 108.404 108.886 109.018 105.054C109.632 101.221 105.851 97.3959 100.571 96.5088H100.568Z" fill="black" fill-opacity="0.25"/>
<path fill-rule="evenodd" clip-rule="evenodd" d="M100.44 96.7558C96.4451 96.0837 92.8319 97.89 92.3663 100.791C91.9032 103.692 94.7636 106.586 98.7582 107.258C102.753 107.93 106.366 106.123 106.832 103.223C107.295 100.324 104.432 97.428 100.44 96.7583V96.7558Z" fill="#E6ADA1"/>
<path fill-rule="evenodd" clip-rule="evenodd" d="M97.4458 129.648C90.8162 121.167 92.7677 115.019 89.3477 114.742C85.9251 114.468 84.2362 120.374 85.5735 127.935C86.1357 131.118 87.1461 134.088 88.3843 136.48C91.002 141.543 96.4899 144.632 98.9689 143.634C102.255 142.312 101.795 135.205 97.4483 129.645L97.4458 129.648Z" fill="#2F363C"/>
<path fill-rule="evenodd" clip-rule="evenodd" d="M97.5249 128.086C90.8953 119.605 92.8493 113.458 89.4268 113.183C86.0042 112.909 84.3153 118.815 85.6526 126.376C86.2148 129.559 87.2252 132.529 88.4634 134.921C91.0811 139.984 96.569 143.073 99.048 142.074C102.334 140.752 101.874 133.646 97.5274 128.086H97.5249Z" fill="white"/>
<path fill-rule="evenodd" clip-rule="evenodd" d="M97.114 127.352C90.9772 119.502 92.785 113.808 89.6176 113.556C86.4501 113.302 84.885 118.77 86.1232 125.771C86.6433 128.719 87.5794 131.466 88.7236 133.68C91.1456 138.365 96.2274 141.227 98.5206 140.303C101.562 139.08 101.136 132.499 97.1115 127.352H97.114Z" fill="#FF8C47"/>
<path fill-rule="evenodd" clip-rule="evenodd" d="M99.7292 126.206C106.785 118.704 105.46 112.677 108.744 112.711C112.027 112.746 113.122 118.521 111.19 125.608C110.376 128.59 109.155 131.333 107.77 133.503C104.836 138.099 99.3379 140.565 97.0645 139.401C94.0481 137.856 95.108 131.125 99.7317 126.206H99.7292Z" fill="#2F363C"/>
<path fill-rule="evenodd" clip-rule="evenodd" d="M77.5867 84.1685C77.9111 79.6094 81.8809 76.1772 86.4476 76.5009C91.0168 76.8246 94.4566 80.7856 94.1297 85.3447C94.1248 85.4015 92.5299 104.989 96.5864 117.844C97.9584 122.2 95.5314 126.843 91.1653 128.212C86.7993 129.581 82.1459 127.159 80.7764 122.8C75.7293 106.808 77.5817 84.2327 77.5867 84.1685Z" fill="#2F363C"/>
<path fill-rule="evenodd" clip-rule="evenodd" d="M99.0902 124.851C106.146 117.349 104.821 111.32 108.105 111.355C111.388 111.389 112.483 117.164 110.551 124.251C109.737 127.236 108.516 129.976 107.131 132.148C104.197 136.744 98.6989 139.21 96.4254 138.047C93.4091 136.502 94.469 129.771 99.0926 124.854L99.0902 124.851Z" fill="white"/>
<path fill-rule="evenodd" clip-rule="evenodd" d="M99.7242 122.931C106.552 115.671 105.269 109.837 108.446 109.872C111.624 109.907 112.684 115.494 110.814 122.351C110.026 125.239 108.845 127.891 107.503 129.991C104.665 134.439 99.3428 136.826 97.1437 135.699C94.2264 134.204 95.2492 127.691 99.7267 122.931H99.7242Z" fill="#FF8C47"/>
<path fill-rule="evenodd" clip-rule="evenodd" d="M123.105 81.7C123.196 77.1311 119.556 73.3529 114.977 73.2615C110.398 73.17 106.611 76.8024 106.52 81.3714C106.52 81.4282 106.321 101.08 101.113 113.512C99.35 117.728 101.346 122.571 105.569 124.33C109.791 126.089 114.647 124.1 116.408 119.885C122.889 104.416 123.102 81.7667 123.105 81.7025V81.7Z" fill="#2F363C"/>
<path fill-rule="evenodd" clip-rule="evenodd" d="M106.918 79.8712C108.667 80.8867 109.264 83.1428 108.246 84.8873L104.033 92.1052C103.015 93.8497 100.754 94.4452 99.0058 93.4297C97.2574 92.4141 96.6631 90.158 97.6784 88.4135L101.891 81.1981C102.909 79.4535 105.17 78.858 106.918 79.8736V79.8712Z" fill="#2F363C"/>
<path fill-rule="evenodd" clip-rule="evenodd" d="M98.4734 78.0378C99.729 78.7692 100.16 80.3902 99.4269 81.6455L96.3981 86.8371C95.6651 88.0924 94.0405 88.5199 92.7824 87.7885C91.5268 87.0571 91.0959 85.4336 91.829 84.1808L94.8577 78.9892C95.5908 77.7339 97.2178 77.3064 98.4734 78.0378Z" fill="#2F363C"/>
<path fill-rule="evenodd" clip-rule="evenodd" d="M104.675 75.6136C106.423 76.6292 107.02 78.8852 106.002 80.6298L101.792 87.8452C100.774 89.5897 98.513 90.1852 96.7646 89.1696C95.0162 88.1541 94.4219 85.898 95.4372 84.1535L99.6498 76.9381C100.668 75.1935 102.929 74.598 104.675 75.6136Z" fill="#2F363C"/>
<path fill-rule="evenodd" clip-rule="evenodd" d="M93.8871 85.6905C94.9867 85.6954 95.8757 86.5874 95.8708 87.6846C95.8658 88.7817 94.9718 89.6688 93.8723 89.6639C92.7727 89.6589 91.8836 88.7669 91.8886 87.6697C91.8935 86.5726 92.7875 85.6855 93.8871 85.6905Z" fill="#E6ADA1"/>
<path fill-rule="evenodd" clip-rule="evenodd" d="M107.159 85.7869C108.258 85.7918 109.147 86.6839 109.142 87.781C109.137 88.8781 108.243 89.7652 107.144 89.7603C106.044 89.7554 105.155 88.8633 105.16 87.7662C105.165 86.669 106.059 85.7819 107.159 85.7869Z" fill="#E6ADA1"/>
<path fill-rule="evenodd" clip-rule="evenodd" d="M107.258 87.6623C108.652 89.2463 109.494 91.3219 109.484 93.5953C109.467 98.5324 105.44 102.521 100.492 102.503C95.5437 102.486 91.5467 98.4657 91.5665 93.5285C91.5764 91.2083 92.4704 89.0955 93.9291 87.5116C93.9167 87.3386 93.9093 87.1607 93.9093 86.9853C93.9241 83.2985 96.9306 80.3209 100.626 80.3357C104.32 80.3506 107.305 83.3504 107.29 87.0372C107.29 87.2472 107.277 87.4572 107.258 87.6648V87.6623Z" fill="#FFC7BB"/>
<path fill-rule="evenodd" clip-rule="evenodd" d="M102.535 86.0784C102.82 86.0784 103.053 86.3131 103.05 86.5973V87.2941C103.045 87.5783 102.812 87.8106 102.528 87.8081C102.243 87.8081 102.012 87.5734 102.012 87.2892V86.5924C102.017 86.3082 102.25 86.0759 102.535 86.0784Z" fill="#2F363C"/>
<path fill-rule="evenodd" clip-rule="evenodd" d="M102.646 91.1935C102.619 92.1646 101.968 93.0468 100.982 93.326C99.9966 93.6052 98.9788 93.1975 98.4438 92.387C98.3671 92.2709 98.3522 92.1374 98.3993 92.0089C98.4463 91.878 98.5454 91.7865 98.6791 91.7495L102.107 90.7759C102.24 90.7364 102.372 90.7635 102.483 90.8476C102.592 90.934 102.651 91.0551 102.646 91.1935Z" fill="white"/>
<path fill-rule="evenodd" clip-rule="evenodd" d="M102.857 74.2621C104.605 75.2776 105.2 77.5337 104.184 79.2782L102.671 81.8703C101.653 83.6124 99.3923 84.2104 97.6463 83.1948C95.8979 82.1792 95.3011 79.9232 96.3189 78.1786L97.8321 75.5865C98.8499 73.842 101.111 73.2465 102.857 74.2621Z" fill="#2F363C"/>
<path fill-rule="evenodd" clip-rule="evenodd" d="M98.3745 79.2263C99.11 79.6537 99.3601 80.6026 98.9317 81.3365L98.2952 82.4287C97.8668 83.1626 96.9158 83.4122 96.1803 82.9847C95.4448 82.5572 95.1947 81.6083 95.6231 80.8744L96.2596 79.7847C96.688 79.0508 97.639 78.8012 98.3745 79.2263Z" fill="#2F363C"/>
<path fill-rule="evenodd" clip-rule="evenodd" d="M96.8662 88.0874C97.5819 88.0874 97.993 88.6681 97.7825 89.3798C97.572 90.0914 96.8217 90.6647 96.1059 90.6622C95.3902 90.6622 94.9791 90.0815 95.1896 89.3699C95.4001 88.6582 96.1505 88.0849 96.8662 88.0874Z" fill="#FFBAAB"/>
<path fill-rule="evenodd" clip-rule="evenodd" d="M104.236 88.1714C103.52 88.1566 103.097 88.7274 103.29 89.4415C103.483 90.1581 104.221 90.7487 104.937 90.761C105.653 90.7759 106.076 90.2051 105.883 89.4885C105.69 88.7743 104.952 88.1813 104.236 88.1689V88.1714Z" fill="#FFBAAB"/>
<path fill-rule="evenodd" clip-rule="evenodd" d="M100.455 85.7994C101.096 85.7944 101.624 86.3133 101.629 86.9533L101.641 88.5002C101.646 89.1402 101.128 89.6665 100.485 89.6739C99.8431 89.6789 99.3156 89.1599 99.3106 88.52L99.2983 86.9731C99.2933 86.3331 99.8134 85.8068 100.455 85.8018V85.7994Z" fill="#FF26C9"/>
<path fill-rule="evenodd" clip-rule="evenodd" d="M100.455 85.7994C101.096 85.7944 101.624 86.3133 101.629 86.9533L101.641 88.5002C101.646 89.1402 101.128 89.6665 100.485 89.6739C99.8431 89.6789 99.3156 89.1599 99.3106 88.52L99.2983 86.9731C99.2933 86.3331 99.8134 85.8068 100.455 85.8018V85.7994Z" fill="black" fill-opacity="0.25"/>
<path fill-rule="evenodd" clip-rule="evenodd" d="M99.5953 88.3618L101.356 88.347C101.841 88.342 102.24 88.7349 102.245 89.2192C102.25 89.7036 101.856 90.1014 101.371 90.1063L99.6102 90.1212C99.1248 90.1261 98.7261 89.7332 98.7211 89.2489C98.7162 88.7646 99.1099 88.3667 99.5953 88.3618Z" fill="#FF26C9"/>
<path fill-rule="evenodd" clip-rule="evenodd" d="M99.5953 88.3618L101.356 88.347C101.841 88.342 102.24 88.7349 102.245 89.2192C102.25 89.7036 101.856 90.1014 101.371 90.1063L99.6102 90.1212C99.1248 90.1261 98.7261 89.7332 98.7211 89.2489C98.7162 88.7646 99.1099 88.3667 99.5953 88.3618Z" fill="black" fill-opacity="0.25"/>
<path fill-rule="evenodd" clip-rule="evenodd" d="M96.8192 78.3515C96.8192 78.3515 96.8093 78.349 96.8068 78.3465C95.7345 77.9635 95.1773 76.7873 95.5586 75.7173C95.7072 75.3047 95.9722 74.9686 96.3041 74.7339C96.522 74.5807 96.8018 74.5831 97.0124 74.7438C97.2229 74.9044 97.3046 75.1712 97.2154 75.4208L97.0644 75.8458C96.8712 76.3895 97.0322 76.9751 97.4284 77.3507C97.6364 77.5459 97.6785 77.8523 97.5299 78.0969C97.3814 78.3416 97.0891 78.4454 96.8192 78.3515Z" fill="#2F363C"/>
<path fill-rule="evenodd" clip-rule="evenodd" d="M98.3991 86.0784C98.6839 86.0784 98.9167 86.3131 98.9143 86.5973V87.2941C98.9093 87.5783 98.6765 87.8106 98.3917 87.8081C98.1069 87.8081 97.8741 87.5734 97.8766 87.2892V86.5924C97.8816 86.3082 98.1143 86.0759 98.3991 86.0784Z" fill="#2F363C"/>
<path fill-rule="evenodd" clip-rule="evenodd" d="M80.4125 96.5236C80.1525 96.5483 79.8826 96.5903 79.6077 96.6471C78.2679 96.9214 76.7671 97.5664 75.1029 98.7352C74.2386 99.343 74.0306 100.537 74.6373 101.401C75.2465 102.264 76.4452 102.471 77.3095 101.863C78.9613 100.702 80.3184 100.391 81.4031 100.502C81.4031 100.502 82.7627 100.633 83.0698 98.9526C83.107 98.7475 83.1169 98.5572 83.102 98.3793C82.9708 96.746 81.7424 96.3877 80.4125 96.5236Z" fill="#E6ADA1"/>
<path fill-rule="evenodd" clip-rule="evenodd" d="M76.8239 112.931C80.6848 113.087 83.9538 109.781 84.1246 105.545C84.298 101.31 81.3064 97.7516 77.4455 97.5934C73.5846 97.4377 70.3157 100.744 70.1423 104.979C69.9689 109.215 72.9606 112.773 76.8214 112.929L76.8239 112.931Z" fill="#FFC7BB"/>
<path fill-rule="evenodd" clip-rule="evenodd" d="M83.6244 98.4015C83.352 98.3496 83.0672 98.3101 82.7725 98.2829C81.3337 98.1544 79.6174 98.3521 77.5793 99.0341C76.5193 99.3875 75.9448 100.534 76.2989 101.592C76.6531 102.649 77.8022 103.223 78.8621 102.869C80.8854 102.195 82.3564 102.288 83.4213 102.731C83.4213 102.731 84.7562 103.274 85.5784 101.668C85.6774 101.473 85.7443 101.28 85.7839 101.097C86.1455 99.4048 85.0137 98.6709 83.6244 98.404V98.4015Z" fill="#FFC7BB"/>
<path fill-rule="evenodd" clip-rule="evenodd" d="M115.796 119.951C112.641 119.494 110.492 116.319 110.997 112.857C111.502 109.398 114.466 106.964 117.621 107.421C120.777 107.878 122.926 111.056 122.421 114.515C121.916 117.975 118.951 120.409 115.796 119.951Z" fill="#FFC7BB"/>
<path fill-rule="evenodd" clip-rule="evenodd" d="M107.091 104.424C106.584 103.734 106.73 102.763 107.421 102.254C108.112 101.747 109.085 101.896 109.595 102.585C109.605 102.597 112.691 106.927 115.643 107.362C116.492 107.485 117.082 108.273 116.955 109.123C116.832 109.971 116.039 110.559 115.19 110.433C110.905 109.8 107.101 104.438 107.091 104.424Z" fill="#FFC7BB"/>
<path fill-rule="evenodd" clip-rule="evenodd" d="M103.607 107.174C102.973 106.499 103.005 105.437 103.681 104.804C104.357 104.171 105.422 104.204 106.056 104.878C106.066 104.891 109.942 109.138 113.166 109.227C114.095 109.249 114.828 110.023 114.803 110.947C114.778 111.874 114.006 112.605 113.08 112.58C108.396 112.454 103.619 107.186 103.607 107.174Z" fill="#FFC7BB"/>
<path fill-rule="evenodd" clip-rule="evenodd" d="M103.297 110.398C102.624 109.761 102.597 108.698 103.235 108.026C103.874 107.354 104.939 107.327 105.61 107.964C105.623 107.974 109.734 111.997 112.958 111.898C113.887 111.869 114.662 112.598 114.692 113.524C114.722 114.451 113.991 115.224 113.062 115.254C108.379 115.397 103.31 110.413 103.295 110.398H103.297Z" fill="#FFC7BB"/>
<path fill-rule="evenodd" clip-rule="evenodd" d="M106.017 116.999C105.316 116.593 105.078 115.696 105.484 114.997C105.89 114.298 106.789 114.061 107.49 114.466C107.503 114.473 111.809 117.058 114.528 116.327C115.311 116.114 116.118 116.576 116.331 117.357C116.544 118.138 116.081 118.943 115.299 119.156C111.351 120.221 106.034 117.009 106.019 117.001L106.017 116.999Z" fill="#FFC7BB"/>
<path fill-rule="evenodd" clip-rule="evenodd" d="M118.29 103.405C117.75 102.738 116.772 102.635 116.103 103.173C115.437 103.712 115.331 104.688 115.871 105.355C115.88 105.367 119.288 109.447 118.959 112.407C118.862 113.26 119.479 114.028 120.331 114.122C121.185 114.219 121.955 113.603 122.049 112.753C122.53 108.456 118.298 103.423 118.288 103.408L118.29 103.405Z" fill="#FFC7BB"/>
<path fill-rule="evenodd" clip-rule="evenodd" d="M154.809 276.436C155.525 265.203 150.203 261.039 152.996 258.788C155.79 256.537 160.743 260.646 164.056 267.968C165.453 271.049 166.335 274.212 166.679 277.007C167.409 282.923 164.492 288.823 161.763 289.421C158.142 290.215 154.336 283.8 154.806 276.436H154.809Z" fill="#2F363C"/>
<path fill-rule="evenodd" clip-rule="evenodd" d="M153.65 277.207C154.365 265.976 149.043 261.81 151.837 259.559C154.63 257.308 159.583 261.417 162.9 268.739C164.294 271.823 165.178 274.983 165.522 277.778C166.253 283.694 163.335 289.594 160.604 290.192C156.983 290.986 153.179 284.571 153.647 277.207H153.65Z" fill="#FFAE00"/>
<path fill-rule="evenodd" clip-rule="evenodd" d="M151.594 276.382C152.31 265.151 146.988 260.985 149.782 258.734C152.575 256.483 157.528 260.592 160.844 267.914C162.238 270.998 163.122 274.158 163.467 276.953C164.197 282.868 161.28 288.769 158.551 289.367C154.93 290.16 151.126 283.746 151.594 276.382Z" fill="#FF8C47"/>
<path d="M160.715 270.136L153.004 271.396L153.078 271.845L160.789 270.585L160.715 270.136Z" fill="white"/>
<path fill-rule="evenodd" clip-rule="evenodd" d="M161.255 272.315L153.543 273.575L153.618 274.022L161.329 272.764L161.255 272.315Z" fill="white"/>
<path d="M161.492 274.737L153.781 275.997L153.855 276.446L161.565 275.186L161.492 274.737Z" fill="white"/>
<path fill-rule="evenodd" clip-rule="evenodd" d="M161.79 277.069L154.078 278.327L154.153 278.776L161.864 277.516L161.79 277.069Z" fill="white"/>
<path fill-rule="evenodd" clip-rule="evenodd" d="M161.698 279.285L153.987 280.546L154.061 280.993L161.773 279.735L161.698 279.285Z" fill="white"/>
<path fill-rule="evenodd" clip-rule="evenodd" d="M131.24 275.529C126.116 266.271 128.967 260.602 125.685 259.806C122.406 259.011 119.848 264.486 119.977 272.035C120.031 275.213 120.552 278.252 121.381 280.766C123.137 286.086 127.988 289.933 130.549 289.347C133.944 288.571 134.601 281.598 131.24 275.527V275.529Z" fill="#2F363C"/>
<path fill-rule="evenodd" clip-rule="evenodd" d="M129.774 275.863C125.524 266.174 128.885 260.79 125.69 259.698C122.498 258.606 119.447 263.822 118.88 271.351C118.64 274.521 118.88 277.595 119.474 280.173C120.732 285.631 125.21 289.908 127.815 289.56C131.267 289.098 132.563 282.214 129.776 275.863H129.774Z" fill="#FFAE00"/>
<path fill-rule="evenodd" clip-rule="evenodd" d="M127.503 275.863C123.253 266.174 126.614 260.79 123.419 259.698C120.227 258.606 117.176 263.822 116.606 271.351C116.366 274.521 116.606 277.595 117.201 280.173C118.461 285.631 122.936 289.908 125.542 289.56C128.994 289.098 130.289 282.214 127.503 275.863Z" fill="#FF8C47"/>
<path fill-rule="evenodd" clip-rule="evenodd" d="M117.434 273.271L124.65 271.909L124.729 272.329L117.513 273.691L117.434 273.271Z" fill="white"/>
<path d="M124.863 274.025L117.648 275.385L117.728 275.805L124.943 274.445L124.863 274.025Z" fill="white"/>
<path d="M125.455 276.202L118.24 277.564L118.319 277.984L125.534 276.622L125.455 276.202Z" fill="white"/>
<path d="M125.925 278.389L118.71 279.749L118.79 280.169L126.005 278.809L125.925 278.389Z" fill="white"/>
<path fill-rule="evenodd" clip-rule="evenodd" d="M119.514 281.668L126.73 280.306L126.81 280.726L119.593 282.085L119.514 281.668Z" fill="white"/>
<path fill-rule="evenodd" clip-rule="evenodd" d="M118.375 185.715C118.439 181.606 121.829 178.327 125.948 178.391C130.064 178.455 133.35 181.841 133.286 185.947C133.286 186.049 132.473 221.108 159.121 257.876C161.535 261.207 160.785 265.863 157.446 268.27C154.108 270.679 149.445 269.93 147.03 266.599C117.456 225.79 118.372 185.826 118.372 185.71L118.375 185.715Z" fill="#2F363C"/>
<path fill-rule="evenodd" clip-rule="evenodd" d="M117.496 178.475C121.666 178.549 125.032 182.967 125.009 188.339C124.987 193.714 121.589 198.009 117.416 197.932C113.246 197.855 109.88 193.44 109.903 188.068C109.925 182.696 113.323 178.401 117.493 178.475H117.496Z" fill="#2F363C"/>
<path fill-rule="evenodd" clip-rule="evenodd" d="M102.954 181.537C103.9 177.539 107.917 175.06 111.921 176.004C115.928 176.948 118.412 180.956 117.466 184.954C117.444 185.053 109.123 219.126 127.258 260.738C128.9 264.506 127.169 268.892 123.392 270.533C119.616 272.171 115.22 270.444 113.578 266.676C93.4513 220.492 102.926 181.65 102.954 181.539V181.537Z" fill="#2F363C"/>
<path fill-rule="evenodd" clip-rule="evenodd" d="M118.575 176.091C127.52 176.165 134.734 180.583 134.69 185.955C134.645 191.327 127.357 195.624 118.412 195.547C109.467 195.473 102.253 191.055 102.297 185.683C102.342 180.311 109.63 176.016 118.575 176.091Z" fill="#2F363C"/>
<path fill-rule="evenodd" clip-rule="evenodd" d="M117.622 168.747C126.567 168.821 133.781 173.239 133.736 178.611C133.692 183.983 126.404 188.28 117.458 188.203C108.513 188.129 101.299 183.711 101.344 178.339C101.388 172.967 108.677 168.672 117.622 168.747Z" fill="#FFAE00"/>
<path fill-rule="evenodd" clip-rule="evenodd" d="M125.2 143.29C135.17 145.719 141.475 155.88 139.212 165.873L137.964 171.383C135.95 180.274 127.045 185.777 118.174 183.615L114.172 182.639C105.301 180.479 99.6918 171.438 101.705 162.547L102.953 157.037C105.217 147.044 115.227 140.859 125.2 143.288V143.29Z" fill="#E35858"/>
<path fill-rule="evenodd" clip-rule="evenodd" d="M123.13 141.197C128.214 141.869 131.916 145.401 131.394 149.082C130.874 152.764 126.329 155.206 121.242 154.533C116.158 153.861 112.456 150.33 112.978 146.648C113.498 142.964 118.043 140.525 123.13 141.197Z" fill="#FFAE00"/>
<path fill-rule="evenodd" clip-rule="evenodd" d="M123.018 140.804C126.867 141.313 129.668 143.985 129.274 146.772C128.88 149.559 125.44 151.405 121.592 150.896C117.743 150.387 114.942 147.716 115.336 144.929C115.73 142.141 119.17 140.295 123.018 140.804Z" fill="#FFC7BB"/>
<path fill-rule="evenodd" clip-rule="evenodd" d="M129.316 132.269C126.621 131.007 123.699 131.496 122.822 133.357L118.228 143.12C117.352 144.983 118.84 147.538 121.537 148.801C124.231 150.063 127.154 149.574 128.03 147.713L132.624 137.95C133.501 136.087 132.013 133.532 129.318 132.269H129.316Z" fill="#FFC7BB"/>
<path fill-rule="evenodd" clip-rule="evenodd" d="M134.727 135.838C136.735 136.277 139.073 133.401 139.504 131.444C139.935 129.487 138.654 127.545 136.648 127.105C134.64 126.665 132.664 127.896 132.233 129.853C131.802 131.81 132.718 135.398 134.727 135.838Z" fill="#2F363C"/>
<path fill-rule="evenodd" clip-rule="evenodd" d="M136.951 133.436C135.631 132.526 133.818 132.858 132.906 134.177C131.995 135.497 132.327 137.303 133.649 138.212C134.972 139.122 136.782 138.79 137.694 137.471C138.605 136.151 138.273 134.345 136.951 133.436Z" fill="#E6ADA1"/>
<path fill-rule="evenodd" clip-rule="evenodd" d="M129.895 130.063C134.112 128.812 135.509 121.011 134.286 116.9C133.062 112.788 128.652 110.47 124.434 111.72C120.217 112.971 117.79 117.317 119.013 121.427C120.236 125.538 125.677 131.313 129.895 130.06V130.063Z" fill="#2F363C"/>
<path fill-rule="evenodd" clip-rule="evenodd" d="M121.923 126.062C120.601 125.153 118.79 125.484 117.879 126.803C116.968 128.123 117.299 129.929 118.622 130.839C119.944 131.748 121.755 131.417 122.666 130.097C123.577 128.778 123.245 126.972 121.923 126.062Z" fill="#E6ADA1"/>
<path fill-rule="evenodd" clip-rule="evenodd" d="M130.866 123.262C126.349 121.471 119.793 127.29 118.04 131.694C116.287 136.097 118.528 141.118 123.045 142.907C127.562 144.699 132.644 142.581 134.397 138.178C136.151 133.774 135.383 125.051 130.866 123.262Z" fill="#FFC7BB"/>
<path fill-rule="evenodd" clip-rule="evenodd" d="M132.391 130.92C135.702 130.809 138.209 125.388 138.1 122.161C137.991 118.931 135.217 116.406 131.906 116.517C128.595 116.628 125.997 119.334 126.106 122.563C126.215 125.793 129.078 131.032 132.391 130.923V130.92Z" fill="#2F363C"/>
<path fill-rule="evenodd" clip-rule="evenodd" d="M136.599 127.177C136.599 127.177 136.606 127.182 136.611 127.182C137.584 127.651 138.753 127.246 139.224 126.277C139.405 125.904 139.457 125.501 139.395 125.121C139.355 124.871 139.167 124.686 138.917 124.649C138.667 124.612 138.431 124.735 138.322 124.963L138.134 125.348C137.894 125.84 137.389 126.122 136.871 126.102C136.601 126.092 136.366 126.267 136.299 126.529C136.232 126.791 136.356 127.058 136.599 127.177Z" fill="#2F363C"/>
<path fill-rule="evenodd" clip-rule="evenodd" d="M117.468 151.593C111.911 148.237 111.158 138.627 113.426 134.451C115.697 130.278 122.042 129.613 127.599 132.966C133.156 136.322 135.819 142.423 133.548 146.599C131.277 150.772 123.025 154.946 117.468 151.593Z" fill="#2F363C"/>
<path fill-rule="evenodd" clip-rule="evenodd" d="M126.309 129.023C126.044 128.84 125.678 128.906 125.497 129.171L125.048 129.818C124.865 130.083 124.932 130.448 125.197 130.629C125.462 130.812 125.829 130.745 126.012 130.481L126.46 129.833C126.643 129.569 126.577 129.203 126.312 129.02L126.309 129.023Z" fill="#2F363C"/>
<path fill-rule="evenodd" clip-rule="evenodd" d="M130.762 131.832C130.497 131.649 130.133 131.716 129.949 131.98L129.501 132.628C129.318 132.892 129.385 133.258 129.65 133.438C129.915 133.621 130.281 133.554 130.462 133.29L130.91 132.643C131.094 132.378 131.027 132.013 130.762 131.83V131.832Z" fill="#2F363C"/>
<path fill-rule="evenodd" clip-rule="evenodd" d="M124.608 136.245C124.608 136.245 124.608 136.255 124.608 136.258C124.721 137.33 125.682 138.106 126.757 137.995C127.171 137.95 127.54 137.782 127.832 137.53C128.023 137.365 128.082 137.105 127.981 136.875C127.879 136.646 127.651 136.51 127.399 136.537L126.973 136.581C126.428 136.638 125.92 136.356 125.665 135.909C125.531 135.674 125.256 135.568 124.999 135.65C124.739 135.731 124.578 135.976 124.605 136.245H124.608Z" fill="white"/>
<path fill-rule="evenodd" clip-rule="evenodd" d="M128.476 130.648C127.884 130.231 127.059 130.372 126.641 130.962L125.631 132.388C125.212 132.979 125.353 133.801 125.945 134.219C126.537 134.637 127.362 134.496 127.78 133.905L128.791 132.479C129.209 131.889 129.068 131.066 128.476 130.646V130.648Z" fill="#FF26C9"/>
<path fill-rule="evenodd" clip-rule="evenodd" d="M128.476 130.648C127.884 130.231 127.059 130.372 126.641 130.962L125.631 132.388C125.212 132.979 125.353 133.801 125.945 134.219C126.537 134.637 127.362 134.496 127.78 133.905L128.791 132.479C129.209 131.889 129.068 131.066 128.476 130.646V130.648Z" fill="black" fill-opacity="0.25"/>
<path fill-rule="evenodd" clip-rule="evenodd" d="M127.617 133.582L125.992 132.435C125.544 132.119 124.92 132.225 124.603 132.672C124.286 133.119 124.392 133.742 124.841 134.058L126.465 135.205C126.913 135.521 127.537 135.415 127.854 134.968C128.171 134.521 128.062 133.898 127.617 133.582Z" fill="#FF26C9"/>
<path fill-rule="evenodd" clip-rule="evenodd" d="M127.617 133.582L125.992 132.435C125.544 132.119 124.92 132.225 124.603 132.672C124.286 133.119 124.392 133.742 124.841 134.058L126.465 135.205C126.913 135.521 127.537 135.415 127.854 134.968C128.171 134.521 128.062 133.898 127.617 133.582Z" fill="black" fill-opacity="0.25"/>
<path fill-rule="evenodd" clip-rule="evenodd" d="M16.6177 271.643C24.9511 264.059 24.02 257.375 27.5985 257.691C31.1771 258.01 31.8779 264.398 29.1661 271.964C28.0245 275.149 26.4568 278.035 24.7604 280.284C21.1695 285.045 14.9634 287.269 12.581 285.804C9.42347 283.864 11.1521 276.612 16.6152 271.643H16.6177Z" fill="#2F363C"/>
<path fill-rule="evenodd" clip-rule="evenodd" d="M15.2481 271.395C23.5815 263.812 22.6504 257.128 26.2289 257.444C29.8075 257.76 30.5083 264.15 27.7965 271.717C26.6549 274.902 25.0897 277.788 23.3908 280.036C19.7999 284.798 13.5938 287.022 11.2114 285.559C8.05634 283.619 9.78247 276.367 15.2481 271.398V271.395Z" fill="white"/>
<path fill-rule="evenodd" clip-rule="evenodd" d="M25.3251 255.425C28.9037 255.741 29.6045 262.131 26.8927 269.698C25.7511 272.883 24.1859 275.769 22.4895 278.018C18.8986 282.779 12.6925 285.003 10.3101 283.54C2.93507 279.006 25.2954 255.425 25.3276 255.428L25.3251 255.425Z" fill="#2690FF"/>
<path fill-rule="evenodd" clip-rule="evenodd" d="M61.1972 278.075C65.4742 268.398 62.1284 263.004 65.3256 261.919C68.5227 260.834 71.5564 266.061 72.1037 273.592C72.3341 276.763 72.0864 279.837 71.4846 282.414C70.2092 287.867 65.7218 292.132 63.119 291.777C59.6692 291.305 58.3938 284.418 61.1972 278.075Z" fill="#2F363C"/>
<path fill-rule="evenodd" clip-rule="evenodd" d="M62.2448 278.68C66.5217 269.004 63.1759 263.609 66.3731 262.525C69.5703 261.442 72.6065 266.666 73.1513 274.198C73.3816 277.368 73.1339 280.442 72.5322 283.019C71.2592 288.473 66.7693 292.738 64.1665 292.382C60.7143 291.91 59.4389 285.023 62.2448 278.68Z" fill="white"/>
<path fill-rule="evenodd" clip-rule="evenodd" d="M64.5182 278.685C68.7951 269.008 65.4494 263.614 68.6465 262.529C71.8437 261.447 74.8774 266.671 75.4247 274.203C75.655 277.373 75.4074 280.447 74.8056 283.024C73.5302 288.478 69.0428 292.743 66.44 292.387C62.9877 291.915 61.7148 285.028 64.5182 278.682V278.685Z" fill="#2690FF"/>
<path fill-rule="evenodd" clip-rule="evenodd" d="M74.34 181.045C70.1696 181.119 66.804 185.537 66.8263 190.909C66.8486 196.284 70.2463 200.578 74.4168 200.502C78.5872 200.425 81.9527 196.009 81.9305 190.637C81.9082 185.265 78.5104 180.971 74.3375 181.045H74.34Z" fill="#2F363C"/>
<path fill-rule="evenodd" clip-rule="evenodd" d="M63.5104 184.813C66.7323 182.256 71.4253 182.789 73.986 186.007C76.5491 189.221 76.0142 193.904 72.7898 196.462C72.7106 196.523 45.0431 218.15 33.4803 262.035C32.4327 266.011 28.3539 268.386 24.3692 267.34C20.387 266.295 18.0046 262.223 19.0522 258.249C31.8879 209.543 63.4187 184.887 63.5104 184.816V184.813Z" fill="#2F363C"/>
<path fill-rule="evenodd" clip-rule="evenodd" d="M88.8819 184.104C87.9359 180.106 83.919 177.627 79.912 178.571C75.9051 179.515 73.4211 183.523 74.3671 187.521C74.3894 187.62 82.7105 221.693 64.5751 263.305C62.9331 267.074 64.6642 271.46 68.4409 273.1C72.2175 274.739 76.6133 273.011 78.2553 269.243C98.3818 223.06 88.9067 184.22 88.8794 184.107L88.8819 184.104Z" fill="#2F363C"/>
<path fill-rule="evenodd" clip-rule="evenodd" d="M74.8427 178.66C65.8976 178.734 58.6835 183.153 58.7281 188.525C58.7727 193.897 66.061 198.194 75.0062 198.117C83.9513 198.043 91.1653 193.625 91.1207 188.253C91.0762 182.881 83.7878 178.586 74.8427 178.66Z" fill="#2F363C"/>
<path fill-rule="evenodd" clip-rule="evenodd" d="M74.2137 171.314C65.2686 171.388 58.0545 175.806 58.0991 181.178C58.1437 186.551 65.432 190.848 74.3771 190.771C83.3222 190.697 90.5363 186.279 90.4917 180.907C90.4471 175.535 83.1588 171.24 74.2137 171.314Z" fill="#2690FF"/>
<path fill-rule="evenodd" clip-rule="evenodd" d="M67.4255 145.826C57.3882 147.963 50.7884 157.936 52.7597 167.991L53.8468 173.536C55.6002 182.481 64.3398 188.241 73.27 186.338L77.2993 185.481C86.2296 183.58 92.1014 174.704 90.348 165.762L89.2608 160.219C87.2895 150.165 77.4652 143.691 67.428 145.828L67.4255 145.826Z" fill="#2690FF"/>
<path fill-rule="evenodd" clip-rule="evenodd" d="M67.4255 145.826C57.3882 147.963 50.7884 157.936 52.7597 167.991L53.8468 173.536C55.6002 182.481 64.3398 188.241 73.27 186.338L77.2993 185.481C86.2296 183.58 92.1014 174.704 90.348 165.762L89.2608 160.219C87.2895 150.165 77.4652 143.691 67.428 145.828L67.4255 145.826Z" fill="black" fill-opacity="0.25"/>
<path fill-rule="evenodd" clip-rule="evenodd" d="M80.8309 157.622C78.295 157.951 76.5045 160.269 76.8339 162.799C77.1632 165.329 79.4862 167.116 82.0221 166.79C84.5581 166.461 86.3486 164.143 86.0192 161.613C85.6898 159.083 83.3693 157.296 80.8334 157.625L80.8309 157.622Z" fill="#2690FF"/>
<path fill-rule="evenodd" clip-rule="evenodd" d="M69.7313 143.144C64.6273 143.668 60.8258 147.088 61.2394 150.787C61.653 154.484 66.1231 157.056 71.2271 156.532C76.3312 156.008 80.1326 152.586 79.7191 148.892C79.3055 145.195 74.8354 142.623 69.7313 143.147V143.144Z" fill="#2690FF"/>
<path fill-rule="evenodd" clip-rule="evenodd" d="M69.7313 143.144C64.6273 143.668 60.8258 147.088 61.2394 150.787C61.653 154.484 66.1231 157.056 71.2271 156.532C76.3312 156.008 80.1326 152.586 79.7191 148.892C79.3055 145.195 74.8354 142.623 69.7313 143.147V143.144Z" fill="black" fill-opacity="0.5"/>
<path fill-rule="evenodd" clip-rule="evenodd" d="M69.6767 143.404C65.8159 143.802 62.9382 146.389 63.2502 149.186C63.5622 151.983 66.9452 153.93 70.8085 153.533C74.6694 153.137 77.5471 150.548 77.235 147.75C76.923 144.953 73.5401 143.008 69.6792 143.404H69.6767Z" fill="#FFC7BB"/>
<path fill-rule="evenodd" clip-rule="evenodd" d="M56.3629 127.456C56.3753 127.466 56.3902 127.478 56.4026 127.488C59.7161 130.204 60.199 135.089 57.4774 138.395C56.4273 139.67 55.0578 140.525 53.5794 140.938C52.6135 141.207 51.6254 140.837 51.0781 139.999C50.5308 139.161 50.5877 138.108 51.2242 137.335L52.304 136.023C53.6859 134.343 53.8592 132.054 52.928 130.226C52.4402 129.267 52.6829 128.128 53.5224 127.451C54.3619 126.774 55.5284 126.776 56.3654 127.451L56.3629 127.456Z" fill="#2F363C"/>
<path fill-rule="evenodd" clip-rule="evenodd" d="M55.5954 148.82C55.6127 148.823 55.6301 148.828 55.6474 148.83C59.9664 149.628 64.1145 146.779 64.9145 142.47C65.2215 140.809 64.9887 139.173 64.3374 137.745C63.9115 136.814 62.9704 136.285 61.9501 136.411C60.9298 136.534 60.1422 137.273 59.9565 138.281L59.6395 139.991C59.2334 142.178 57.5493 143.826 55.5013 144.306C54.4265 144.558 53.6934 145.499 53.7157 146.601C53.738 147.703 54.5082 148.615 55.5929 148.823L55.5954 148.82Z" fill="#2F363C"/>
<path fill-rule="evenodd" clip-rule="evenodd" d="M60.8876 131.444C60.8876 131.464 60.8876 131.486 60.8826 131.506C60.5582 136.594 64.4265 140.98 69.5232 141.304C71.487 141.43 73.3469 140.933 74.9096 139.984C75.9299 139.366 76.4103 138.207 76.1255 137.048C75.8407 135.892 74.8774 135.086 73.6837 135.01L71.6604 134.881C69.0724 134.716 66.9352 133.006 66.0982 130.71C65.6598 129.507 64.4662 128.793 63.1957 128.971C61.9253 129.149 60.9768 130.162 60.8851 131.442L60.8876 131.444Z" fill="#2F363C"/>
<path fill-rule="evenodd" clip-rule="evenodd" d="M61.8461 126.673C61.8461 126.692 61.8461 126.715 61.8411 126.734C61.5167 131.822 65.385 136.208 70.4817 136.534C72.4455 136.658 74.3054 136.164 75.8681 135.215C76.8884 134.595 77.3688 133.438 77.0815 132.279C76.7967 131.123 75.8334 130.317 74.6397 130.241L72.6164 130.112C70.0285 129.947 67.8913 128.237 67.0542 125.941C66.6134 124.738 65.4222 124.024 64.1517 124.202C62.8813 124.38 61.9328 125.393 61.8436 126.673H61.8461Z" fill="#2F363C"/>
<path fill-rule="evenodd" clip-rule="evenodd" d="M59.7559 132.655C59.7658 132.67 59.7757 132.684 59.7856 132.699C62.2992 136.295 61.4176 141.242 57.8168 143.75C56.4299 144.716 54.84 145.18 53.2674 145.178C52.2397 145.178 51.368 144.54 51.0609 143.562C50.7538 142.583 51.103 141.563 51.945 140.977L53.3739 139.981C55.2016 138.706 56.0065 136.497 55.5978 134.439C55.3824 133.359 55.9396 132.304 56.955 131.869C57.9678 131.434 59.1194 131.758 59.7559 132.657V132.655Z" fill="#2F363C"/>
<path fill-rule="evenodd" clip-rule="evenodd" d="M63.6341 134.688C66.3657 133.505 69.2706 134.078 70.0928 135.966L74.3994 145.857C75.2191 147.743 73.6589 150.256 70.9274 151.439C68.1958 152.623 65.2909 152.05 64.4687 150.162L60.162 140.27C59.3398 138.385 60.9025 135.872 63.6341 134.688Z" fill="#FFC7BB"/>
<path fill-rule="evenodd" clip-rule="evenodd" d="M63.6315 134.691C66.3631 133.507 69.268 134.081 70.0877 135.969L72.3983 141.274C72.1878 141.442 71.9699 141.6 71.7445 141.753C68.3987 143.997 64.1961 143.985 60.942 142.07L60.1594 140.273C59.3397 138.388 60.8999 135.875 63.6315 134.691Z" fill="#E6ADA1"/>
<path fill-rule="evenodd" clip-rule="evenodd" d="M57.0466 117.54C57.0466 117.54 57.0664 117.557 57.0763 117.564C59.6073 119.64 59.9763 123.369 57.8961 125.897C57.0962 126.87 56.0486 127.523 54.9193 127.839C54.1813 128.046 53.426 127.762 53.0075 127.122C52.5889 126.482 52.6335 125.679 53.1189 125.089L53.9436 124.085C54.9986 122.803 55.1298 121.053 54.4191 119.657C54.0451 118.923 54.2333 118.056 54.8723 117.54C55.5137 117.023 56.4027 117.023 57.0441 117.54H57.0466Z" fill="#2F363C"/>
<path fill-rule="evenodd" clip-rule="evenodd" d="M57.4924 124.389C57.4776 124.389 57.4627 124.394 57.4479 124.397C53.8223 124.933 51.3185 128.301 51.8559 131.921C52.064 133.315 52.6905 134.543 53.5919 135.494C54.1814 136.117 55.0679 136.277 55.8381 135.904C56.6083 135.531 57.0293 134.735 56.9055 133.888L56.6925 132.452C56.4201 130.616 57.3018 128.862 58.7901 127.93C59.5702 127.443 59.8922 126.5 59.5777 125.637C59.2607 124.775 58.4063 124.263 57.4949 124.392L57.4924 124.389Z" fill="#2F363C"/>
<path fill-rule="evenodd" clip-rule="evenodd" d="M61.1773 121.696C61.1773 121.696 61.1921 121.676 61.1995 121.664C63.099 119.054 66.7593 118.479 69.3745 120.374C70.3824 121.105 71.0882 122.096 71.4646 123.188C71.7098 123.9 71.4745 124.659 70.8678 125.108C70.2611 125.556 69.4661 125.561 68.8544 125.116L67.8167 124.365C66.4893 123.401 64.7558 123.374 63.4185 124.152C62.7176 124.562 61.8484 124.429 61.3011 123.828C60.7538 123.228 60.7018 122.353 61.1773 121.693V121.696Z" fill="#2F363C"/>
<path fill-rule="evenodd" clip-rule="evenodd" d="M54.5502 134.745C55.8826 133.851 57.6904 134.204 58.5869 135.536C59.4834 136.865 59.1293 138.669 57.7944 139.561C56.4621 140.456 54.6542 140.102 53.7602 138.771C52.8637 137.441 53.2179 135.637 54.5502 134.743V134.745Z" fill="#E6ADA1"/>
<path fill-rule="evenodd" clip-rule="evenodd" d="M70.6796 124.597C72.012 123.702 73.8198 124.056 74.7138 125.388C75.6103 126.717 75.2562 128.518 73.9238 129.413C72.5915 130.307 70.7836 129.954 69.8896 128.625C68.9931 127.295 69.3473 125.491 70.6796 124.597Z" fill="#E6ADA1"/>
<path fill-rule="evenodd" clip-rule="evenodd" d="M58.2081 122.897C62.8516 119.783 69.1444 121.014 72.2648 125.647C75.3851 130.28 74.1518 136.559 69.5084 139.675C64.865 142.788 58.5722 141.558 55.4518 136.925C52.3314 132.292 53.5647 126.013 58.2081 122.897Z" fill="#FFC7BB"/>
<path fill-rule="evenodd" clip-rule="evenodd" d="M53.6018 126.616C53.6018 126.616 53.5943 126.608 53.5919 126.606C52.782 125.894 51.5463 125.973 50.8331 126.781C50.5582 127.093 50.4021 127.468 50.3576 127.851C50.3303 128.101 50.4616 128.331 50.6919 128.434C50.9222 128.536 51.1822 128.479 51.3506 128.291L51.633 127.97C51.9945 127.56 52.5567 127.424 53.0495 127.579C53.3071 127.661 53.582 127.555 53.7157 127.32C53.8494 127.085 53.8024 126.796 53.5993 126.616H53.6018Z" fill="#2F363C"/>
<path fill-rule="evenodd" clip-rule="evenodd" d="M53.2477 127.357H53.2353C52.1556 127.322 51.3086 126.423 51.3433 125.346C51.3557 124.93 51.4993 124.55 51.7296 124.241C51.8807 124.038 52.1358 123.962 52.3735 124.046C52.6113 124.13 52.7623 124.347 52.7549 124.599L52.7425 125.027C52.7252 125.573 53.0422 126.057 53.5103 126.28C53.7554 126.396 53.8817 126.66 53.8173 126.925C53.7554 127.189 53.5201 127.367 53.2502 127.359L53.2477 127.357Z" fill="#2F363C"/>
<path fill-rule="evenodd" clip-rule="evenodd" d="M60.9965 130.231C60.8157 130.256 60.6498 130.132 60.6225 129.952C60.5978 129.771 60.7216 129.603 60.9024 129.579C60.9098 129.579 63.6587 129.163 63.6067 126.648C63.6018 126.465 63.7479 126.314 63.9311 126.312C64.1144 126.307 64.2655 126.453 64.268 126.633C64.3299 129.727 61.0039 130.228 60.9965 130.231Z" fill="#E6ADA1"/>
<path fill-rule="evenodd" clip-rule="evenodd" d="M61.2667 112.219C61.284 112.232 61.3014 112.247 61.3187 112.261C65.5139 115.699 66.1231 121.876 62.6783 126.065C61.3509 127.678 59.6149 128.758 57.7451 129.282C56.5242 129.623 55.2736 129.156 54.5801 128.093C53.8867 127.033 53.9585 125.701 54.7659 124.723L56.1329 123.062C57.8813 120.937 58.0992 118.039 56.9229 115.726C56.3038 114.513 56.6133 113.072 57.6733 112.214C58.7332 111.359 60.2117 111.359 61.2692 112.214L61.2667 112.219Z" fill="#2F363C"/>
<path fill-rule="evenodd" clip-rule="evenodd" d="M68.4632 135.326C68.436 136.322 67.7673 137.231 66.7569 137.52C65.7465 137.81 64.6964 137.389 64.1466 136.557C64.0674 136.438 64.0525 136.302 64.1021 136.166C64.1516 136.033 64.2531 135.939 64.3893 135.899L67.9109 134.896C68.0471 134.857 68.1833 134.884 68.2973 134.97C68.4112 135.057 68.4681 135.183 68.4657 135.326H68.4632Z" fill="white"/>
<path fill-rule="evenodd" clip-rule="evenodd" d="M65.4693 131.844C68.4411 131.098 71.455 132.731 72.4901 135.538C72.609 135.862 72.505 136.213 72.2252 136.418C71.9478 136.623 71.5813 136.621 71.3064 136.411C69.9171 135.353 68.077 134.916 66.2518 135.373C64.543 135.8 63.1958 136.93 62.438 138.373C62.2771 138.679 61.9477 138.835 61.6084 138.766C61.2691 138.696 61.0264 138.425 60.9967 138.081C60.759 135.242 62.6089 132.563 65.4693 131.847V131.844Z" fill="#2F363C"/>
<path fill-rule="evenodd" clip-rule="evenodd" d="M63.5423 129.576C64.1391 129.166 64.9614 129.317 65.3749 129.912L66.368 131.35C66.7791 131.946 66.628 132.769 66.0312 133.179C65.4344 133.589 64.6097 133.438 64.1986 132.843L63.2055 131.405C62.7944 130.809 62.9455 129.986 63.5423 129.576Z" fill="#FF26C9"/>
<path fill-rule="evenodd" clip-rule="evenodd" d="M63.5423 129.576C64.1391 129.166 64.9614 129.317 65.3749 129.912L66.368 131.35C66.7791 131.946 66.628 132.769 66.0312 133.179C65.4344 133.589 64.6097 133.438 64.1986 132.843L63.2055 131.405C62.7944 130.809 62.9455 129.986 63.5423 129.576Z" fill="black" fill-opacity="0.25"/>
<path fill-rule="evenodd" clip-rule="evenodd" d="M64.3673 132.521L66.0067 131.392C66.4574 131.081 67.0815 131.194 67.3935 131.647C67.7056 132.096 67.5892 132.719 67.1385 133.03L65.499 134.157C65.0458 134.469 64.4242 134.352 64.1122 133.903C63.8001 133.453 63.9165 132.83 64.3673 132.519V132.521Z" fill="#FF26C9"/>
<path fill-rule="evenodd" clip-rule="evenodd" d="M64.3673 132.521L66.0067 131.392C66.4574 131.081 67.0815 131.194 67.3935 131.647C67.7056 132.096 67.5892 132.719 67.1385 133.03L65.499 134.157C65.0458 134.469 64.4242 134.352 64.1122 133.903C63.8001 133.453 63.9165 132.83 64.3673 132.519V132.521Z" fill="black" fill-opacity="0.25"/>
<path fill-rule="evenodd" clip-rule="evenodd" d="M82.1286 149.366C82.0172 149.312 81.8809 149.357 81.824 149.468C81.7695 149.579 81.8141 149.715 81.9255 149.772C81.9255 149.772 82.3317 150.019 82.9607 150.52C83.0573 150.597 83.2009 150.582 83.2777 150.486C83.3544 150.389 83.3396 150.249 83.243 150.169C82.5768 149.638 82.1286 149.369 82.1261 149.369L82.1286 149.366ZM84.3104 151.086C84.2212 151.002 84.0776 151.007 83.9934 151.096C83.9092 151.188 83.9142 151.328 84.0033 151.415C84.2708 151.664 84.558 151.946 84.8503 152.255C85.1425 152.564 85.4397 152.9 85.7344 153.263C85.8136 153.36 85.9548 153.374 86.0514 153.298C86.1479 153.219 86.1628 153.078 86.086 152.982C85.7814 152.606 85.4743 152.26 85.1796 151.946C84.8825 151.632 84.5902 151.343 84.3129 151.086H84.3104ZM87.7156 155.369C87.6561 155.26 87.5175 155.223 87.4085 155.282C87.2995 155.341 87.2624 155.48 87.3218 155.588C87.6982 156.256 88.045 156.98 88.3372 157.756C88.6294 158.534 88.8696 159.369 89.0355 160.259C90.3456 167.306 90.4274 168.697 90.4274 168.702C90.4397 168.826 90.5512 168.915 90.675 168.902C90.7988 168.89 90.888 168.779 90.8756 168.655C90.8756 168.653 90.7914 167.232 89.4788 160.177C89.308 159.26 89.0603 158.4 88.7582 157.597C88.456 156.794 88.0994 156.051 87.7131 155.369H87.7156Z" fill="#2690FF"/>
<path fill-rule="evenodd" clip-rule="evenodd" d="M60.1448 130.646C60.3751 130.47 60.7094 130.515 60.8853 130.745L61.5985 131.676C61.7743 131.906 61.7298 132.24 61.4994 132.415C61.2691 132.591 60.9373 132.546 60.759 132.316L60.0457 131.385C59.8699 131.155 59.9145 130.824 60.1448 130.646Z" fill="#2F363C"/>
<path fill-rule="evenodd" clip-rule="evenodd" d="M65.5137 126.935C65.744 126.757 66.0783 126.804 66.2542 127.033L66.9674 127.965C67.1432 128.195 67.0987 128.528 66.8684 128.704C66.638 128.879 66.3062 128.835 66.1279 128.605L65.4146 127.676C65.2388 127.446 65.2834 127.112 65.5137 126.937V126.935Z" fill="#2F363C"/>
<path fill-rule="evenodd" clip-rule="evenodd" d="M71.3237 276.607C70.3158 276.545 69.3722 276.273 68.5302 275.834C68.3098 275.717 68.2033 275.473 68.2702 275.233C68.337 274.996 68.555 274.84 68.8026 274.855L74.0355 275.171C74.2831 275.186 74.4812 275.366 74.5184 275.611C74.5555 275.858 74.4193 276.088 74.1865 276.177C73.2999 276.511 72.3291 276.669 71.3212 276.609L71.3237 276.607Z" fill="white"/>
<path fill-rule="evenodd" clip-rule="evenodd" d="M70.9721 279.34C69.9642 279.281 69.0206 279.006 68.1786 278.566C67.9582 278.453 67.8517 278.206 67.9186 277.966C67.9855 277.729 68.2034 277.573 68.451 277.588L73.6814 277.904C73.9291 277.919 74.1272 278.099 74.1643 278.344C74.2015 278.589 74.0653 278.821 73.8325 278.91C72.9459 279.243 71.9751 279.402 70.9672 279.342L70.9721 279.34Z" fill="white"/>
<path fill-rule="evenodd" clip-rule="evenodd" d="M20.0799 269.404C20.9839 269.853 21.9373 270.091 22.8858 270.128C23.1335 270.138 23.3489 269.977 23.4133 269.737C23.4752 269.498 23.3638 269.253 23.1409 269.142L18.4529 266.802C18.23 266.691 17.9675 266.747 17.8115 266.94C17.6554 267.133 17.6579 267.402 17.8139 267.595C18.4133 268.329 19.1735 268.949 20.0775 269.401L20.0799 269.404Z" fill="white"/>
<path fill-rule="evenodd" clip-rule="evenodd" d="M19.0126 271.944C19.9166 272.394 20.87 272.631 21.8185 272.668C22.0662 272.678 22.2841 272.517 22.346 272.278C22.4079 272.038 22.2965 271.793 22.0736 271.682L17.3856 269.342C17.1627 269.231 16.9002 269.288 16.7466 269.48C16.5906 269.673 16.5931 269.943 16.7491 270.135C17.3484 270.869 18.1087 271.489 19.0126 271.942V271.944Z" fill="white"/>
<path fill-rule="evenodd" clip-rule="evenodd" d="M98.7385 179.194C104.739 171.064 102.827 165.319 105.992 164.986C109.157 164.652 110.819 170.177 109.704 177.326C109.236 180.336 108.35 183.153 107.243 185.431C104.902 190.254 99.8727 193.281 97.5597 192.397C94.4962 191.223 94.8033 184.522 98.736 179.192L98.7385 179.194Z" fill="#2F363C"/>
<path fill-rule="evenodd" clip-rule="evenodd" d="M97.3219 178.69C103.726 170.4 102.062 164.556 105.262 164.207C108.461 163.859 109.883 169.478 108.439 176.758C107.832 179.822 106.812 182.693 105.596 185.016C103.023 189.931 97.8246 193.029 95.5388 192.135C92.5076 190.949 93.1217 184.126 97.3194 178.69H97.3219Z" fill="white"/>
<path fill-rule="evenodd" clip-rule="evenodd" d="M96.4525 177.217C103.28 169.955 101.997 164.123 105.175 164.158C108.352 164.192 109.412 169.779 107.542 176.639C106.755 179.528 105.573 182.179 104.231 184.279C101.391 188.727 96.0711 191.114 93.8695 189.987C90.9522 188.493 91.975 181.979 96.4525 177.22V177.217Z" fill="#FFAE00"/>
<path fill-rule="evenodd" clip-rule="evenodd" d="M103.352 185.498C100.403 189.152 95.8607 191.005 93.8695 189.987C91.8487 188.952 91.7199 185.505 93.3198 181.902C93.9389 181.843 94.5754 181.826 95.2217 181.858C98.6393 182.021 101.601 183.447 103.35 185.498H103.352Z" fill="#2690FF"/>
<path fill-rule="evenodd" clip-rule="evenodd" d="M119.833 135.986C119.925 131.417 116.284 127.639 111.705 127.547C107.126 127.456 103.34 131.088 103.248 135.657C103.248 135.714 103.05 155.366 97.8419 167.798C96.0787 172.013 98.0747 176.857 102.297 178.616C106.52 180.375 111.376 178.384 113.137 174.171C119.618 158.702 119.831 136.053 119.833 135.988V135.986Z" fill="#2F363C"/>
<path fill-rule="evenodd" clip-rule="evenodd" d="M88.8891 187.415C84.4314 178.354 87.3364 173.036 84.2804 172.147C81.2268 171.257 78.6067 176.4 78.4309 183.632C78.3566 186.677 78.728 189.607 79.4091 192.046C80.8529 197.208 85.266 201.08 87.6979 200.618C90.9223 200.008 91.8114 193.356 88.8891 187.415Z" fill="#2F363C"/>
<path fill-rule="evenodd" clip-rule="evenodd" d="M90.3725 187.171C85.5458 177.877 88.2228 172.421 85.1371 171.509C82.0514 170.6 79.6492 175.878 79.7755 183.296C79.8275 186.42 80.3203 189.427 81.1029 191.927C82.7572 197.22 87.3239 201.191 89.7335 200.714C92.9257 200.087 93.5374 193.262 90.3749 187.168L90.3725 187.171Z" fill="white"/>
<path fill-rule="evenodd" clip-rule="evenodd" d="M91.4894 185.876C86.0633 177.521 88.364 172.008 85.2312 171.477C82.0985 170.948 80.0603 176.259 80.6819 183.338C80.9419 186.318 81.6329 189.14 82.5789 191.446C84.5799 196.326 89.3918 199.617 91.7593 198.898C94.897 197.944 95.0481 191.352 91.4918 185.873L91.4894 185.876Z" fill="#FFAE00"/>
<path fill-rule="evenodd" clip-rule="evenodd" d="M83.2253 192.8C85.4765 196.919 89.6172 199.548 91.7569 198.898C93.9313 198.238 94.6693 194.868 93.7356 191.038C93.1363 190.87 92.5147 190.741 91.8708 190.657C88.478 190.213 85.3106 191.09 83.2253 192.8Z" fill="#2690FF"/>
<path fill-rule="evenodd" clip-rule="evenodd" d="M75.8234 141.155C76.5466 136.641 80.8012 133.569 85.3233 134.291C89.8454 135.012 92.9261 139.257 92.2005 143.772C92.1931 143.826 88.887 163.202 91.7993 176.36C92.7825 180.82 89.9593 185.233 85.4892 186.214C81.0191 187.195 76.5986 184.378 75.6129 179.918C71.9873 163.548 75.811 141.219 75.8234 141.155Z" fill="#2F363C"/>
<path fill-rule="evenodd" clip-rule="evenodd" d="M107.163 138.832C106.903 138.86 106.633 138.899 106.359 138.956C105.019 139.23 103.518 139.875 101.854 141.044C100.989 141.652 100.779 142.845 101.388 143.71C101.997 144.575 103.196 144.783 104.06 144.172C105.712 143.013 107.069 142.697 108.154 142.811C108.154 142.811 109.514 142.942 109.821 141.261C109.858 141.056 109.868 140.866 109.853 140.688C109.719 139.055 108.493 138.697 107.163 138.832Z" fill="#E6ADA1"/>
<path fill-rule="evenodd" clip-rule="evenodd" d="M103.578 155.24C107.438 155.396 110.707 152.09 110.878 147.857C111.052 143.621 108.06 140.063 104.199 139.907C100.338 139.752 97.0694 143.058 96.896 147.293C96.7251 151.529 99.7143 155.087 103.578 155.243V155.24Z" fill="#FFC7BB"/>
<path fill-rule="evenodd" clip-rule="evenodd" d="M110.378 140.713C110.106 140.661 109.821 140.621 109.526 140.594C108.087 140.468 106.371 140.666 104.333 141.345C103.273 141.699 102.698 142.845 103.053 143.903C103.407 144.961 104.556 145.534 105.616 145.178C107.642 144.503 109.11 144.597 110.175 145.04C110.175 145.04 111.51 145.583 112.332 143.975C112.431 143.779 112.498 143.587 112.538 143.404C112.899 141.711 111.767 140.977 110.378 140.71V140.713Z" fill="#FFC7BB"/>
<path fill-rule="evenodd" clip-rule="evenodd" d="M87.7971 169.523C84.642 169.065 82.4925 165.888 82.9977 162.428C83.5004 158.969 86.4672 156.532 89.6223 156.992C92.7774 157.449 94.927 160.627 94.4218 164.086C93.9165 167.546 90.9522 169.982 87.7971 169.523Z" fill="#FFC7BB"/>
<path fill-rule="evenodd" clip-rule="evenodd" d="M79.0897 153.995C78.582 153.305 78.7306 152.334 79.4216 151.825C80.1125 151.318 81.0858 151.464 81.5934 152.156C81.6009 152.168 84.6891 156.498 87.6411 156.933C88.4905 157.056 89.0799 157.847 88.9561 158.694C88.8323 159.542 88.0398 160.13 87.1903 160.007C82.906 159.374 79.1021 154.012 79.0897 153.997V153.995Z" fill="#FFC7BB"/>
<path fill-rule="evenodd" clip-rule="evenodd" d="M75.6053 156.745C74.9713 156.07 75.0035 155.008 75.6796 154.375C76.3557 153.74 77.4206 153.775 78.0546 154.449C78.0645 154.462 81.9402 158.712 85.1646 158.796C86.0933 158.82 86.8264 159.591 86.8016 160.518C86.7768 161.445 86.0042 162.176 85.078 162.151C80.3949 162.025 75.6177 156.757 75.6053 156.745Z" fill="#FFC7BB"/>
<path fill-rule="evenodd" clip-rule="evenodd" d="M75.2983 159.969C74.6247 159.332 74.5974 158.269 75.2364 157.6C75.8753 156.928 76.9402 156.9 77.6113 157.538C77.6237 157.548 81.7347 161.568 84.9591 161.472C85.8878 161.442 86.6629 162.171 86.6951 163.095C86.7248 164.022 85.9943 164.798 85.0656 164.825C80.3825 164.968 75.3106 159.984 75.2983 159.969Z" fill="#FFC7BB"/>
<path fill-rule="evenodd" clip-rule="evenodd" d="M78.0175 166.569C77.3167 166.164 77.0789 165.267 77.4851 164.568C77.8912 163.869 78.7902 163.631 79.4911 164.037C79.5034 164.044 83.8101 166.629 86.5293 165.895C87.3118 165.682 88.1192 166.144 88.3297 166.925C88.5427 167.706 88.0796 168.512 87.297 168.724C83.3494 169.789 78.0324 166.577 78.0175 166.569Z" fill="#FFC7BB"/>
<path fill-rule="evenodd" clip-rule="evenodd" d="M90.2885 152.976C89.7487 152.309 88.7705 152.206 88.1018 152.744C87.4332 153.283 87.3291 154.259 87.869 154.926C87.8789 154.938 91.2866 159.018 90.9572 161.978C90.8606 162.828 91.4773 163.599 92.3292 163.693C93.1836 163.79 93.9538 163.174 94.0479 162.324C94.5259 158.027 90.296 152.994 90.2861 152.979L90.2885 152.976Z" fill="#FFC7BB"/>
<path fill-rule="evenodd" clip-rule="evenodd" d="M52.6111 153.335C55.3972 150.59 59.7583 150.481 62.3512 153.093C64.9416 155.705 64.7831 160.051 61.9971 162.796C57.3536 167.37 54.4091 171.242 53.0346 174.287C51.5289 177.618 53.3392 178.379 55.2486 178.603C58.9485 179.041 64.5157 178.24 71.8387 175.93C75.5237 174.771 79.2731 176.758 80.2117 180.365C81.1503 183.973 78.9239 187.835 75.2364 188.994C64.1368 192.498 55.365 193.168 49.3991 191.589C45.1692 190.469 42.081 188.28 40.2212 185.159C38.3291 181.981 37.8784 178.149 38.9557 173.802C40.3945 168 44.8522 160.978 52.6136 153.335H52.6111Z" fill="#FF8C47"/>
<path d="M73.9759 190.536C77.4527 190.536 80.2712 186.88 80.2712 182.369C80.2712 177.859 77.4527 174.203 73.9759 174.203C70.4991 174.203 67.6807 177.859 67.6807 182.369C67.6807 186.88 70.4991 190.536 73.9759 190.536Z" fill="#FF8C47"/>
<path fill-rule="evenodd" clip-rule="evenodd" d="M75.1003 175.73C77.8987 175.73 80.1697 178.673 80.1697 182.305C80.1697 185.938 77.9012 188.881 75.1003 188.881C72.2994 188.881 70.0309 185.935 70.0309 182.305C70.0309 178.675 72.2994 175.73 75.1003 175.73Z" fill="#2F363C"/>
<path fill-rule="evenodd" clip-rule="evenodd" d="M77.8195 187.924C80.9745 187.467 83.1241 184.292 82.6189 180.83C82.1162 177.371 79.1493 174.937 75.9943 175.394C72.8392 175.851 70.6896 179.029 71.1948 182.488C71.7 185.948 74.6644 188.381 77.8195 187.924Z" fill="#FFC7BB"/>
<path fill-rule="evenodd" clip-rule="evenodd" d="M86.5269 172.399C87.0346 171.709 86.886 170.738 86.1951 170.229C85.5041 169.723 84.5309 169.871 84.0232 170.56C84.0133 170.573 80.9276 174.902 77.9756 175.337C77.1261 175.46 76.5367 176.249 76.663 177.099C76.7869 177.946 77.5769 178.534 78.4263 178.411C82.7131 177.778 86.5146 172.416 86.5269 172.401V172.399Z" fill="#FFC7BB"/>
<path fill-rule="evenodd" clip-rule="evenodd" d="M90.0089 175.149C90.6453 174.475 90.6107 173.412 89.9346 172.777C89.2585 172.144 88.1936 172.176 87.5596 172.851C87.5497 172.863 83.674 177.114 80.4496 177.2C79.5209 177.222 78.7879 177.996 78.8126 178.922C78.8374 179.849 79.61 180.58 80.5387 180.556C85.2218 180.43 89.9965 175.164 90.0114 175.149H90.0089Z" fill="#FFC7BB"/>
<path fill-rule="evenodd" clip-rule="evenodd" d="M90.3185 178.374C90.9921 177.736 91.0194 176.674 90.3804 176.002C89.7415 175.329 88.6766 175.302 88.0055 175.94C87.9931 175.95 83.8821 179.973 80.6577 179.874C79.729 179.844 78.9514 180.573 78.9217 181.5C78.8919 182.426 79.6225 183.2 80.5487 183.229C85.2293 183.373 90.3037 178.389 90.316 178.374H90.3185Z" fill="#FFC7BB"/>
<path fill-rule="evenodd" clip-rule="evenodd" d="M87.5991 184.974C88.2999 184.569 88.5377 183.672 88.1315 182.972C87.7254 182.273 86.8264 182.036 86.1256 182.441C86.1132 182.449 81.8066 185.033 79.0874 184.302C78.3048 184.089 77.4975 184.551 77.2845 185.332C77.0715 186.113 77.5346 186.919 78.3172 187.131C82.2647 188.196 87.5818 184.984 87.5966 184.976L87.5991 184.974Z" fill="#FFC7BB"/>
<path fill-rule="evenodd" clip-rule="evenodd" d="M75.3258 171.381C75.8657 170.714 76.8439 170.61 77.5125 171.149C78.1812 171.687 78.2852 172.663 77.7453 173.33C77.7354 173.343 74.3278 177.422 74.6571 180.383C74.7537 181.235 74.1371 182.004 73.2852 182.098C72.4308 182.194 71.6606 181.579 71.5665 180.729C71.0885 176.432 75.3184 171.398 75.3283 171.383L75.3258 171.381Z" fill="#FFC7BB"/>
<path fill-rule="evenodd" clip-rule="evenodd" d="M113.664 179.214C110.509 178.757 108.36 175.582 108.865 172.12C109.367 168.66 112.334 166.226 115.489 166.683C118.644 167.14 120.794 170.318 120.289 173.778C119.784 177.237 116.819 179.671 113.662 179.214H113.664Z" fill="#FFC7BB"/>
<path fill-rule="evenodd" clip-rule="evenodd" d="M104.957 163.688C104.449 162.999 104.598 162.028 105.289 161.519C105.98 161.012 106.953 161.161 107.461 161.85C107.47 161.862 110.556 166.192 113.508 166.626C114.358 166.75 114.947 167.541 114.821 168.388C114.697 169.236 113.904 169.824 113.055 169.7C108.768 169.07 104.967 163.706 104.954 163.691L104.957 163.688Z" fill="#FFC7BB"/>
<path fill-rule="evenodd" clip-rule="evenodd" d="M101.475 166.439C100.838 165.764 100.873 164.702 101.549 164.066C102.225 163.434 103.29 163.466 103.924 164.141C103.934 164.153 107.807 168.401 111.034 168.487C111.963 168.512 112.696 169.283 112.674 170.209C112.649 171.136 111.876 171.868 110.947 171.843C106.264 171.717 101.487 166.451 101.475 166.436V166.439Z" fill="#FFC7BB"/>
<path fill-rule="evenodd" clip-rule="evenodd" d="M101.165 169.663C100.492 169.026 100.464 167.963 101.103 167.291C101.742 166.619 102.807 166.592 103.478 167.229C103.491 167.239 107.602 171.26 110.826 171.161C111.755 171.131 112.532 171.86 112.56 172.787C112.589 173.713 111.859 174.487 110.933 174.516C106.25 174.66 101.178 169.676 101.165 169.661V169.663Z" fill="#FFC7BB"/>
<path fill-rule="evenodd" clip-rule="evenodd" d="M103.885 176.264C103.184 175.858 102.946 174.961 103.352 174.262C103.758 173.563 104.657 173.325 105.358 173.731C105.371 173.738 109.677 176.323 112.396 175.591C113.179 175.379 113.986 175.841 114.199 176.622C114.412 177.403 113.949 178.208 113.167 178.421C109.219 179.486 103.902 176.273 103.887 176.266L103.885 176.264Z" fill="#FFC7BB"/>
<path fill-rule="evenodd" clip-rule="evenodd" d="M116.158 162.67C115.618 162.003 114.64 161.899 113.971 162.438C113.303 162.977 113.199 163.953 113.739 164.62C113.748 164.632 117.156 168.712 116.827 171.672C116.73 172.525 117.344 173.293 118.199 173.39C119.053 173.486 119.821 172.871 119.917 172.021C120.395 167.724 116.166 162.69 116.156 162.675L116.158 162.67Z" fill="#FFC7BB"/>
<path fill-rule="evenodd" clip-rule="evenodd" d="M140.153 146.307C137.367 143.562 133.006 143.453 130.415 146.065C127.825 148.677 127.983 153.023 130.769 155.769C135.413 160.343 138.355 164.215 139.732 167.259C141.238 170.59 139.427 171.351 137.518 171.576C133.818 172.013 128.251 171.213 120.928 168.902C117.243 167.746 113.493 169.73 112.555 173.338C111.616 176.945 113.843 180.808 117.528 181.967C128.627 185.47 137.399 186.14 143.365 184.561C147.597 183.442 150.685 181.252 152.543 178.132C154.435 174.954 154.886 171.121 153.808 166.775C152.369 160.973 147.912 153.95 140.15 146.307H140.153Z" fill="#FFAE00"/>
<path fill-rule="evenodd" clip-rule="evenodd" d="M100.009 45.9071C94.9668 46.1345 90.9871 48.7636 91.1233 51.7758C91.2595 54.788 95.4596 57.0465 100.504 56.8192C105.549 56.5918 109.526 53.9627 109.39 50.9505C109.254 47.9383 105.054 45.6798 100.009 45.9071Z" fill="#2690FF"/>
<path fill-rule="evenodd" clip-rule="evenodd" d="M100.009 45.9071C94.9668 46.1345 90.9871 48.7636 91.1233 51.7758C91.2595 54.788 95.4596 57.0465 100.504 56.8192C105.549 56.5918 109.526 53.9627 109.39 50.9505C109.254 47.9383 105.054 45.6798 100.009 45.9071Z" fill="black" fill-opacity="0.25"/>
<path fill-rule="evenodd" clip-rule="evenodd" d="M100.063 44.7409C95.0186 44.9682 91.0414 47.5974 91.1776 50.6095C91.3138 53.6217 95.5139 55.8802 100.559 55.6529C105.603 55.4256 109.58 52.7964 109.444 49.7842C109.308 46.772 105.108 44.5135 100.063 44.7409Z" fill="#2690FF"/>
<path fill-rule="evenodd" clip-rule="evenodd" d="M99.9545 45.2277C96.3809 45.3883 93.5627 47.2515 93.6617 49.384C93.7583 51.519 96.7326 53.1177 100.306 52.9571C103.88 52.7965 106.698 50.9333 106.599 48.8008C106.502 46.6659 103.528 45.0671 99.9545 45.2302V45.2277Z" fill="#FFC7BB"/>
<path fill-rule="evenodd" clip-rule="evenodd" d="M98.8547 52.9966C99.3377 53.0435 99.8379 53.0559 100.353 53.0337C103.927 52.873 106.742 51.0099 106.646 48.8774C106.557 46.8907 103.966 45.3661 100.724 45.2969C103.595 45.5712 105.786 47.0044 105.871 48.8329C105.967 50.9679 103.149 52.8286 99.5779 52.9892C99.3327 53.0015 99.0925 53.004 98.8547 52.9991V52.9966Z" fill="#E6ADA1"/>
<path fill-rule="evenodd" clip-rule="evenodd" d="M100.593 24.933C100.593 24.933 100.584 24.9528 100.579 24.9627C99.4468 27.362 100.479 30.221 102.882 31.3503C103.808 31.7852 104.803 31.8988 105.74 31.7382C106.351 31.6344 106.807 31.1649 106.889 30.5497C106.973 29.9344 106.661 29.3636 106.099 29.0992L105.145 28.6519C103.924 28.0786 103.219 26.8431 103.253 25.5755C103.271 24.9083 102.83 24.3375 102.183 24.1818C101.534 24.0262 100.881 24.335 100.593 24.9355V24.933Z" fill="#2F363C"/>
<path fill-rule="evenodd" clip-rule="evenodd" d="M102.924 29.4427C102.924 29.4427 102.948 29.4427 102.961 29.4377C105.92 29.156 108.545 31.3231 108.828 34.276C108.934 35.4151 108.679 36.5024 108.154 37.4265C107.812 38.0295 107.144 38.3285 106.465 38.1851C105.787 38.0393 105.299 37.4957 105.234 36.8038L105.123 35.6326C104.982 34.1327 103.944 32.9243 102.592 32.4795C101.884 32.2473 101.445 31.5677 101.527 30.8264C101.609 30.0851 102.181 29.5168 102.926 29.4427H102.924Z" fill="#2F363C"/>
<path fill-rule="evenodd" clip-rule="evenodd" d="M99.4964 28.0368C99.4964 28.0368 99.479 28.0219 99.4716 28.017C97.4681 26.3317 94.474 26.5863 92.785 28.5853C92.1337 29.3563 91.7721 30.273 91.6879 31.2046C91.6335 31.8125 91.9653 32.3635 92.53 32.6007C93.0946 32.8355 93.7236 32.6847 94.1174 32.2177L94.7885 31.4245C95.6454 30.4089 97.005 30.0506 98.2086 30.4065C98.8401 30.5918 99.4988 30.32 99.8133 29.7418C100.128 29.1635 99.9966 28.4642 99.4964 28.0368Z" fill="#2F363C"/>
<path fill-rule="evenodd" clip-rule="evenodd" d="M99.3898 36.5791C96.9801 36.7397 95.1005 38.2347 95.2144 39.8977L95.8013 48.6228C95.9128 50.2858 97.9757 51.5164 100.385 51.3533C102.795 51.1927 104.672 49.7002 104.561 48.0347L103.974 39.3095C103.862 37.6466 101.799 36.416 99.3898 36.5766V36.5791Z" fill="#FFC7BB"/>
<path fill-rule="evenodd" clip-rule="evenodd" d="M107.253 37.0263C106.029 36.5815 104.677 37.2091 104.229 38.4298C103.783 39.6505 104.412 40.9997 105.636 41.4469C106.859 41.8917 108.214 41.2641 108.659 40.0434C109.105 38.8227 108.476 37.471 107.253 37.0263Z" fill="#E6ADA1"/>
<path fill-rule="evenodd" clip-rule="evenodd" d="M92.5794 32.1608C91.356 31.716 90.0039 32.3436 89.5556 33.5643C89.1074 34.785 89.7389 36.1367 90.9623 36.5814C92.1857 37.0262 93.5403 36.3986 93.9861 35.1779C94.4319 33.9572 93.8028 32.608 92.5794 32.1608Z" fill="#E6ADA1"/>
<path fill-rule="evenodd" clip-rule="evenodd" d="M102.067 28.4074C97.8072 26.8556 93.0919 29.0449 91.5342 33.295C89.9789 37.5477 92.1731 42.2525 96.4327 43.8043C100.692 45.3561 105.408 43.1693 106.965 38.9166C108.521 34.664 106.326 29.9592 102.067 28.4074Z" fill="#FFC7BB"/>
<path fill-rule="evenodd" clip-rule="evenodd" d="M102.681 37.6291C102.436 37.5402 102.163 37.6662 102.074 37.9108L101.854 38.5113C101.765 38.7559 101.891 39.0302 102.136 39.1191C102.381 39.2081 102.656 39.0821 102.745 38.8374L102.966 38.2395C103.055 37.9948 102.929 37.7205 102.684 37.6316L102.681 37.6291Z" fill="#3D464D"/>
<path fill-rule="evenodd" clip-rule="evenodd" d="M96.0342 35.5586C95.789 35.4696 95.5166 35.5956 95.4275 35.8403L95.2071 36.4407C95.1179 36.6853 95.2442 36.9596 95.4894 37.0486C95.7345 37.1375 96.0094 37.0115 96.0986 36.7669L96.319 36.1689C96.4082 35.9243 96.2819 35.65 96.0367 35.561L96.0342 35.5586Z" fill="#3D464D"/>
<path fill-rule="evenodd" clip-rule="evenodd" d="M99.7514 37.985C97.2526 37.0757 94.4888 38.3581 93.575 40.8514C92.6637 43.3447 93.949 46.1048 96.4478 47.0141C98.9465 47.9235 101.71 46.641 102.624 44.1477C103.536 41.6545 102.25 38.8943 99.7514 37.985Z" fill="#2F363C"/>
<path fill-rule="evenodd" clip-rule="evenodd" d="M106.418 30.441C106.418 30.441 106.423 30.4361 106.423 30.4311C106.923 29.7145 107.911 29.5366 108.63 30.0358C108.907 30.2285 109.103 30.4929 109.212 30.7845C109.283 30.9772 109.224 31.1823 109.061 31.3084C108.9 31.4344 108.684 31.4393 108.516 31.3232L108.231 31.1255C107.867 30.871 107.396 30.8735 107.04 31.0934C106.851 31.207 106.616 31.1774 106.465 31.0168C106.314 30.8586 106.294 30.6214 106.418 30.4386V30.441Z" fill="#2F363C"/>
<path fill-rule="evenodd" clip-rule="evenodd" d="M106.842 30.9574C106.842 30.9574 106.849 30.9574 106.852 30.955C107.696 30.7202 108.186 29.8455 107.951 29.0053C107.86 28.6816 107.674 28.4098 107.434 28.2096C107.275 28.0812 107.06 28.0688 106.889 28.18C106.718 28.2912 106.641 28.4938 106.696 28.689L106.79 29.0226C106.909 29.4501 106.753 29.8924 106.428 30.1568C106.257 30.2952 106.21 30.5275 106.312 30.7251C106.413 30.9204 106.631 31.0167 106.844 30.9574H106.842Z" fill="#2F363C"/>
<path fill-rule="evenodd" clip-rule="evenodd" d="M95.6477 22.5041C95.6403 22.5189 95.6329 22.5362 95.6255 22.5535C93.7507 26.5269 95.462 31.2639 99.4417 33.1344C100.977 33.856 102.624 34.0438 104.177 33.7769C105.192 33.6039 105.943 32.8255 106.081 31.8075C106.22 30.7894 105.702 29.8405 104.771 29.4032L103.191 28.6619C101.17 27.713 99.999 25.6645 100.056 23.5641C100.086 22.4596 99.3551 21.5132 98.2827 21.2537C97.2079 20.9943 96.1257 21.5083 95.6477 22.5041Z" fill="#2F363C"/>
<path fill-rule="evenodd" clip-rule="evenodd" d="M96.3809 39.9149C96.4205 40.8094 97.0322 41.615 97.946 41.8596C98.8574 42.1042 99.7935 41.7113 100.276 40.9552C100.346 40.8465 100.358 40.7254 100.311 40.6043C100.264 40.4832 100.172 40.4017 100.049 40.3696L96.8712 39.5195C96.7474 39.4874 96.626 39.5121 96.5245 39.5912C96.4254 39.6703 96.3734 39.7839 96.3784 39.9124L96.3809 39.9149Z" fill="white"/>
<path fill-rule="evenodd" clip-rule="evenodd" d="M99.8976 34.9827C99.3478 34.7751 98.7287 35.0544 98.5206 35.6029L98.0179 36.9274C97.8099 37.476 98.0897 38.0937 98.6395 38.3013C99.1893 38.5089 99.8084 38.2296 100.016 37.6811L100.519 36.3566C100.727 35.808 100.447 35.1903 99.8976 34.9827Z" fill="#FF26C9"/>
<path fill-rule="evenodd" clip-rule="evenodd" d="M99.8976 34.9827C99.3478 34.7751 98.7287 35.0544 98.5206 35.6029L98.0179 36.9274C97.8099 37.476 98.0897 38.0937 98.6395 38.3013C99.1893 38.5089 99.8084 38.2296 100.016 37.6811L100.519 36.3566C100.727 35.808 100.447 35.1903 99.8976 34.9827Z" fill="black" fill-opacity="0.25"/>
<path fill-rule="evenodd" clip-rule="evenodd" d="M99.8208 37.4586L98.3101 36.8878C97.8941 36.7297 97.426 36.9422 97.2675 37.3573C97.1115 37.7724 97.322 38.2395 97.7381 38.3976L99.2487 38.9684C99.6648 39.1266 100.133 38.9141 100.291 38.4989C100.45 38.0838 100.237 37.6168 99.8233 37.4586H99.8208Z" fill="#FF26C9"/>
<path fill-rule="evenodd" clip-rule="evenodd" d="M99.8208 37.4586L98.3101 36.8878C97.8941 36.7297 97.426 36.9422 97.2675 37.3573C97.1115 37.7724 97.322 38.2395 97.7381 38.3976L99.2487 38.9684C99.6648 39.1266 100.133 38.9141 100.291 38.4989C100.45 38.0838 100.237 37.6168 99.8233 37.4586H99.8208Z" fill="black" fill-opacity="0.25"/>
<path fill-rule="evenodd" clip-rule="evenodd" d="M101.641 35.383C101.787 35.3682 101.896 35.2373 101.881 35.0915C101.866 34.9457 101.735 34.8369 101.589 34.8518C101.584 34.8518 99.3379 35.0593 98.8897 33.0677C98.8575 32.9244 98.7139 32.833 98.5702 32.8651C98.4266 32.8972 98.335 33.0405 98.3672 33.1838C98.9194 35.6326 101.636 35.383 101.641 35.3806V35.383Z" fill="#E6ADA1"/>
<path fill-rule="evenodd" clip-rule="evenodd" d="M91.7596 34.1426C92.1657 35.4325 93.1439 36.5272 94.511 37.0387C95.878 37.5502 97.3367 37.3624 98.4907 36.6581C99.0702 36.3048 99.3773 35.6895 99.3129 35.0149C99.2485 34.3403 98.83 33.7942 98.191 33.557L94.0231 32.0002C93.3866 31.763 92.713 31.8989 92.2177 32.366C91.7249 32.833 91.5515 33.4977 91.7571 34.1451L91.7596 34.1426Z" fill="#2F363C"/>
<path fill-rule="evenodd" clip-rule="evenodd" d="M99.7935 37.1424C100.2 38.4298 101.178 39.5269 102.545 40.0384C103.912 40.5499 105.371 40.3621 106.525 39.6579C107.104 39.3045 107.411 38.6892 107.347 38.0146C107.282 37.3401 106.864 36.794 106.227 36.5567L102.057 35C101.421 34.7628 100.747 34.8987 100.252 35.3657C99.7588 35.8327 99.5855 36.4974 99.791 37.1448L99.7935 37.1424Z" fill="#2F363C"/>
<path fill-rule="evenodd" clip-rule="evenodd" d="M103.216 35.5115L103.33 36.92L103.382 37.5723L103.139 37.5105L102.215 37.2783L103.251 38.919L104.288 40.5598L104.177 39.1513L104.125 38.4989L104.367 38.5607L105.291 38.793L104.253 37.1522L103.216 35.5115Z" fill="white"/>
<path fill-rule="evenodd" clip-rule="evenodd" d="M94.6893 32.2993L94.8007 33.7053L94.8527 34.3577L94.61 34.2984L93.6863 34.0636L94.7239 35.7044L95.7616 37.3451L95.6477 35.9391L95.5957 35.2868L95.8384 35.3461L96.7621 35.5808L95.7269 33.9401L94.6893 32.2993Z" fill="white"/>
<path fill-rule="evenodd" clip-rule="evenodd" d="M129.264 17.9377C130.366 14.9527 128.595 11.5526 125.309 10.3418C122.023 9.13096 118.462 10.5716 117.359 13.5566C116.257 16.5416 118.028 19.9417 121.314 21.1525C124.603 22.3633 128.162 20.9227 129.264 17.9377Z" fill="#FFC7BB"/>
<path fill-rule="evenodd" clip-rule="evenodd" d="M119.749 2.89413C119.385 2.11823 118.459 1.78464 117.682 2.15036C116.904 2.5136 116.57 3.43776 116.936 4.21366C116.941 4.22602 119.281 9.00003 118.256 11.7948C117.959 12.6003 118.375 13.4924 119.18 13.7889C119.987 14.0829 120.881 13.6703 121.176 12.8672C122.667 8.80729 119.757 2.91143 119.749 2.89661V2.89413Z" fill="#FFC7BB"/>
<path fill-rule="evenodd" clip-rule="evenodd" d="M123.833 1.15194C123.541 0.272256 122.592 -0.204652 121.711 0.084458C120.829 0.376039 120.351 1.32491 120.643 2.20213C120.648 2.21695 122.54 7.64332 121.079 10.5122C120.656 11.3375 120.985 12.3481 121.812 12.7707C122.639 13.1932 123.652 12.8646 124.076 12.0393C126.2 7.87313 123.84 1.17171 123.835 1.15194H123.833Z" fill="#FFC7BB"/>
<path fill-rule="evenodd" clip-rule="evenodd" d="M126.82 2.41964C126.579 1.52513 125.658 0.99386 124.762 1.23355C123.865 1.47324 123.333 2.39246 123.573 3.28697C123.578 3.3018 125.155 8.827 123.528 11.6069C123.06 12.4075 123.33 13.4355 124.133 13.9025C124.935 14.3695 125.965 14.1002 126.433 13.302C128.793 9.26437 126.825 2.43694 126.82 2.41964Z" fill="#FFC7BB"/>
<path fill-rule="evenodd" clip-rule="evenodd" d="M131.334 7.95464C131.312 7.14661 130.636 6.50909 129.826 6.53133C129.016 6.55357 128.377 7.22816 128.4 8.03618C128.4 8.05101 128.623 13.0598 126.679 15.0959C126.119 15.6815 126.139 16.6082 126.726 17.1691C127.313 17.7275 128.241 17.7053 128.801 17.1221C131.624 14.1693 131.332 7.97193 131.332 7.95464H131.334Z" fill="#FFC7BB"/>
<path fill-rule="evenodd" clip-rule="evenodd" d="M113.506 12.227C113.177 11.4363 113.553 10.5295 114.346 10.1983C115.138 9.86969 116.049 10.2453 116.379 11.036C116.384 11.0484 118.35 15.9879 121.114 17.1098C121.909 17.431 122.293 18.3379 121.968 19.1336C121.646 19.9268 120.737 20.3098 119.942 19.9885C115.93 18.3577 113.516 12.2443 113.508 12.2295L113.506 12.227Z" fill="#FFC7BB"/>
<path d="M9.81464 82.9849L9.80225 82.9157L14.9658 82.0261L14.9781 82.0953L9.81464 82.9849Z" fill="#2F363C"/>
<path d="M17.8633 81.5986L17.851 81.5295L23.0145 80.6399L23.0244 80.7091L17.8633 81.5986Z" fill="#2F363C"/>
<path fill-rule="evenodd" clip-rule="evenodd" d="M36.5386 261.62C36.863 261.741 37.1948 261.86 37.5316 261.973L37.6555 261.566C37.3261 261.455 37.0041 261.341 36.6872 261.222L36.3157 261.084C35.3845 260.74 34.6391 260.461 34.0769 260.192C32.17 259.28 32.3879 258.376 34.2478 254.496C36.1175 250.597 39.4608 246.945 42.7546 244.311L42.4549 244.007C39.1315 246.673 35.7609 250.367 33.8664 254.316C31.853 258.512 31.6376 259.5 33.8937 260.577C34.4781 260.857 35.2285 261.136 36.1671 261.484L36.5386 261.623V261.62ZM39.1265 262.453L39.2627 262.05C39.9215 262.221 40.5703 262.352 41.1746 262.421C42.5243 262.574 43.656 262.416 44.1786 261.677C46.0236 259.068 41.1597 258.01 41.1449 258.007C41.0309 257.98 40.9591 257.867 40.9864 257.753C41.0037 257.669 41.0705 257.61 41.1473 257.592C41.1597 257.592 43.4207 257.118 45.7115 256.238L46.026 256.557C44.4832 257.172 42.9453 257.595 42.0438 257.82C43.4827 258.294 46.2043 259.552 44.5278 261.919C43.8987 262.811 42.6258 263.011 41.13 262.841C40.4935 262.769 39.815 262.631 39.129 262.45L39.1265 262.453ZM44.233 243.194C44.9463 242.685 45.6447 242.232 46.3133 241.842L46.0904 241.479C45.4143 241.872 44.711 242.329 43.9928 242.84L44.2306 243.194H44.233ZM47.3039 241.301L47.081 240.938C47.5342 240.705 47.9676 240.508 48.3762 240.345C49.7111 239.816 50.8106 239.665 51.4892 239.989C51.6873 240.083 51.8508 240.216 51.9746 240.389C53.8146 242.952 47.0612 248.968 44.4535 251.141C46.6006 250.431 50.8849 249.376 50.8849 252.28C50.8849 253.127 50.3847 253.886 49.6145 254.553L49.3891 254.222C50.0429 253.641 50.459 252.994 50.459 252.28C50.459 249.055 43.4356 251.963 43.4158 251.971C43.3068 252.015 43.183 251.963 43.1384 251.855C43.1038 251.766 43.131 251.664 43.2078 251.605H43.2127C43.4827 251.39 53.6289 243.419 51.6279 240.636C51.5462 240.523 51.4372 240.434 51.3059 240.372C50.7413 240.102 49.7606 240.253 48.5347 240.74C48.1459 240.893 47.7348 241.081 47.3039 241.301ZM47.7546 255.771C48.1088 255.586 48.448 255.393 48.7626 255.186L48.4778 254.896C48.1806 255.087 47.8611 255.265 47.5268 255.435L47.7546 255.769V255.771Z" fill="#2F363C"/>
<path fill-rule="evenodd" clip-rule="evenodd" d="M167.161 265.495C167.462 265.606 167.774 265.717 168.087 265.822L168.202 265.443C167.895 265.34 167.594 265.234 167.299 265.124L166.953 264.997C166.085 264.674 165.391 264.417 164.867 264.166C163.09 263.318 163.292 262.472 165.026 258.859C166.77 255.225 169.885 251.823 172.953 249.368L172.674 249.084C169.577 251.569 166.435 255.009 164.67 258.688C162.794 262.597 162.592 263.519 164.697 264.522C165.241 264.781 165.941 265.041 166.816 265.365L167.163 265.493L167.161 265.495ZM169.573 266.269L169.7 265.893C170.314 266.053 170.917 266.174 171.483 266.239C172.742 266.38 173.796 266.234 174.284 265.545C176.003 263.115 171.47 262.129 171.456 262.127C171.35 262.102 171.283 261.996 171.308 261.89C171.327 261.811 171.387 261.755 171.46 261.74C171.471 261.737 173.579 261.298 175.712 260.478L176.005 260.775C174.567 261.348 173.133 261.743 172.292 261.953C173.633 262.396 176.168 263.567 174.608 265.772C174.02 266.602 172.835 266.79 171.44 266.632C170.847 266.566 170.214 266.436 169.573 266.269ZM174.333 248.325C174.998 247.852 175.649 247.43 176.273 247.067L176.067 246.729C175.437 247.096 174.78 247.522 174.112 247.998L174.335 248.325H174.333ZM177.196 246.562L176.989 246.223C177.41 246.007 177.815 245.823 178.196 245.672C179.44 245.178 180.465 245.039 181.096 245.341C181.28 245.429 181.433 245.554 181.548 245.713C183.264 248.101 176.969 253.706 174.538 255.732C176.54 255.071 180.532 254.088 180.532 256.793C180.532 257.583 180.066 258.291 179.348 258.91L179.139 258.601C179.75 258.062 180.136 257.457 180.136 256.793C180.136 253.787 173.591 256.497 173.573 256.504C173.471 256.544 173.355 256.496 173.315 256.394C173.281 256.311 173.308 256.217 173.378 256.162L173.381 256.159C173.633 255.963 183.088 248.535 181.225 245.942C181.148 245.836 181.047 245.753 180.925 245.695C180.399 245.444 179.485 245.584 178.341 246.037C177.98 246.18 177.595 246.356 177.194 246.56L177.196 246.562ZM177.617 260.045C177.945 259.873 178.261 259.691 178.557 259.5L178.293 259.231C178.016 259.407 177.717 259.575 177.407 259.734L177.618 260.045H177.617Z" fill="#2F363C"/>
<path fill-rule="evenodd" clip-rule="evenodd" d="M61.1229 263.528C60.7885 263.451 60.4492 263.37 60.11 263.281L60.2288 262.878C60.5607 262.964 60.8925 263.046 61.217 263.12L61.5983 263.207C62.5567 263.426 63.322 263.602 63.9337 263.686C66.0065 263.968 66.321 263.1 66.8956 258.882C67.4751 254.642 66.6999 249.809 65.4146 245.845L65.8282 245.756C67.1234 249.764 67.8961 254.647 67.3116 258.939C66.69 263.501 66.3285 264.435 63.8767 264.101C63.2427 264.015 62.4676 263.839 61.5042 263.617L61.1229 263.53V263.528ZM58.5299 262.811C57.8638 262.586 57.2273 262.334 56.6627 262.048C55.3328 261.375 54.3892 260.518 54.3546 259.441C54.2605 256.574 57.1951 257.009 58.6439 257.4C58.0198 256.725 56.9797 255.539 56.0386 254.195L56.472 254.101C57.8861 256.07 59.4983 257.689 59.5082 257.696C59.5627 257.753 59.5849 257.839 59.5552 257.916C59.5131 258.025 59.3943 258.079 59.2853 258.04C59.2729 258.035 54.674 256.27 54.7781 259.428C54.8078 260.323 55.6572 261.069 56.8558 261.674C57.3932 261.946 58.0025 262.191 58.6389 262.406L58.5324 262.814L58.5299 262.811ZM64.8054 244.115C64.4934 243.307 64.1615 242.554 63.8198 241.869L64.2011 241.689C64.5454 242.381 64.8797 243.142 65.1942 243.952L64.8054 244.113V244.115ZM63.2972 240.883L63.6786 240.703C63.431 240.266 63.1808 239.868 62.9307 239.509C62.1159 238.346 61.2888 237.626 60.5508 237.525C60.3353 237.496 60.1273 237.518 59.9341 237.592C57.0143 238.711 59.32 247.352 60.2908 250.565C58.9014 248.813 55.9346 245.615 54.3521 248.017C53.889 248.719 53.889 249.616 54.1639 250.585L54.5304 250.431C54.305 249.596 54.315 248.835 54.7038 248.244C56.4621 245.578 60.6845 251.795 60.6944 251.81C60.7613 251.904 60.8925 251.929 60.9891 251.865C61.0684 251.81 61.0981 251.711 61.0684 251.622V251.617C60.9594 251.296 56.9153 239.201 60.0852 237.982C60.214 237.933 60.3527 237.918 60.4938 237.938C61.108 238.022 61.8361 238.679 62.5865 239.747C62.8242 240.085 63.0619 240.463 63.2972 240.878V240.883ZM55.0381 252.603C54.8474 252.26 54.6716 251.914 54.523 251.57L54.9143 251.486C55.0579 251.805 55.2238 252.126 55.4071 252.45L55.0381 252.603Z" fill="#2F363C"/>
<path fill-rule="evenodd" clip-rule="evenodd" d="M50.8826 158.24C53.3022 158.24 55.2636 160.197 55.2636 162.611C55.2636 165.025 53.3022 166.982 50.8826 166.982C48.4631 166.982 46.5017 165.025 46.5017 162.611C46.5017 160.197 48.4631 158.24 50.8826 158.24Z" fill="#FFAE00"/>
<path fill-rule="evenodd" clip-rule="evenodd" d="M131.074 193.21C131.074 193.086 131.176 192.985 131.3 192.985C131.423 192.985 131.525 193.086 131.525 193.21C131.525 193.21 131.542 193.86 131.626 195.048C131.634 195.172 131.54 195.28 131.416 195.288C131.292 195.295 131.186 195.201 131.178 195.078C131.094 193.874 131.077 193.212 131.077 193.21H131.074ZM131.322 196.859C131.312 196.736 131.404 196.627 131.525 196.617C131.649 196.607 131.758 196.696 131.768 196.82C131.827 197.47 131.904 198.216 131.998 199.056V199.069C132.08 199.78 132.176 200.551 132.288 201.379C132.305 201.502 132.218 201.614 132.095 201.631C131.971 201.648 131.859 201.562 131.842 201.438C131.73 200.61 131.634 199.832 131.552 199.111C131.461 198.3 131.384 197.544 131.322 196.862V196.859ZM132.305 204.564C132.285 204.443 132.369 204.327 132.491 204.307C132.612 204.287 132.729 204.371 132.748 204.492C133.935 211.878 136.262 222.16 140.802 233.092C144.091 241.009 148.543 249.27 154.564 257.014C154.641 257.113 154.621 257.254 154.522 257.328C154.425 257.404 154.281 257.385 154.207 257.286C148.16 249.505 143.687 241.212 140.386 233.263C135.829 222.294 133.494 211.975 132.303 204.562L132.305 204.564ZM155.47 258.875C155.391 258.778 155.408 258.637 155.502 258.558C155.599 258.482 155.74 258.497 155.819 258.591L157.313 260.384C157.394 260.478 157.382 260.622 157.288 260.701C157.194 260.782 157.053 260.77 156.971 260.676L155.47 258.872V258.875Z" fill="#FFAE00"/>
<path fill-rule="evenodd" clip-rule="evenodd" d="M120.339 167.511C123.429 168.388 125.007 172.347 123.865 176.357C122.723 180.365 119.293 182.906 116.205 182.031C113.115 181.154 111.535 177.195 112.676 173.185C113.818 169.174 117.248 166.636 120.339 167.511Z" fill="#FFAE00"/>
<path fill-rule="evenodd" clip-rule="evenodd" d="M71.1156 18.422C70.0754 15.4148 71.918 12.0517 75.2315 10.9126C78.5426 9.77345 82.0716 11.2857 83.1117 14.2954C84.1519 17.3027 82.3069 20.6657 78.9958 21.8049C75.6822 22.944 72.1557 21.4293 71.1156 18.422Z" fill="#FFC7BB"/>
<path fill-rule="evenodd" clip-rule="evenodd" d="M80.9473 3.58098C81.3286 2.81496 82.2623 2.50114 83.03 2.87921C83.8002 3.25974 84.1147 4.19132 83.7333 4.95734C83.7259 4.96969 81.2865 9.69182 82.2549 12.5088C82.5347 13.3193 82.1013 14.2039 81.289 14.4807C80.4767 14.7599 79.5901 14.3275 79.3128 13.517C77.9086 9.42742 80.9423 3.59333 80.9497 3.57851L80.9473 3.58098Z" fill="#FFC7BB"/>
<path fill-rule="evenodd" clip-rule="evenodd" d="M76.9007 1.75498C77.2102 0.882707 78.1711 0.425567 79.0453 0.734445C79.9195 1.04332 80.3777 2.00208 80.0681 2.87435C80.0632 2.88918 78.0547 8.27354 79.4564 11.172C79.8601 12.0073 79.5109 13.0105 78.6739 13.4133C77.8393 13.816 76.8313 13.4676 76.4277 12.6324C74.392 8.4218 76.8933 1.77228 76.8982 1.75251L76.9007 1.75498Z" fill="#FFC7BB"/>
<path fill-rule="evenodd" clip-rule="evenodd" d="M73.8892 2.95837C74.1493 2.0688 75.0804 1.5573 75.972 1.81676C76.8635 2.07622 77.3762 3.00532 77.1161 3.89489C77.1112 3.90972 75.4173 9.40033 76.9849 12.2148C77.4356 13.0253 77.1458 14.0483 76.3336 14.498C75.5213 14.9478 74.496 14.6562 74.0453 13.8482C71.7694 9.76357 73.8843 2.97814 73.8892 2.95837Z" fill="#FFC7BB"/>
<path fill-rule="evenodd" clip-rule="evenodd" d="M69.2557 8.39712C69.2953 7.5891 69.9838 6.9664 70.7936 7.00593C71.6034 7.04547 72.2275 7.73241 72.1879 8.54044C72.1879 8.55279 71.8585 13.5591 73.7604 15.6347C74.3077 16.2303 74.2681 17.1594 73.6688 17.7055C73.072 18.2516 72.1408 18.212 71.5935 17.614C68.8347 14.6019 69.2557 8.41442 69.2557 8.39712Z" fill="#FFC7BB"/>
<path fill-rule="evenodd" clip-rule="evenodd" d="M86.9898 13.045C87.3366 12.2617 86.9799 11.345 86.1949 10.999C85.4098 10.6531 84.491 11.0089 84.1443 11.7922C84.1394 11.8046 82.069 16.6997 79.283 17.7647C78.4806 18.0686 78.0794 18.9681 78.384 19.7687C78.6886 20.5693 79.5901 20.9696 80.3924 20.6657C84.439 19.1188 86.9824 13.0599 86.9898 13.0426V13.045Z" fill="#FFC7BB"/>
<path d="M95.0411 61.4722H91.2867V62.1023H95.0411V61.4722Z" fill="#2690FF"/>
<path d="M94.0505 62.8237H92.2773V63.4538H94.0505V62.8237Z" fill="#2690FF"/>
<path fill-rule="evenodd" clip-rule="evenodd" d="M55.2363 195.953C55.37 195.841 55.5681 195.861 55.6771 195.995C55.7886 196.128 55.7687 196.326 55.635 196.434C55.583 196.476 37.559 211.154 24.6565 249.762C24.602 249.925 24.4237 250.016 24.2602 249.962C24.0968 249.907 24.0051 249.729 24.0596 249.566C37.0191 210.789 55.1818 195.997 55.2338 195.955L55.2363 195.953ZM22.7025 253.784C22.752 253.619 22.9303 253.525 23.0963 253.577C23.2622 253.626 23.3563 253.804 23.3043 253.97L22.4128 256.93C22.3657 257.096 22.1899 257.192 22.0239 257.145C21.858 257.098 21.7614 256.923 21.811 256.757L22.2543 255.262L22.705 253.787L22.7025 253.784ZM21.4717 257.899C21.5187 257.731 21.6946 257.637 21.8605 257.684C22.0264 257.731 22.123 257.906 22.0759 258.072L21.4989 260.11C21.4543 260.276 21.2785 260.375 21.1126 260.328C20.9467 260.281 20.8476 260.108 20.8947 259.942L21.4717 257.899Z" fill="#2690FF"/>
</svg>
