<svg width="665" height="93" viewBox="0 0 665 93" fill="none" xmlns="http://www.w3.org/2000/svg">
<path d="M0.5 63.6611C35.9198 43.6808 105.15 17.4259 148.394 50.1144C189.61 81.2701 82.3762 121.231 87.2747 50.1144C92.1732 -21.002 356.315 63.999 445.618 63.999C534.921 63.999 396.773 -61.1507 399.41 41.1215C402.048 143.394 652.819 60.2949 664.5 57.9243" stroke="#C5CACC" stroke-dasharray="4 8 16 16 32 8 36 8"/>
<path fill-rule="evenodd" clip-rule="evenodd" d="M280.567 34.7454L281.942 21.7016L313.793 44.6212L273.326 49.3242L280.09 37.8565L274.458 34.758L280.567 34.7454Z" fill="#2690FF"/>
<path fill-rule="evenodd" clip-rule="evenodd" d="M315.592 46.1614L282.369 36.2844C282.196 36.2329 282.092 36.0667 282.109 35.8972L283.483 22.8534C283.506 22.6509 283.689 22.5022 283.89 22.5244C283.958 22.5314 284.019 22.5547 284.07 22.5928L315.921 45.5124C316.086 45.6314 316.121 45.8625 316.003 46.0264C315.907 46.1566 315.741 46.2064 315.596 46.163L315.592 46.1614ZM282.879 35.6664L313.713 44.8325L284.157 23.5635L282.881 35.6692L282.879 35.6664Z" fill="#2F363C"/>
<path fill-rule="evenodd" clip-rule="evenodd" d="M274.922 50.3163L281.68 38.8581C281.765 38.7192 281.923 38.6524 282.074 38.6836L315.777 45.4482C315.978 45.4871 316.106 45.6833 316.064 45.8808C316.028 46.0523 315.881 46.1679 315.715 46.1776L275.276 50.8748C275.074 50.8969 274.891 50.7522 274.867 50.5534C274.856 50.4672 274.878 50.3865 274.922 50.3163V50.3163ZM282.182 39.4587L275.928 50.0621L313.344 45.715L282.182 39.4587Z" fill="#2F363C"/>
<path fill-rule="evenodd" clip-rule="evenodd" d="M276.391 35.5802L282.477 35.568L282.587 35.5836L315.809 45.4607C316.005 45.5187 316.114 45.7238 316.054 45.9192C315.996 46.1035 315.808 46.2105 315.624 46.1738L281.921 39.4092C280.482 38.8705 277.682 37.0964 276.184 36.2731C276.008 36.1758 275.941 35.9489 276.043 35.7719C276.116 35.6449 276.252 35.5744 276.392 35.5831L276.391 35.5802ZM282.418 36.303L277.795 36.3139L282.127 38.6969L307.81 43.852L282.418 36.303Z" fill="#2F363C"/>
</svg>
