<svg width="116" height="102" viewBox="0 0 116 102" fill="none" xmlns="http://www.w3.org/2000/svg">
<path d="M94.8795 100.969C96.1238 97.4773 98.4823 94.2954 97.7333 92.234C96.359 88.4331 92.0258 90.3212 89.0048 90.3521C68.3908 90.5626 47.783 91.0021 27.169 91.3178C24.9776 91.3488 22.7862 91.0702 19.951 90.8907C19.951 87.4488 19.9262 84.496 19.951 81.5432C20.0934 68.7229 20.1986 55.9026 20.4277 43.0823C20.5143 38.3528 20.7372 33.8215 16.3111 30.4229C14.6396 29.1415 13.8411 26.7211 12.4482 24.5049C13.2035 22.9326 14.0454 21.1807 15.1101 18.9521C6.51785 16.5379 5.11882 8.59561 1.00221 1.3838C4.32645 1.22904 6.53023 1.04333 8.72782 1.03714C26.5809 1 44.434 1.00619 62.2809 1C69.9508 1 71.8822 2.83236 72.2908 10.5518C72.5632 15.7393 74.1541 20.1159 78.2336 23.8116C84.6035 29.5872 84.4054 29.8101 86.9063 36.4462C89.8096 36.8609 92.75 37.2819 96.5447 37.8205C95.5171 41.5842 95.1581 44.6051 93.8829 47.1741C92.001 50.9812 93.4433 53.3645 96.2909 55.5807C96.6871 55.8902 97.0152 56.3297 97.4547 56.534C104.524 59.8273 109.322 64.5753 109.049 73.1305C109.012 74.3314 110.9 75.7614 112.138 76.8014C115.958 80.0142 115.865 83.8646 112.374 87.4922C110.25 89.696 107.848 92.4754 107.427 95.2735C106.722 99.9534 104.431 101.173 100.352 100.981C98.6309 100.901 96.8976 100.969 94.8919 100.969H94.8795Z" stroke="#2690FF"/>
<path d="M94.8795 100.969C96.1238 97.4773 98.4823 94.2954 97.7333 92.234C96.359 88.4331 92.0258 90.3212 89.0048 90.3521C68.3908 90.5626 47.783 91.0021 27.169 91.3178C24.9776 91.3488 22.7862 91.0702 19.951 90.8907C19.951 87.4488 19.9262 84.496 19.951 81.5432C20.0934 68.7229 20.1986 55.9026 20.4277 43.0823C20.5143 38.3528 20.7372 33.8215 16.3111 30.4229C14.6396 29.1415 13.8411 26.7211 12.4482 24.5049C13.2035 22.9326 14.0454 21.1807 15.1101 18.9521C6.51785 16.5379 5.11882 8.59561 1.00221 1.3838C4.32645 1.22904 6.53023 1.04333 8.72782 1.03714C26.5809 1 44.434 1.00619 62.2809 1C69.9508 1 71.8822 2.83236 72.2908 10.5518C72.5632 15.7393 74.1541 20.1159 78.2336 23.8116C84.6035 29.5872 84.4054 29.8101 86.9063 36.4462C89.8096 36.8609 92.75 37.2819 96.5447 37.8205C95.5171 41.5842 95.1581 44.6051 93.8829 47.1741C92.001 50.9812 93.4433 53.3645 96.2909 55.5807C96.6871 55.8902 97.0152 56.3297 97.4547 56.534C104.524 59.8273 109.322 64.5753 109.049 73.1305C109.012 74.3314 110.9 75.7614 112.138 76.8014C115.958 80.0142 115.865 83.8646 112.374 87.4922C110.25 89.696 107.848 92.4754 107.427 95.2735C106.722 99.9534 104.431 101.173 100.352 100.981C98.6309 100.901 96.8976 100.969 94.8919 100.969H94.8795Z" stroke="white" stroke-opacity="0.3"/>
<path d="M40.6474 63.547L39.108 72.8176L32.7592 72.7453L38.3813 76.3961L38.4469 80.0926L41.8294 76.9144L48.5774 79.877L44.2764 74.4304L47.8962 70.7213L43.5256 72.1786L40.6474 63.547Z" fill="#2690FF"/>
</svg>
