<svg width="199" height="100" viewBox="0 0 199 100" fill="none" xmlns="http://www.w3.org/2000/svg">
<path d="M63.2753 12.557C80.4146 12.557 97.224 12.557 114.033 12.557C136.612 12.5476 159.201 12.4627 181.78 12.5193C190.755 12.5382 190.755 12.6701 194.375 22.0694C188.841 24.3415 183.298 26.6135 177.566 28.961C183.034 29.5737 188.36 30.2997 193.715 30.7428C199.117 31.1953 199.013 35.136 197.373 38.0397C195.591 41.1979 192.518 44.2147 189.275 45.742C187.135 46.7507 183.703 44.9784 180.837 44.5164C179.762 44.3467 178.659 44.3656 178.169 44.3373V56.7157C178.97 56.7817 181.026 56.9419 183.034 57.0928C183.137 58.3089 183.514 59.3271 183.203 59.6382C181.619 61.1749 179.951 63.6261 178.15 63.7769C162.868 65.0119 153.111 73.8833 146.285 86.1391C137.074 89.3916 130.626 86.6482 124.79 79.6812C119.68 73.5721 114.297 66.3883 107.415 63.4375C100.976 60.6752 92.4253 62.8436 84.1857 62.8436C81.6497 53.5574 74.5978 52.7655 67.0464 52.2093C55.5259 51.3514 44.4108 51.3985 33.1732 55.4712C23.5005 58.9783 13.0736 58.2335 1.638 56.1312C5.03192 48.8154 9.29317 43.7999 15.7699 40.8208C20.5025 38.6336 26.3948 37.8323 29.9395 34.4761C35.0304 29.6586 41.3091 27.3111 47.1825 25.9347C55.6296 23.9455 59.3535 18.1947 63.2753 12.557Z" stroke="#2690FF"/>
<path d="M63.2753 12.557C80.4146 12.557 97.224 12.557 114.033 12.557C136.612 12.5476 159.201 12.4627 181.78 12.5193C190.755 12.5382 190.755 12.6701 194.375 22.0694C188.841 24.3415 183.298 26.6135 177.566 28.961C183.034 29.5737 188.36 30.2997 193.715 30.7428C199.117 31.1953 199.013 35.136 197.373 38.0397C195.591 41.1979 192.518 44.2147 189.275 45.742C187.135 46.7507 183.703 44.9784 180.837 44.5164C179.762 44.3467 178.659 44.3656 178.169 44.3373V56.7157C178.97 56.7817 181.026 56.9419 183.034 57.0928C183.137 58.3089 183.514 59.3271 183.203 59.6382C181.619 61.1749 179.951 63.6261 178.15 63.7769C162.868 65.0119 153.111 73.8833 146.285 86.1391C137.074 89.3916 130.626 86.6482 124.79 79.6812C119.68 73.5721 114.297 66.3883 107.415 63.4375C100.976 60.6752 92.4253 62.8436 84.1857 62.8436C81.6497 53.5574 74.5978 52.7655 67.0464 52.2093C55.5259 51.3514 44.4108 51.3985 33.1732 55.4712C23.5005 58.9783 13.0736 58.2335 1.638 56.1312C5.03192 48.8154 9.29317 43.7999 15.7699 40.8208C20.5025 38.6336 26.3948 37.8323 29.9395 34.4761C35.0304 29.6586 41.3091 27.3111 47.1825 25.9347C55.6296 23.9455 59.3535 18.1947 63.2753 12.557Z" stroke="white" stroke-opacity="0.3"/>
<path d="M147.612 59L151.295 65.9231L156.325 64.1923L152.822 68.5604L153.75 71.5L150.217 69.8791L145.636 74L147.612 68.5604L143.75 66.5824H147.612V59Z" fill="#2690FF"/>
</svg>
